  0
SECTION
  2
HEADER
  9
$ACADVER
  1
AC1014
  9
$HANDSEED
  5
FFFF
  9
$MEASUREMENT
 70
     1
  0
ENDSEC
  0
SECTION
  2
TABLES
  0
TABLE
  2
VPORT
  5
8
330
0
100
AcDbSymbolTable
 70
     4
  0
VPORT
  5
2E
330
8
100
AcDbSymbolTableRecord
100
AcDbViewportTableRecord
  2
*ACTIVE
 70
     0
 10
0.0
 20
0.0
 11
1.0
 21
1.0
 12
210.0
 22
148.5
 13
0.0
 23
0.0
 14
10.0
 24
10.0
 15
10.0
 25
10.0
 16
0.0
 26
0.0
 36
1.0
 17
0.0
 27
0.0
 37
0.0
 40
341.0
 41
1.24
 42
50.0
 43
0.0
 44
0.0
 50
0.0
 51
0.0
 71
     0
 72
   100
 73
     1
 74
     3
 75
     0
 76
     0
 77
     0
 78
     0
  0
ENDTAB
  0
TABLE
  2
LTYPE
  5
5
330
0
100
AcDbSymbolTable
 70
     1
  0
LTYPE
  5
14
330
5
100
AcDbSymbolTableRecord
100
AcDbLinetypeTableRecord
  2
BYBLOCK
 70
     0
  3

 72
    65
 73
     0
 40
0.0
  0
LTYPE
  5
15
330
5
100
AcDbSymbolTableRecord
100
AcDbLinetypeTableRecord
  2
BYLAYER
 70
     0
  3

 72
    65
 73
     0
 40
0.0
  0
LTYPE
  5
16
330
5
100
AcDbSymbolTableRecord
100
AcDbLinetypeTableRecord
  2
CONTINUOUS
 70
     0
  3
Solid line
 72
    65
 73
     0
 40
0.0
  0
ENDTAB
  0
TABLE
  2
LAYER
  5
2
100
AcDbSymbolTable
 70
2
  0
LAYER
  5
50
100
AcDbSymbolTableRecord
100
AcDbLayerTableRecord
  2
0
 70
0
  6
CONTINUOUS
  0
LAYER
  5
51
100
AcDbSymbolTableRecord
100
AcDbLayerTableRecord
  2
Layer_1
 70
0
  6
CONTINUOUS
  0
ENDTAB
  0
TABLE
  2
STYLE
  5
3
330
0
100
AcDbSymbolTable
 70
     1
  0
STYLE
  5
11
330
3
100
AcDbSymbolTableRecord
100
AcDbTextStyleTableRecord
  2
STANDARD
 70
     0
 40
0.0
 41
1.0
 50
0.0
 71
     0
 42
2.5
  3
txt
  4

  0
ENDTAB
  0
TABLE
  2
VIEW
  5
6
330
0
100
AcDbSymbolTable
 70
     0
  0
ENDTAB
  0
TABLE
  2
UCS
  5
7
330
0
100
AcDbSymbolTable
 70
     0
  0
ENDTAB
  0
TABLE
  2
APPID
  5
9
330
0
100
AcDbSymbolTable
 70
     2
  0
APPID
  5
12
330
9
100
AcDbSymbolTableRecord
100
AcDbRegAppTableRecord
  2
ACAD
 70
     0
  0
ENDTAB
  0
TABLE
  2
DIMSTYLE
  5
A
330
0
100
AcDbSymbolTable
 70
     1
  0
DIMSTYLE
105
27
330
A
100
AcDbSymbolTableRecord
100
AcDbDimStyleTableRecord
  2
ISO-25
 70
     0
  3

  4

  5

  6

  7

 40
1.0
 41
2.5
 42
0.625
 43
3.75
 44
1.25
 45
0.0
 46
0.0
 47
0.0
 48
0.0
140
2.5
141
2.5
142
0.0
143
0.03937007874016
144
1.0
145
0.0
146
1.0
147
0.625
 71
     0
 72
     0
 73
     0
 74
     0
 75
     0
 76
     0
 77
     1
 78
     8
170
     0
171
     3
172
     1
173
     0
174
     0
175
     0
176
     0
177
     0
178
     0
270
     2
271
     2
272
     2
273
     2
274
     3
340
11
275
     0
280
     0
281
     0
282
     0
283
     0
284
     8
285
     0
286
     0
287
     3
288
     0
  0
ENDTAB
  0
TABLE
  2
BLOCK_RECORD
  5
1
330
0
100
AcDbSymbolTable
 70
     1
  0
BLOCK_RECORD
  5
1F
330
1
100
AcDbSymbolTableRecord
100
AcDbBlockTableRecord
  2
*MODEL_SPACE
  0
BLOCK_RECORD
  5
1B
330
1
100
AcDbSymbolTableRecord
100
AcDbBlockTableRecord
  2
*PAPER_SPACE
  0
ENDTAB
  0
ENDSEC
  0
SECTION
  2
BLOCKS
  0
BLOCK
  5
20
330
1F
100
AcDbEntity
  8
0
100
AcDbBlockBegin
  2
*MODEL_SPACE
 70
     0
 10
0.0
 20
0.0
 30
0.0
  3
*MODEL_SPACE
  1

  0
ENDBLK
  5
21
330
1F
100
AcDbEntity
  8
0
100
AcDbBlockEnd
  0
BLOCK
  5
1C
330
1B
100
AcDbEntity
 67
     1
  8
0
100
AcDbBlockBegin
  2
*PAPER_SPACE
  1

  0
ENDBLK
  5
1D
330
1B
100
AcDbEntity
 67
     1
  8
0
100
AcDbBlockEnd
  0
ENDSEC
  0
SECTION
  2
ENTITIES
  0
LWPOLYLINE
  5
100
100
AcDbEntity
  8
Layer_1
 62
3
100
AcDbPolyline
 90
6
 70
1
 10
42.316200
 20
66.109380
 30
0.0
 10
38.390860
 20
62.184040
 30
0.0
 10
42.316200
 20
58.259220
 30
0.0
 10
69.831320
 20
58.259220
 30
0.0
 10
73.756140
 20
62.184040
 30
0.0
 10
69.831320
 20
66.109380
 30
0.0
  0
LWPOLYLINE
  5
101
100
AcDbEntity
  8
Layer_1
 62
3
100
AcDbPolyline
 90
6
 70
1
 10
32.349350
 20
68.226060
 30
0.0
 10
36.274690
 20
64.300720
 30
0.0
 10
40.199520
 20
68.226060
 30
0.0
 10
40.199520
 20
95.741180
 30
0.0
 10
36.274690
 20
99.666000
 30
0.0
 10
32.349350
 20
95.741180
 30
0.0
  0
LWPOLYLINE
  5
102
100
AcDbEntity
  8
Layer_1
 62
3
100
AcDbPolyline
 90
6
 70
1
 10
79.798170
 20
95.741180
 30
0.0
 10
75.872830
 20
99.666530
 30
0.0
 10
71.948000
 20
95.741180
 30
0.0
 10
71.948000
 20
68.226060
 30
0.0
 10
75.872830
 20
64.301240
 30
0.0
 10
79.798170
 20
68.226060
 30
0.0
  0
LWPOLYLINE
  5
103
100
AcDbEntity
  8
Layer_1
 62
3
100
AcDbPolyline
 90
6
 70
1
 10
42.316200
 20
105.708030
 30
0.0
 10
38.390860
 20
101.782690
 30
0.0
 10
42.316200
 20
97.857860
 30
0.0
 10
69.831320
 20
97.857860
 30
0.0
 10
73.756140
 20
101.782690
 30
0.0
 10
69.831320
 20
105.708030
 30
0.0
  0
LWPOLYLINE
  5
104
100
AcDbEntity
  8
Layer_1
 62
3
100
AcDbPolyline
 90
6
 70
1
 10
42.316720
 20
145.306680
 30
0.0
 10
38.391370
 20
141.381340
 30
0.0
 10
42.316720
 20
137.456510
 30
0.0
 10
69.831840
 20
137.456510
 30
0.0
 10
73.756660
 20
141.381340
 30
0.0
 10
69.831840
 20
145.306680
 30
0.0
  0
LWPOLYLINE
  5
105
100
AcDbEntity
  8
Layer_1
 62
3
100
AcDbPolyline
 90
6
 70
1
 10
71.948000
 20
107.824710
 30
0.0
 10
75.873340
 20
103.899370
 30
0.0
 10
79.798170
 20
107.824710
 30
0.0
 10
79.798170
 20
135.339830
 30
0.0
 10
75.873340
 20
139.264660
 30
0.0
 10
71.948000
 20
135.339830
 30
0.0
  0
LWPOLYLINE
  5
106
100
AcDbEntity
  8
Layer_1
 62
3
100
AcDbPolyline
 90
6
 70
1
 10
40.199520
 20
135.339830
 30
0.0
 10
36.274180
 20
139.265170
 30
0.0
 10
32.349350
 20
135.339830
 30
0.0
 10
32.349350
 20
107.824710
 30
0.0
 10
36.274180
 20
103.899890
 30
0.0
 10
40.199520
 20
107.824710
 30
0.0
  0
LWPOLYLINE
  5
107
100
AcDbEntity
  8
Layer_1
 62
3
100
AcDbPolyline
 90
6
 70
1
 10
96.594153
 20
66.109380
 30
0.0
 10
92.668813
 20
62.184040
 30
0.0
 10
96.594153
 20
58.259220
 30
0.0
 10
124.109273
 20
58.259220
 30
0.0
 10
128.034093
 20
62.184040
 30
0.0
 10
124.109273
 20
66.109380
 30
0.0
  0
LWPOLYLINE
  5
108
100
AcDbEntity
  8
Layer_1
 62
3
100
AcDbPolyline
 90
6
 70
1
 10
86.627303
 20
68.226060
 30
0.0
 10
90.552643
 20
64.300720
 30
0.0
 10
94.477473
 20
68.226060
 30
0.0
 10
94.477473
 20
95.741180
 30
0.0
 10
90.552643
 20
99.666000
 30
0.0
 10
86.627303
 20
95.741180
 30
0.0
  0
LWPOLYLINE
  5
109
100
AcDbEntity
  8
Layer_1
 62
3
100
AcDbPolyline
 90
6
 70
1
 10
134.076123
 20
95.741180
 30
0.0
 10
130.150783
 20
99.666530
 30
0.0
 10
126.225953
 20
95.741180
 30
0.0
 10
126.225953
 20
68.226060
 30
0.0
 10
130.150783
 20
64.301240
 30
0.0
 10
134.076123
 20
68.226060
 30
0.0
  0
LWPOLYLINE
  5
10a
100
AcDbEntity
  8
Layer_1
 62
3
100
AcDbPolyline
 90
6
 70
1
 10
96.594153
 20
105.708030
 30
0.0
 10
92.668813
 20
101.782690
 30
0.0
 10
96.594153
 20
97.857860
 30
0.0
 10
124.109273
 20
97.857860
 30
0.0
 10
128.034093
 20
101.782690
 30
0.0
 10
124.109273
 20
105.708030
 30
0.0
  0
LWPOLYLINE
  5
10b
100
AcDbEntity
  8
Layer_1
 62
3
100
AcDbPolyline
 90
6
 70
1
 10
96.594673
 20
145.306680
 30
0.0
 10
92.669323
 20
141.381340
 30
0.0
 10
96.594673
 20
137.456510
 30
0.0
 10
124.109793
 20
137.456510
 30
0.0
 10
128.034613
 20
141.381340
 30
0.0
 10
124.109793
 20
145.306680
 30
0.0
  0
LWPOLYLINE
  5
10c
100
AcDbEntity
  8
Layer_1
 62
3
100
AcDbPolyline
 90
6
 70
1
 10
126.225953
 20
107.824710
 30
0.0
 10
130.151293
 20
103.899370
 30
0.0
 10
134.076123
 20
107.824710
 30
0.0
 10
134.076123
 20
135.339830
 30
0.0
 10
130.151293
 20
139.264660
 30
0.0
 10
126.225953
 20
135.339830
 30
0.0
  0
LWPOLYLINE
  5
10d
100
AcDbEntity
  8
Layer_1
 62
3
100
AcDbPolyline
 90
6
 70
1
 10
94.477473
 20
135.339830
 30
0.0
 10
90.552133
 20
139.265170
 30
0.0
 10
86.627303
 20
135.339830
 30
0.0
 10
86.627303
 20
107.824710
 30
0.0
 10
90.552133
 20
103.899890
 30
0.0
 10
94.477473
 20
107.824710
 30
0.0
  0
LWPOLYLINE
  5
10e
100
AcDbEntity
  8
Layer_1
 62
3
100
AcDbPolyline
 90
6
 70
1
 10
165.651357
 20
66.109380
 30
0.0
 10
161.726017
 20
62.184040
 30
0.0
 10
165.651357
 20
58.259220
 30
0.0
 10
193.166477
 20
58.259220
 30
0.0
 10
197.091297
 20
62.184040
 30
0.0
 10
193.166477
 20
66.109380
 30
0.0
  0
LWPOLYLINE
  5
10f
100
AcDbEntity
  8
Layer_1
 62
3
100
AcDbPolyline
 90
6
 70
1
 10
155.684507
 20
68.226060
 30
0.0
 10
159.609847
 20
64.300720
 30
0.0
 10
163.534677
 20
68.226060
 30
0.0
 10
163.534677
 20
95.741180
 30
0.0
 10
159.609847
 20
99.666000
 30
0.0
 10
155.684507
 20
95.741180
 30
0.0
  0
LWPOLYLINE
  5
110
100
AcDbEntity
  8
Layer_1
 62
3
100
AcDbPolyline
 90
6
 70
1
 10
203.133327
 20
95.741180
 30
0.0
 10
199.207987
 20
99.666530
 30
0.0
 10
195.283157
 20
95.741180
 30
0.0
 10
195.283157
 20
68.226060
 30
0.0
 10
199.207987
 20
64.301240
 30
0.0
 10
203.133327
 20
68.226060
 30
0.0
  0
LWPOLYLINE
  5
111
100
AcDbEntity
  8
Layer_1
 62
3
100
AcDbPolyline
 90
6
 70
1
 10
165.651357
 20
105.708030
 30
0.0
 10
161.726017
 20
101.782690
 30
0.0
 10
165.651357
 20
97.857860
 30
0.0
 10
193.166477
 20
97.857860
 30
0.0
 10
197.091297
 20
101.782690
 30
0.0
 10
193.166477
 20
105.708030
 30
0.0
  0
LWPOLYLINE
  5
112
100
AcDbEntity
  8
Layer_1
 62
3
100
AcDbPolyline
 90
6
 70
1
 10
165.651877
 20
145.306680
 30
0.0
 10
161.726527
 20
141.381340
 30
0.0
 10
165.651877
 20
137.456510
 30
0.0
 10
193.166997
 20
137.456510
 30
0.0
 10
197.091817
 20
141.381340
 30
0.0
 10
193.166997
 20
145.306680
 30
0.0
  0
LWPOLYLINE
  5
113
100
AcDbEntity
  8
Layer_1
 62
3
100
AcDbPolyline
 90
6
 70
1
 10
195.283157
 20
107.824710
 30
0.0
 10
199.208497
 20
103.899370
 30
0.0
 10
203.133327
 20
107.824710
 30
0.0
 10
203.133327
 20
135.339830
 30
0.0
 10
199.208497
 20
139.264660
 30
0.0
 10
195.283157
 20
135.339830
 30
0.0
  0
LWPOLYLINE
  5
114
100
AcDbEntity
  8
Layer_1
 62
3
100
AcDbPolyline
 90
6
 70
1
 10
163.534677
 20
135.339830
 30
0.0
 10
159.609337
 20
139.265170
 30
0.0
 10
155.684507
 20
135.339830
 30
0.0
 10
155.684507
 20
107.824710
 30
0.0
 10
159.609337
 20
103.899890
 30
0.0
 10
163.534677
 20
107.824710
 30
0.0
  0
LWPOLYLINE
  5
115
100
AcDbEntity
  8
Layer_1
 62
3
100
AcDbPolyline
 90
6
 70
1
 10
219.929310
 20
66.109380
 30
0.0
 10
216.003970
 20
62.184040
 30
0.0
 10
219.929310
 20
58.259220
 30
0.0
 10
247.444430
 20
58.259220
 30
0.0
 10
251.369250
 20
62.184040
 30
0.0
 10
247.444430
 20
66.109380
 30
0.0
  0
LWPOLYLINE
  5
116
100
AcDbEntity
  8
Layer_1
 62
3
100
AcDbPolyline
 90
6
 70
1
 10
209.962460
 20
68.226060
 30
0.0
 10
213.887800
 20
64.300720
 30
0.0
 10
217.812630
 20
68.226060
 30
0.0
 10
217.812630
 20
95.741180
 30
0.0
 10
213.887800
 20
99.666000
 30
0.0
 10
209.962460
 20
95.741180
 30
0.0
  0
LWPOLYLINE
  5
117
100
AcDbEntity
  8
Layer_1
 62
3
100
AcDbPolyline
 90
6
 70
1
 10
257.411280
 20
95.741180
 30
0.0
 10
253.485940
 20
99.666530
 30
0.0
 10
249.561110
 20
95.741180
 30
0.0
 10
249.561110
 20
68.226060
 30
0.0
 10
253.485940
 20
64.301240
 30
0.0
 10
257.411280
 20
68.226060
 30
0.0
  0
LWPOLYLINE
  5
118
100
AcDbEntity
  8
Layer_1
 62
3
100
AcDbPolyline
 90
6
 70
1
 10
219.929310
 20
105.708030
 30
0.0
 10
216.003970
 20
101.782690
 30
0.0
 10
219.929310
 20
97.857860
 30
0.0
 10
247.444430
 20
97.857860
 30
0.0
 10
251.369250
 20
101.782690
 30
0.0
 10
247.444430
 20
105.708030
 30
0.0
  0
LWPOLYLINE
  5
119
100
AcDbEntity
  8
Layer_1
 62
3
100
AcDbPolyline
 90
6
 70
1
 10
219.929830
 20
145.306680
 30
0.0
 10
216.004480
 20
141.381340
 30
0.0
 10
219.929830
 20
137.456510
 30
0.0
 10
247.444950
 20
137.456510
 30
0.0
 10
251.369770
 20
141.381340
 30
0.0
 10
247.444950
 20
145.306680
 30
0.0
  0
LWPOLYLINE
  5
11a
100
AcDbEntity
  8
Layer_1
 62
3
100
AcDbPolyline
 90
6
 70
1
 10
249.561110
 20
107.824710
 30
0.0
 10
253.486450
 20
103.899370
 30
0.0
 10
257.411280
 20
107.824710
 30
0.0
 10
257.411280
 20
135.339830
 30
0.0
 10
253.486450
 20
139.264660
 30
0.0
 10
249.561110
 20
135.339830
 30
0.0
  0
SPLINE
  5
11b
100
AcDbEntity
  8
Layer_1
 62
3
100
AcDbSpline
 70
8
 71
3
 72
8
 73
4
 74
0
 40
0
 40
0
 40
0
 40
0
 40
1
 40
1
 40
1
 40
1
 10
144.879810
 20
123.675510
 30
0.0
 10
143.292296
 20
123.675510
 30
0.0
 10
141.861098
 20
122.719214
 30
0.0
 10
141.253583
 20
121.252542
 30
0.0
  0
SPLINE
  5
11c
100
AcDbEntity
  8
Layer_1
 62
3
100
AcDbSpline
 70
8
 71
3
 72
8
 73
4
 74
0
 40
0
 40
0
 40
0
 40
0
 40
1
 40
1
 40
1
 40
1
 10
141.253583
 20
121.252542
 30
0.0
 10
140.646067
 20
119.785870
 30
0.0
 10
140.981874
 20
118.097658
 30
0.0
 10
142.104416
 20
116.975116
 30
0.0
  0
SPLINE
  5
11d
100
AcDbEntity
  8
Layer_1
 62
3
100
AcDbSpline
 70
8
 71
3
 72
8
 73
4
 74
0
 40
0
 40
0
 40
0
 40
0
 40
1
 40
1
 40
1
 40
1
 10
142.104416
 20
116.975116
 30
0.0
 10
143.226958
 20
115.852574
 30
0.0
 10
144.915170
 20
115.516767
 30
0.0
 10
146.381842
 20
116.124283
 30
0.0
  0
SPLINE
  5
11e
100
AcDbEntity
  8
Layer_1
 62
3
100
AcDbSpline
 70
8
 71
3
 72
8
 73
4
 74
0
 40
0
 40
0
 40
0
 40
0
 40
1
 40
1
 40
1
 40
1
 10
146.381842
 20
116.124283
 30
0.0
 10
147.848514
 20
116.731798
 30
0.0
 10
148.804810
 20
118.162996
 30
0.0
 10
148.804810
 20
119.750510
 30
0.0
  0
SPLINE
  5
11f
100
AcDbEntity
  8
Layer_1
 62
3
100
AcDbSpline
 70
8
 71
3
 72
8
 73
4
 74
0
 40
0
 40
0
 40
0
 40
0
 40
1
 40
1
 40
1
 40
1
 10
148.804810
 20
119.750510
 30
0.0
 10
148.804810
 20
120.791485
 30
0.0
 10
148.391284
 20
121.789824
 30
0.0
 10
147.655204
 20
122.525904
 30
0.0
  0
SPLINE
  5
120
100
AcDbEntity
  8
Layer_1
 62
3
100
AcDbSpline
 70
8
 71
3
 72
8
 73
4
 74
0
 40
0
 40
0
 40
0
 40
0
 40
1
 40
1
 40
1
 40
1
 10
147.655204
 20
122.525904
 30
0.0
 10
146.919124
 20
123.261984
 30
0.0
 10
145.920785
 20
123.675510
 30
0.0
 10
144.879810
 20
123.675510
 30
0.0
  0
LWPOLYLINE
  5
121
100
AcDbEntity
  8
Layer_1
 62
3
100
AcDbPolyline
 90
6
 70
1
 10
217.812630
 20
135.339830
 30
0.0
 10
213.887290
 20
139.265170
 30
0.0
 10
209.962460
 20
135.339830
 30
0.0
 10
209.962460
 20
107.824710
 30
0.0
 10
213.887290
 20
103.899890
 30
0.0
 10
217.812630
 20
107.824710
 30
0.0
  0
SPLINE
  5
122
100
AcDbEntity
  8
Layer_1
 62
3
100
AcDbSpline
 70
8
 71
3
 72
8
 73
4
 74
0
 40
0
 40
0
 40
0
 40
0
 40
1
 40
1
 40
1
 40
1
 10
144.879810
 20
87.740390
 30
0.0
 10
143.292296
 20
87.740390
 30
0.0
 10
141.861098
 20
86.784094
 30
0.0
 10
141.253583
 20
85.317422
 30
0.0
  0
SPLINE
  5
123
100
AcDbEntity
  8
Layer_1
 62
3
100
AcDbSpline
 70
8
 71
3
 72
8
 73
4
 74
0
 40
0
 40
0
 40
0
 40
0
 40
1
 40
1
 40
1
 40
1
 10
141.253583
 20
85.317422
 30
0.0
 10
140.646067
 20
83.850750
 30
0.0
 10
140.981874
 20
82.162538
 30
0.0
 10
142.104416
 20
81.039996
 30
0.0
  0
SPLINE
  5
124
100
AcDbEntity
  8
Layer_1
 62
3
100
AcDbSpline
 70
8
 71
3
 72
8
 73
4
 74
0
 40
0
 40
0
 40
0
 40
0
 40
1
 40
1
 40
1
 40
1
 10
142.104416
 20
81.039996
 30
0.0
 10
143.226958
 20
79.917454
 30
0.0
 10
144.915170
 20
79.581647
 30
0.0
 10
146.381842
 20
80.189163
 30
0.0
  0
SPLINE
  5
125
100
AcDbEntity
  8
Layer_1
 62
3
100
AcDbSpline
 70
8
 71
3
 72
8
 73
4
 74
0
 40
0
 40
0
 40
0
 40
0
 40
1
 40
1
 40
1
 40
1
 10
146.381842
 20
80.189163
 30
0.0
 10
147.848514
 20
80.796678
 30
0.0
 10
148.804810
 20
82.227876
 30
0.0
 10
148.804810
 20
83.815390
 30
0.0
  0
SPLINE
  5
126
100
AcDbEntity
  8
Layer_1
 62
3
100
AcDbSpline
 70
8
 71
3
 72
8
 73
4
 74
0
 40
0
 40
0
 40
0
 40
0
 40
1
 40
1
 40
1
 40
1
 10
148.804810
 20
83.815390
 30
0.0
 10
148.804810
 20
84.856365
 30
0.0
 10
148.391284
 20
85.854704
 30
0.0
 10
147.655204
 20
86.590784
 30
0.0
  0
SPLINE
  5
127
100
AcDbEntity
  8
Layer_1
 62
3
100
AcDbSpline
 70
8
 71
3
 72
8
 73
4
 74
0
 40
0
 40
0
 40
0
 40
0
 40
1
 40
1
 40
1
 40
1
 10
147.655204
 20
86.590784
 30
0.0
 10
146.919124
 20
87.326864
 30
0.0
 10
145.920785
 20
87.740390
 30
0.0
 10
144.879810
 20
87.740390
 30
0.0
  0
LWPOLYLINE
  5
128
100
AcDbEntity
  8
Layer_1
 62
3
100
AcDbPolyline
 90
1
 70
1
 10
144.879810
 20
123.675510
 30
0.0
  0
LWPOLYLINE
  5
129
100
AcDbEntity
  8
Layer_1
 62
3
100
AcDbPolyline
 90
1
 70
1
 10
144.879810
 20
87.740390
 30
0.0
  0
SPLINE
  5
12a
100
AcDbEntity
  8
Layer_1
 62
3
100
AcDbSpline
 70
8
 71
3
 72
8
 73
4
 74
0
 40
0
 40
0
 40
0
 40
0
 40
1
 40
1
 40
1
 40
1
 10
248.880310
 20
154.282690
 30
0.0
 10
254.184640
 20
154.282690
 30
0.0
 10
259.271718
 20
152.175553
 30
0.0
 10
263.022446
 20
148.424826
 30
0.0
  0
SPLINE
  5
12b
100
AcDbEntity
  8
Layer_1
 62
3
100
AcDbSpline
 70
8
 71
3
 72
8
 73
4
 74
0
 40
0
 40
0
 40
0
 40
0
 40
1
 40
1
 40
1
 40
1
 10
263.022446
 20
148.424826
 30
0.0
 10
266.773173
 20
144.674098
 30
0.0
 10
268.880310
 20
139.587020
 30
0.0
 10
268.880310
 20
134.282690
 30
0.0
  0
LWPOLYLINE
  5
12c
100
AcDbEntity
  8
Layer_1
 62
3
100
AcDbPolyline
 90
2
 70
0
 10
40.880310
 20
154.282690
 30
0.0
 10
248.880310
 20
154.282690
 30
0.0
  0
SPLINE
  5
12d
100
AcDbEntity
  8
Layer_1
 62
3
100
AcDbSpline
 70
8
 71
3
 72
8
 73
4
 74
0
 40
0
 40
0
 40
0
 40
0
 40
1
 40
1
 40
1
 40
1
 10
268.880310
 20
69.282690
 30
0.0
 10
268.880310
 20
63.978360
 30
0.0
 10
266.773173
 20
58.891282
 30
0.0
 10
263.022446
 20
55.140554
 30
0.0
  0
SPLINE
  5
12e
100
AcDbEntity
  8
Layer_1
 62
3
100
AcDbSpline
 70
8
 71
3
 72
8
 73
4
 74
0
 40
0
 40
0
 40
0
 40
0
 40
1
 40
1
 40
1
 40
1
 10
263.022446
 20
55.140554
 30
0.0
 10
259.271718
 20
51.389827
 30
0.0
 10
254.184640
 20
49.282690
 30
0.0
 10
248.880310
 20
49.282690
 30
0.0
  0
LWPOLYLINE
  5
12f
100
AcDbEntity
  8
Layer_1
 62
3
100
AcDbPolyline
 90
2
 70
0
 10
268.880310
 20
134.282690
 30
0.0
 10
268.880310
 20
69.282690
 30
0.0
  0
SPLINE
  5
130
100
AcDbEntity
  8
Layer_1
 62
3
100
AcDbSpline
 70
8
 71
3
 72
8
 73
4
 74
0
 40
0
 40
0
 40
0
 40
0
 40
1
 40
1
 40
1
 40
1
 10
40.880310
 20
49.282690
 30
0.0
 10
35.575980
 20
49.282690
 30
0.0
 10
30.488902
 20
51.389827
 30
0.0
 10
26.738174
 20
55.140554
 30
0.0
  0
SPLINE
  5
131
100
AcDbEntity
  8
Layer_1
 62
3
100
AcDbSpline
 70
8
 71
3
 72
8
 73
4
 74
0
 40
0
 40
0
 40
0
 40
0
 40
1
 40
1
 40
1
 40
1
 10
26.738174
 20
55.140554
 30
0.0
 10
22.987447
 20
58.891282
 30
0.0
 10
20.880310
 20
63.978360
 30
0.0
 10
20.880310
 20
69.282690
 30
0.0
  0
LWPOLYLINE
  5
132
100
AcDbEntity
  8
Layer_1
 62
3
100
AcDbPolyline
 90
2
 70
0
 10
248.880310
 20
49.282690
 30
0.0
 10
40.880310
 20
49.282690
 30
0.0
  0
SPLINE
  5
133
100
AcDbEntity
  8
Layer_1
 62
3
100
AcDbSpline
 70
8
 71
3
 72
8
 73
4
 74
0
 40
0
 40
0
 40
0
 40
0
 40
1
 40
1
 40
1
 40
1
 10
20.880310
 20
134.282690
 30
0.0
 10
20.880310
 20
139.587020
 30
0.0
 10
22.987447
 20
144.674098
 30
0.0
 10
26.738174
 20
148.424826
 30
0.0
  0
SPLINE
  5
134
100
AcDbEntity
  8
Layer_1
 62
3
100
AcDbSpline
 70
8
 71
3
 72
8
 73
4
 74
0
 40
0
 40
0
 40
0
 40
0
 40
1
 40
1
 40
1
 40
1
 10
26.738174
 20
148.424826
 30
0.0
 10
30.488902
 20
152.175553
 30
0.0
 10
35.575980
 20
154.282690
 30
0.0
 10
40.880310
 20
154.282690
 30
0.0
  0
LWPOLYLINE
  5
135
100
AcDbEntity
  8
Layer_1
 62
3
100
AcDbPolyline
 90
2
 70
0
 10
20.880310
 20
69.282690
 30
0.0
 10
20.880310
 20
134.282690
 30
0.0
  0
SPLINE
  5
136
100
AcDbEntity
  8
Layer_1
 62
3
100
AcDbSpline
 70
8
 71
3
 72
8
 73
4
 74
0
 40
0
 40
0
 40
0
 40
0
 40
1
 40
1
 40
1
 40
1
 10
258.880290
 20
145.782690
 30
0.0
 10
258.273597
 20
145.782690
 30
0.0
 10
257.726642
 20
145.417227
 30
0.0
 10
257.494471
 20
144.856715
 30
0.0
  0
SPLINE
  5
137
100
AcDbEntity
  8
Layer_1
 62
3
100
AcDbSpline
 70
8
 71
3
 72
8
 73
4
 74
0
 40
0
 40
0
 40
0
 40
0
 40
1
 40
1
 40
1
 40
1
 10
257.494471
 20
144.856715
 30
0.0
 10
257.262299
 20
144.296204
 30
0.0
 10
257.390633
 20
143.651027
 30
0.0
 10
257.819630
 20
143.222030
 30
0.0
  0
SPLINE
  5
138
100
AcDbEntity
  8
Layer_1
 62
3
100
AcDbSpline
 70
8
 71
3
 72
8
 73
4
 74
0
 40
0
 40
0
 40
0
 40
0
 40
1
 40
1
 40
1
 40
1
 10
257.819630
 20
143.222030
 30
0.0
 10
258.248627
 20
142.793033
 30
0.0
 10
258.893804
 20
142.664699
 30
0.0
 10
259.454315
 20
142.896871
 30
0.0
  0
SPLINE
  5
139
100
AcDbEntity
  8
Layer_1
 62
3
100
AcDbSpline
 70
8
 71
3
 72
8
 73
4
 74
0
 40
0
 40
0
 40
0
 40
0
 40
1
 40
1
 40
1
 40
1
 10
259.454315
 20
142.896871
 30
0.0
 10
260.014827
 20
143.129042
 30
0.0
 10
260.380290
 20
143.675997
 30
0.0
 10
260.380290
 20
144.282690
 30
0.0
  0
SPLINE
  5
13a
100
AcDbEntity
  8
Layer_1
 62
3
100
AcDbSpline
 70
8
 71
3
 72
8
 73
4
 74
0
 40
0
 40
0
 40
0
 40
0
 40
1
 40
1
 40
1
 40
1
 10
260.380290
 20
144.282690
 30
0.0
 10
260.380290
 20
145.111117
 30
0.0
 10
259.708717
 20
145.782690
 30
0.0
 10
258.880290
 20
145.782690
 30
0.0
  0
LWPOLYLINE
  5
13b
100
AcDbEntity
  8
Layer_1
 62
3
100
AcDbPolyline
 90
1
 70
1
 10
40.880310
 20
154.282690
 30
0.0
  0
SPLINE
  5
13c
100
AcDbEntity
  8
Layer_1
 62
3
100
AcDbSpline
 70
8
 71
3
 72
8
 73
4
 74
0
 40
0
 40
0
 40
0
 40
0
 40
1
 40
1
 40
1
 40
1
 10
258.880330
 20
60.782670
 30
0.0
 10
258.273637
 20
60.782670
 30
0.0
 10
257.726682
 20
60.417207
 30
0.0
 10
257.494511
 20
59.856695
 30
0.0
  0
SPLINE
  5
13d
100
AcDbEntity
  8
Layer_1
 62
3
100
AcDbSpline
 70
8
 71
3
 72
8
 73
4
 74
0
 40
0
 40
0
 40
0
 40
0
 40
1
 40
1
 40
1
 40
1
 10
257.494511
 20
59.856695
 30
0.0
 10
257.262339
 20
59.296184
 30
0.0
 10
257.390673
 20
58.651007
 30
0.0
 10
257.819670
 20
58.222010
 30
0.0
  0
SPLINE
  5
13e
100
AcDbEntity
  8
Layer_1
 62
3
100
AcDbSpline
 70
8
 71
3
 72
8
 73
4
 74
0
 40
0
 40
0
 40
0
 40
0
 40
1
 40
1
 40
1
 40
1
 10
257.819670
 20
58.222010
 30
0.0
 10
258.248667
 20
57.793013
 30
0.0
 10
258.893844
 20
57.664679
 30
0.0
 10
259.454355
 20
57.896851
 30
0.0
  0
SPLINE
  5
13f
100
AcDbEntity
  8
Layer_1
 62
3
100
AcDbSpline
 70
8
 71
3
 72
8
 73
4
 74
0
 40
0
 40
0
 40
0
 40
0
 40
1
 40
1
 40
1
 40
1
 10
259.454355
 20
57.896851
 30
0.0
 10
260.014867
 20
58.129022
 30
0.0
 10
260.380330
 20
58.675977
 30
0.0
 10
260.380330
 20
59.282670
 30
0.0
  0
SPLINE
  5
140
100
AcDbEntity
  8
Layer_1
 62
3
100
AcDbSpline
 70
8
 71
3
 72
8
 73
4
 74
0
 40
0
 40
0
 40
0
 40
0
 40
1
 40
1
 40
1
 40
1
 10
260.380330
 20
59.282670
 30
0.0
 10
260.380330
 20
59.680495
 30
0.0
 10
260.222295
 20
60.062026
 30
0.0
 10
259.940990
 20
60.343330
 30
0.0
  0
SPLINE
  5
141
100
AcDbEntity
  8
Layer_1
 62
3
100
AcDbSpline
 70
8
 71
3
 72
8
 73
4
 74
0
 40
0
 40
0
 40
0
 40
0
 40
1
 40
1
 40
1
 40
1
 10
259.940990
 20
60.343330
 30
0.0
 10
259.659686
 20
60.624635
 30
0.0
 10
259.278155
 20
60.782670
 30
0.0
 10
258.880330
 20
60.782670
 30
0.0
  0
LWPOLYLINE
  5
142
100
AcDbEntity
  8
Layer_1
 62
3
100
AcDbPolyline
 90
1
 70
1
 10
258.880290
 20
145.782690
 30
0.0
  0
SPLINE
  5
143
100
AcDbEntity
  8
Layer_1
 62
3
100
AcDbSpline
 70
8
 71
3
 72
8
 73
4
 74
0
 40
0
 40
0
 40
0
 40
0
 40
1
 40
1
 40
1
 40
1
 10
30.880310
 20
60.782670
 30
0.0
 10
30.273617
 20
60.782670
 30
0.0
 10
29.726662
 20
60.417207
 30
0.0
 10
29.494491
 20
59.856695
 30
0.0
  0
SPLINE
  5
144
100
AcDbEntity
  8
Layer_1
 62
3
100
AcDbSpline
 70
8
 71
3
 72
8
 73
4
 74
0
 40
0
 40
0
 40
0
 40
0
 40
1
 40
1
 40
1
 40
1
 10
29.494491
 20
59.856695
 30
0.0
 10
29.262319
 20
59.296184
 30
0.0
 10
29.390653
 20
58.651007
 30
0.0
 10
29.819650
 20
58.222010
 30
0.0
  0
SPLINE
  5
145
100
AcDbEntity
  8
Layer_1
 62
3
100
AcDbSpline
 70
8
 71
3
 72
8
 73
4
 74
0
 40
0
 40
0
 40
0
 40
0
 40
1
 40
1
 40
1
 40
1
 10
29.819650
 20
58.222010
 30
0.0
 10
30.248647
 20
57.793013
 30
0.0
 10
30.893824
 20
57.664679
 30
0.0
 10
31.454335
 20
57.896851
 30
0.0
  0
SPLINE
  5
146
100
AcDbEntity
  8
Layer_1
 62
3
100
AcDbSpline
 70
8
 71
3
 72
8
 73
4
 74
0
 40
0
 40
0
 40
0
 40
0
 40
1
 40
1
 40
1
 40
1
 10
31.454335
 20
57.896851
 30
0.0
 10
32.014847
 20
58.129022
 30
0.0
 10
32.380310
 20
58.675977
 30
0.0
 10
32.380310
 20
59.282670
 30
0.0
  0
SPLINE
  5
147
100
AcDbEntity
  8
Layer_1
 62
3
100
AcDbSpline
 70
8
 71
3
 72
8
 73
4
 74
0
 40
0
 40
0
 40
0
 40
0
 40
1
 40
1
 40
1
 40
1
 10
32.380310
 20
59.282670
 30
0.0
 10
32.380310
 20
59.680495
 30
0.0
 10
32.222275
 20
60.062026
 30
0.0
 10
31.940970
 20
60.343330
 30
0.0
  0
SPLINE
  5
148
100
AcDbEntity
  8
Layer_1
 62
3
100
AcDbSpline
 70
8
 71
3
 72
8
 73
4
 74
0
 40
0
 40
0
 40
0
 40
0
 40
1
 40
1
 40
1
 40
1
 10
31.940970
 20
60.343330
 30
0.0
 10
31.659666
 20
60.624635
 30
0.0
 10
31.278135
 20
60.782670
 30
0.0
 10
30.880310
 20
60.782670
 30
0.0
  0
LWPOLYLINE
  5
149
100
AcDbEntity
  8
Layer_1
 62
3
100
AcDbPolyline
 90
1
 70
1
 10
258.880330
 20
60.782670
 30
0.0
  0
SPLINE
  5
14a
100
AcDbEntity
  8
Layer_1
 62
3
100
AcDbSpline
 70
8
 71
3
 72
8
 73
4
 74
0
 40
0
 40
0
 40
0
 40
0
 40
1
 40
1
 40
1
 40
1
 10
30.880310
 20
145.782690
 30
0.0
 10
30.273617
 20
145.782690
 30
0.0
 10
29.726662
 20
145.417227
 30
0.0
 10
29.494491
 20
144.856715
 30
0.0
  0
SPLINE
  5
14b
100
AcDbEntity
  8
Layer_1
 62
3
100
AcDbSpline
 70
8
 71
3
 72
8
 73
4
 74
0
 40
0
 40
0
 40
0
 40
0
 40
1
 40
1
 40
1
 40
1
 10
29.494491
 20
144.856715
 30
0.0
 10
29.262319
 20
144.296204
 30
0.0
 10
29.390653
 20
143.651027
 30
0.0
 10
29.819650
 20
143.222030
 30
0.0
  0
SPLINE
  5
14c
100
AcDbEntity
  8
Layer_1
 62
3
100
AcDbSpline
 70
8
 71
3
 72
8
 73
4
 74
0
 40
0
 40
0
 40
0
 40
0
 40
1
 40
1
 40
1
 40
1
 10
29.819650
 20
143.222030
 30
0.0
 10
30.248647
 20
142.793033
 30
0.0
 10
30.893824
 20
142.664699
 30
0.0
 10
31.454335
 20
142.896871
 30
0.0
  0
SPLINE
  5
14d
100
AcDbEntity
  8
Layer_1
 62
3
100
AcDbSpline
 70
8
 71
3
 72
8
 73
4
 74
0
 40
0
 40
0
 40
0
 40
0
 40
1
 40
1
 40
1
 40
1
 10
31.454335
 20
142.896871
 30
0.0
 10
32.014847
 20
143.129042
 30
0.0
 10
32.380310
 20
143.675997
 30
0.0
 10
32.380310
 20
144.282690
 30
0.0
  0
SPLINE
  5
14e
100
AcDbEntity
  8
Layer_1
 62
3
100
AcDbSpline
 70
8
 71
3
 72
8
 73
4
 74
0
 40
0
 40
0
 40
0
 40
0
 40
1
 40
1
 40
1
 40
1
 10
32.380310
 20
144.282690
 30
0.0
 10
32.380310
 20
144.680515
 30
0.0
 10
32.222275
 20
145.062046
 30
0.0
 10
31.940970
 20
145.343350
 30
0.0
  0
SPLINE
  5
14f
100
AcDbEntity
  8
Layer_1
 62
3
100
AcDbSpline
 70
8
 71
3
 72
8
 73
4
 74
0
 40
0
 40
0
 40
0
 40
0
 40
1
 40
1
 40
1
 40
1
 10
31.940970
 20
145.343350
 30
0.0
 10
31.659666
 20
145.624655
 30
0.0
 10
31.278135
 20
145.782690
 30
0.0
 10
30.880310
 20
145.782690
 30
0.0
  0
LWPOLYLINE
  5
150
100
AcDbEntity
  8
Layer_1
 62
3
100
AcDbPolyline
 90
1
 70
1
 10
30.880310
 20
60.782670
 30
0.0
  0
LWPOLYLINE
  5
151
100
AcDbEntity
  8
Layer_1
 62
3
100
AcDbPolyline
 90
1
 70
1
 10
30.880310
 20
145.782690
 30
0.0
  0
LWPOLYLINE
  5
152
100
AcDbEntity
  8
Layer_1
 62
3
100
AcDbPolyline
 90
4
 70
1
 10
51.074020
 20
137.456500
 30
0.0
 10
61.074020
 20
137.456500
 30
0.0
 10
61.074020
 20
127.456500
 30
0.0
 10
51.074020
 20
127.456500
 30
0.0
  0
SPLINE
  5
153
100
AcDbEntity
  8
Layer_1
 62
3
100
AcDbSpline
 70
8
 71
3
 72
8
 73
4
 74
0
 40
0
 40
0
 40
0
 40
0
 40
1
 40
1
 40
1
 40
1
 10
56.073500
 20
72.659360
 30
0.0
 10
55.446584
 20
72.659360
 30
0.0
 10
54.881397
 20
72.281715
 30
0.0
 10
54.641487
 20
71.702519
 30
0.0
  0
SPLINE
  5
154
100
AcDbEntity
  8
Layer_1
 62
3
100
AcDbSpline
 70
8
 71
3
 72
8
 73
4
 74
0
 40
0
 40
0
 40
0
 40
0
 40
1
 40
1
 40
1
 40
1
 10
54.641487
 20
71.702519
 30
0.0
 10
54.401576
 20
71.123324
 30
0.0
 10
54.534188
 20
70.456641
 30
0.0
 10
54.977484
 20
70.013344
 30
0.0
  0
SPLINE
  5
155
100
AcDbEntity
  8
Layer_1
 62
3
100
AcDbSpline
 70
8
 71
3
 72
8
 73
4
 74
0
 40
0
 40
0
 40
0
 40
0
 40
1
 40
1
 40
1
 40
1
 10
54.977484
 20
70.013344
 30
0.0
 10
55.420781
 20
69.570048
 30
0.0
 10
56.087464
 20
69.437436
 30
0.0
 10
56.666659
 20
69.677347
 30
0.0
  0
SPLINE
  5
156
100
AcDbEntity
  8
Layer_1
 62
3
100
AcDbSpline
 70
8
 71
3
 72
8
 73
4
 74
0
 40
0
 40
0
 40
0
 40
0
 40
1
 40
1
 40
1
 40
1
 10
56.666659
 20
69.677347
 30
0.0
 10
57.245855
 20
69.917257
 30
0.0
 10
57.623500
 20
70.482444
 30
0.0
 10
57.623500
 20
71.109360
 30
0.0
  0
SPLINE
  5
157
100
AcDbEntity
  8
Layer_1
 62
3
100
AcDbSpline
 70
8
 71
3
 72
8
 73
4
 74
0
 40
0
 40
0
 40
0
 40
0
 40
1
 40
1
 40
1
 40
1
 10
57.623500
 20
71.109360
 30
0.0
 10
57.623500
 20
71.520446
 30
0.0
 10
57.460197
 20
71.914694
 30
0.0
 10
57.169516
 20
72.205376
 30
0.0
  0
SPLINE
  5
158
100
AcDbEntity
  8
Layer_1
 62
3
100
AcDbSpline
 70
8
 71
3
 72
8
 73
4
 74
0
 40
0
 40
0
 40
0
 40
0
 40
1
 40
1
 40
1
 40
1
 10
57.169516
 20
72.205376
 30
0.0
 10
56.878834
 20
72.496057
 30
0.0
 10
56.484586
 20
72.659360
 30
0.0
 10
56.073500
 20
72.659360
 30
0.0
  0
LWPOLYLINE
  5
159
100
AcDbEntity
  8
Layer_1
 62
3
100
AcDbPolyline
 90
4
 70
1
 10
51.073500
 20
76.109360
 30
0.0
 10
61.073500
 20
76.109360
 30
0.0
 10
61.073500
 20
66.109360
 30
0.0
 10
51.073500
 20
66.109360
 30
0.0
  0
SPLINE
  5
15a
100
AcDbEntity
  8
Layer_1
 62
3
100
AcDbSpline
 70
8
 71
3
 72
8
 73
4
 74
0
 40
0
 40
0
 40
0
 40
0
 40
1
 40
1
 40
1
 40
1
 10
56.074020
 20
134.006500
 30
0.0
 10
55.447104
 20
134.006500
 30
0.0
 10
54.881917
 20
133.628855
 30
0.0
 10
54.642007
 20
133.049659
 30
0.0
  0
SPLINE
  5
15b
100
AcDbEntity
  8
Layer_1
 62
3
100
AcDbSpline
 70
8
 71
3
 72
8
 73
4
 74
0
 40
0
 40
0
 40
0
 40
0
 40
1
 40
1
 40
1
 40
1
 10
54.642007
 20
133.049659
 30
0.0
 10
54.402096
 20
132.470464
 30
0.0
 10
54.534708
 20
131.803781
 30
0.0
 10
54.978004
 20
131.360484
 30
0.0
  0
SPLINE
  5
15c
100
AcDbEntity
  8
Layer_1
 62
3
100
AcDbSpline
 70
8
 71
3
 72
8
 73
4
 74
0
 40
0
 40
0
 40
0
 40
0
 40
1
 40
1
 40
1
 40
1
 10
54.978004
 20
131.360484
 30
0.0
 10
55.421301
 20
130.917188
 30
0.0
 10
56.087984
 20
130.784576
 30
0.0
 10
56.667179
 20
131.024487
 30
0.0
  0
SPLINE
  5
15d
100
AcDbEntity
  8
Layer_1
 62
3
100
AcDbSpline
 70
8
 71
3
 72
8
 73
4
 74
0
 40
0
 40
0
 40
0
 40
0
 40
1
 40
1
 40
1
 40
1
 10
56.667179
 20
131.024487
 30
0.0
 10
57.246375
 20
131.264397
 30
0.0
 10
57.624020
 20
131.829584
 30
0.0
 10
57.624020
 20
132.456500
 30
0.0
  0
SPLINE
  5
15e
100
AcDbEntity
  8
Layer_1
 62
3
100
AcDbSpline
 70
8
 71
3
 72
8
 73
4
 74
0
 40
0
 40
0
 40
0
 40
0
 40
1
 40
1
 40
1
 40
1
 10
57.624020
 20
132.456500
 30
0.0
 10
57.624020
 20
132.867586
 30
0.0
 10
57.460717
 20
133.261834
 30
0.0
 10
57.170036
 20
133.552516
 30
0.0
  0
SPLINE
  5
15f
100
AcDbEntity
  8
Layer_1
 62
3
100
AcDbSpline
 70
8
 71
3
 72
8
 73
4
 74
0
 40
0
 40
0
 40
0
 40
0
 40
1
 40
1
 40
1
 40
1
 10
57.170036
 20
133.552516
 30
0.0
 10
56.879354
 20
133.843197
 30
0.0
 10
56.485106
 20
134.006500
 30
0.0
 10
56.074020
 20
134.006500
 30
0.0
  0
LWPOLYLINE
  5
160
100
AcDbEntity
  8
Layer_1
 62
3
100
AcDbPolyline
 90
1
 70
1
 10
56.073500
 20
72.659360
 30
0.0
  0
LWPOLYLINE
  5
161
100
AcDbEntity
  8
Layer_1
 62
3
100
AcDbPolyline
 90
1
 70
1
 10
56.074020
 20
134.006500
 30
0.0
  0
SPLINE
  5
162
100
AcDbEntity
  8
Layer_1
 62
3
100
AcDbSpline
 70
8
 71
3
 72
8
 73
4
 74
0
 40
0
 40
0
 40
0
 40
0
 40
1
 40
1
 40
1
 40
1
 10
110.351500
 20
72.659375
 30
0.0
 10
109.724584
 20
72.659375
 30
0.0
 10
109.159397
 20
72.281730
 30
0.0
 10
108.919487
 20
71.702534
 30
0.0
  0
SPLINE
  5
163
100
AcDbEntity
  8
Layer_1
 62
3
100
AcDbSpline
 70
8
 71
3
 72
8
 73
4
 74
0
 40
0
 40
0
 40
0
 40
0
 40
1
 40
1
 40
1
 40
1
 10
108.919487
 20
71.702534
 30
0.0
 10
108.679576
 20
71.123339
 30
0.0
 10
108.812188
 20
70.456656
 30
0.0
 10
109.255484
 20
70.013359
 30
0.0
  0
SPLINE
  5
164
100
AcDbEntity
  8
Layer_1
 62
3
100
AcDbSpline
 70
8
 71
3
 72
8
 73
4
 74
0
 40
0
 40
0
 40
0
 40
0
 40
1
 40
1
 40
1
 40
1
 10
109.255484
 20
70.013359
 30
0.0
 10
109.698781
 20
69.570063
 30
0.0
 10
110.365464
 20
69.437451
 30
0.0
 10
110.944659
 20
69.677362
 30
0.0
  0
SPLINE
  5
165
100
AcDbEntity
  8
Layer_1
 62
3
100
AcDbSpline
 70
8
 71
3
 72
8
 73
4
 74
0
 40
0
 40
0
 40
0
 40
0
 40
1
 40
1
 40
1
 40
1
 10
110.944659
 20
69.677362
 30
0.0
 10
111.523855
 20
69.917272
 30
0.0
 10
111.901500
 20
70.482459
 30
0.0
 10
111.901500
 20
71.109375
 30
0.0
  0
SPLINE
  5
166
100
AcDbEntity
  8
Layer_1
 62
3
100
AcDbSpline
 70
8
 71
3
 72
8
 73
4
 74
0
 40
0
 40
0
 40
0
 40
0
 40
1
 40
1
 40
1
 40
1
 10
111.901500
 20
71.109375
 30
0.0
 10
111.901500
 20
71.520461
 30
0.0
 10
111.738197
 20
71.914709
 30
0.0
 10
111.447516
 20
72.205391
 30
0.0
  0
SPLINE
  5
167
100
AcDbEntity
  8
Layer_1
 62
3
100
AcDbSpline
 70
8
 71
3
 72
8
 73
4
 74
0
 40
0
 40
0
 40
0
 40
0
 40
1
 40
1
 40
1
 40
1
 10
111.447516
 20
72.205391
 30
0.0
 10
111.156834
 20
72.496072
 30
0.0
 10
110.762586
 20
72.659375
 30
0.0
 10
110.351500
 20
72.659375
 30
0.0
  0
LWPOLYLINE
  5
168
100
AcDbEntity
  8
Layer_1
 62
3
100
AcDbPolyline
 90
4
 70
1
 10
105.351500
 20
76.109375
 30
0.0
 10
115.351500
 20
76.109375
 30
0.0
 10
115.351500
 20
66.109375
 30
0.0
 10
105.351500
 20
66.109375
 30
0.0
  0
LWPOLYLINE
  5
169
100
AcDbEntity
  8
Layer_1
 62
3
100
AcDbPolyline
 90
1
 70
1
 10
110.351500
 20
72.659375
 30
0.0
  0
SPLINE
  5
16a
100
AcDbEntity
  8
Layer_1
 62
3
100
AcDbSpline
 70
8
 71
3
 72
8
 73
4
 74
0
 40
0
 40
0
 40
0
 40
0
 40
1
 40
1
 40
1
 40
1
 10
110.352000
 20
134.006460
 30
0.0
 10
109.725084
 20
134.006460
 30
0.0
 10
109.159897
 20
133.628815
 30
0.0
 10
108.919987
 20
133.049619
 30
0.0
  0
SPLINE
  5
16b
100
AcDbEntity
  8
Layer_1
 62
3
100
AcDbSpline
 70
8
 71
3
 72
8
 73
4
 74
0
 40
0
 40
0
 40
0
 40
0
 40
1
 40
1
 40
1
 40
1
 10
108.919987
 20
133.049619
 30
0.0
 10
108.680076
 20
132.470424
 30
0.0
 10
108.812688
 20
131.803741
 30
0.0
 10
109.255984
 20
131.360444
 30
0.0
  0
SPLINE
  5
16c
100
AcDbEntity
  8
Layer_1
 62
3
100
AcDbSpline
 70
8
 71
3
 72
8
 73
4
 74
0
 40
0
 40
0
 40
0
 40
0
 40
1
 40
1
 40
1
 40
1
 10
109.255984
 20
131.360444
 30
0.0
 10
109.699281
 20
130.917148
 30
0.0
 10
110.365964
 20
130.784536
 30
0.0
 10
110.945159
 20
131.024447
 30
0.0
  0
SPLINE
  5
16d
100
AcDbEntity
  8
Layer_1
 62
3
100
AcDbSpline
 70
8
 71
3
 72
8
 73
4
 74
0
 40
0
 40
0
 40
0
 40
0
 40
1
 40
1
 40
1
 40
1
 10
110.945159
 20
131.024447
 30
0.0
 10
111.524355
 20
131.264357
 30
0.0
 10
111.902000
 20
131.829544
 30
0.0
 10
111.902000
 20
132.456460
 30
0.0
  0
SPLINE
  5
16e
100
AcDbEntity
  8
Layer_1
 62
3
100
AcDbSpline
 70
8
 71
3
 72
8
 73
4
 74
0
 40
0
 40
0
 40
0
 40
0
 40
1
 40
1
 40
1
 40
1
 10
111.902000
 20
132.456460
 30
0.0
 10
111.902000
 20
132.867546
 30
0.0
 10
111.738697
 20
133.261794
 30
0.0
 10
111.448016
 20
133.552476
 30
0.0
  0
SPLINE
  5
16f
100
AcDbEntity
  8
Layer_1
 62
3
100
AcDbSpline
 70
8
 71
3
 72
8
 73
4
 74
0
 40
0
 40
0
 40
0
 40
0
 40
1
 40
1
 40
1
 40
1
 10
111.448016
 20
133.552476
 30
0.0
 10
111.157334
 20
133.843157
 30
0.0
 10
110.763086
 20
134.006460
 30
0.0
 10
110.352000
 20
134.006460
 30
0.0
  0
LWPOLYLINE
  5
170
100
AcDbEntity
  8
Layer_1
 62
3
100
AcDbPolyline
 90
4
 70
1
 10
105.352000
 20
137.456460
 30
0.0
 10
115.352000
 20
137.456460
 30
0.0
 10
115.352000
 20
127.456460
 30
0.0
 10
105.352000
 20
127.456460
 30
0.0
  0
LWPOLYLINE
  5
171
100
AcDbEntity
  8
Layer_1
 62
3
100
AcDbPolyline
 90
1
 70
1
 10
110.352000
 20
134.006460
 30
0.0
  0
SPLINE
  5
172
100
AcDbEntity
  8
Layer_1
 62
3
100
AcDbSpline
 70
8
 71
3
 72
8
 73
4
 74
0
 40
0
 40
0
 40
0
 40
0
 40
1
 40
1
 40
1
 40
1
 10
179.408500
 20
72.659375
 30
0.0
 10
178.781584
 20
72.659375
 30
0.0
 10
178.216397
 20
72.281730
 30
0.0
 10
177.976487
 20
71.702534
 30
0.0
  0
SPLINE
  5
173
100
AcDbEntity
  8
Layer_1
 62
3
100
AcDbSpline
 70
8
 71
3
 72
8
 73
4
 74
0
 40
0
 40
0
 40
0
 40
0
 40
1
 40
1
 40
1
 40
1
 10
177.976487
 20
71.702534
 30
0.0
 10
177.736576
 20
71.123339
 30
0.0
 10
177.869188
 20
70.456656
 30
0.0
 10
178.312484
 20
70.013359
 30
0.0
  0
SPLINE
  5
174
100
AcDbEntity
  8
Layer_1
 62
3
100
AcDbSpline
 70
8
 71
3
 72
8
 73
4
 74
0
 40
0
 40
0
 40
0
 40
0
 40
1
 40
1
 40
1
 40
1
 10
178.312484
 20
70.013359
 30
0.0
 10
178.755781
 20
69.570063
 30
0.0
 10
179.422464
 20
69.437451
 30
0.0
 10
180.001659
 20
69.677362
 30
0.0
  0
SPLINE
  5
175
100
AcDbEntity
  8
Layer_1
 62
3
100
AcDbSpline
 70
8
 71
3
 72
8
 73
4
 74
0
 40
0
 40
0
 40
0
 40
0
 40
1
 40
1
 40
1
 40
1
 10
180.001659
 20
69.677362
 30
0.0
 10
180.580855
 20
69.917272
 30
0.0
 10
180.958500
 20
70.482459
 30
0.0
 10
180.958500
 20
71.109375
 30
0.0
  0
SPLINE
  5
176
100
AcDbEntity
  8
Layer_1
 62
3
100
AcDbSpline
 70
8
 71
3
 72
8
 73
4
 74
0
 40
0
 40
0
 40
0
 40
0
 40
1
 40
1
 40
1
 40
1
 10
180.958500
 20
71.109375
 30
0.0
 10
180.958500
 20
71.520461
 30
0.0
 10
180.795197
 20
71.914709
 30
0.0
 10
180.504516
 20
72.205391
 30
0.0
  0
SPLINE
  5
177
100
AcDbEntity
  8
Layer_1
 62
3
100
AcDbSpline
 70
8
 71
3
 72
8
 73
4
 74
0
 40
0
 40
0
 40
0
 40
0
 40
1
 40
1
 40
1
 40
1
 10
180.504516
 20
72.205391
 30
0.0
 10
180.213834
 20
72.496072
 30
0.0
 10
179.819586
 20
72.659375
 30
0.0
 10
179.408500
 20
72.659375
 30
0.0
  0
LWPOLYLINE
  5
178
100
AcDbEntity
  8
Layer_1
 62
3
100
AcDbPolyline
 90
4
 70
1
 10
174.408500
 20
76.109375
 30
0.0
 10
184.408500
 20
76.109375
 30
0.0
 10
184.408500
 20
66.109375
 30
0.0
 10
174.408500
 20
66.109375
 30
0.0
  0
LWPOLYLINE
  5
179
100
AcDbEntity
  8
Layer_1
 62
3
100
AcDbPolyline
 90
1
 70
1
 10
179.408500
 20
72.659375
 30
0.0
  0
SPLINE
  5
17a
100
AcDbEntity
  8
Layer_1
 62
3
100
AcDbSpline
 70
8
 71
3
 72
8
 73
4
 74
0
 40
0
 40
0
 40
0
 40
0
 40
1
 40
1
 40
1
 40
1
 10
179.409500
 20
134.006460
 30
0.0
 10
178.782584
 20
134.006460
 30
0.0
 10
178.217397
 20
133.628815
 30
0.0
 10
177.977487
 20
133.049619
 30
0.0
  0
SPLINE
  5
17b
100
AcDbEntity
  8
Layer_1
 62
3
100
AcDbSpline
 70
8
 71
3
 72
8
 73
4
 74
0
 40
0
 40
0
 40
0
 40
0
 40
1
 40
1
 40
1
 40
1
 10
177.977487
 20
133.049619
 30
0.0
 10
177.737576
 20
132.470424
 30
0.0
 10
177.870188
 20
131.803741
 30
0.0
 10
178.313484
 20
131.360444
 30
0.0
  0
SPLINE
  5
17c
100
AcDbEntity
  8
Layer_1
 62
3
100
AcDbSpline
 70
8
 71
3
 72
8
 73
4
 74
0
 40
0
 40
0
 40
0
 40
0
 40
1
 40
1
 40
1
 40
1
 10
178.313484
 20
131.360444
 30
0.0
 10
178.756781
 20
130.917148
 30
0.0
 10
179.423464
 20
130.784536
 30
0.0
 10
180.002659
 20
131.024447
 30
0.0
  0
SPLINE
  5
17d
100
AcDbEntity
  8
Layer_1
 62
3
100
AcDbSpline
 70
8
 71
3
 72
8
 73
4
 74
0
 40
0
 40
0
 40
0
 40
0
 40
1
 40
1
 40
1
 40
1
 10
180.002659
 20
131.024447
 30
0.0
 10
180.581855
 20
131.264357
 30
0.0
 10
180.959500
 20
131.829544
 30
0.0
 10
180.959500
 20
132.456460
 30
0.0
  0
SPLINE
  5
17e
100
AcDbEntity
  8
Layer_1
 62
3
100
AcDbSpline
 70
8
 71
3
 72
8
 73
4
 74
0
 40
0
 40
0
 40
0
 40
0
 40
1
 40
1
 40
1
 40
1
 10
180.959500
 20
132.456460
 30
0.0
 10
180.959500
 20
132.867546
 30
0.0
 10
180.796197
 20
133.261794
 30
0.0
 10
180.505516
 20
133.552476
 30
0.0
  0
SPLINE
  5
17f
100
AcDbEntity
  8
Layer_1
 62
3
100
AcDbSpline
 70
8
 71
3
 72
8
 73
4
 74
0
 40
0
 40
0
 40
0
 40
0
 40
1
 40
1
 40
1
 40
1
 10
180.505516
 20
133.552476
 30
0.0
 10
180.214834
 20
133.843157
 30
0.0
 10
179.820586
 20
134.006460
 30
0.0
 10
179.409500
 20
134.006460
 30
0.0
  0
LWPOLYLINE
  5
180
100
AcDbEntity
  8
Layer_1
 62
3
100
AcDbPolyline
 90
4
 70
1
 10
174.409500
 20
137.456460
 30
0.0
 10
184.409500
 20
137.456460
 30
0.0
 10
184.409500
 20
127.456460
 30
0.0
 10
174.409500
 20
127.456460
 30
0.0
  0
LWPOLYLINE
  5
181
100
AcDbEntity
  8
Layer_1
 62
3
100
AcDbPolyline
 90
1
 70
1
 10
179.409500
 20
134.006460
 30
0.0
  0
SPLINE
  5
182
100
AcDbEntity
  8
Layer_1
 62
3
100
AcDbSpline
 70
8
 71
3
 72
8
 73
4
 74
0
 40
0
 40
0
 40
0
 40
0
 40
1
 40
1
 40
1
 40
1
 10
233.686500
 20
72.659375
 30
0.0
 10
233.059584
 20
72.659375
 30
0.0
 10
232.494397
 20
72.281730
 30
0.0
 10
232.254487
 20
71.702534
 30
0.0
  0
SPLINE
  5
183
100
AcDbEntity
  8
Layer_1
 62
3
100
AcDbSpline
 70
8
 71
3
 72
8
 73
4
 74
0
 40
0
 40
0
 40
0
 40
0
 40
1
 40
1
 40
1
 40
1
 10
232.254487
 20
71.702534
 30
0.0
 10
232.014576
 20
71.123339
 30
0.0
 10
232.147188
 20
70.456656
 30
0.0
 10
232.590484
 20
70.013359
 30
0.0
  0
SPLINE
  5
184
100
AcDbEntity
  8
Layer_1
 62
3
100
AcDbSpline
 70
8
 71
3
 72
8
 73
4
 74
0
 40
0
 40
0
 40
0
 40
0
 40
1
 40
1
 40
1
 40
1
 10
232.590484
 20
70.013359
 30
0.0
 10
233.033781
 20
69.570063
 30
0.0
 10
233.700464
 20
69.437451
 30
0.0
 10
234.279659
 20
69.677362
 30
0.0
  0
SPLINE
  5
185
100
AcDbEntity
  8
Layer_1
 62
3
100
AcDbSpline
 70
8
 71
3
 72
8
 73
4
 74
0
 40
0
 40
0
 40
0
 40
0
 40
1
 40
1
 40
1
 40
1
 10
234.279659
 20
69.677362
 30
0.0
 10
234.858855
 20
69.917272
 30
0.0
 10
235.236500
 20
70.482459
 30
0.0
 10
235.236500
 20
71.109375
 30
0.0
  0
SPLINE
  5
186
100
AcDbEntity
  8
Layer_1
 62
3
100
AcDbSpline
 70
8
 71
3
 72
8
 73
4
 74
0
 40
0
 40
0
 40
0
 40
0
 40
1
 40
1
 40
1
 40
1
 10
235.236500
 20
71.109375
 30
0.0
 10
235.236500
 20
71.520461
 30
0.0
 10
235.073197
 20
71.914709
 30
0.0
 10
234.782516
 20
72.205391
 30
0.0
  0
SPLINE
  5
187
100
AcDbEntity
  8
Layer_1
 62
3
100
AcDbSpline
 70
8
 71
3
 72
8
 73
4
 74
0
 40
0
 40
0
 40
0
 40
0
 40
1
 40
1
 40
1
 40
1
 10
234.782516
 20
72.205391
 30
0.0
 10
234.491834
 20
72.496072
 30
0.0
 10
234.097586
 20
72.659375
 30
0.0
 10
233.686500
 20
72.659375
 30
0.0
  0
LWPOLYLINE
  5
188
100
AcDbEntity
  8
Layer_1
 62
3
100
AcDbPolyline
 90
4
 70
1
 10
228.686500
 20
76.109375
 30
0.0
 10
238.686500
 20
76.109375
 30
0.0
 10
238.686500
 20
66.109375
 30
0.0
 10
228.686500
 20
66.109375
 30
0.0
  0
LWPOLYLINE
  5
189
100
AcDbEntity
  8
Layer_1
 62
3
100
AcDbPolyline
 90
1
 70
1
 10
233.686500
 20
72.659375
 30
0.0
  0
SPLINE
  5
18a
100
AcDbEntity
  8
Layer_1
 62
3
100
AcDbSpline
 70
8
 71
3
 72
8
 73
4
 74
0
 40
0
 40
0
 40
0
 40
0
 40
1
 40
1
 40
1
 40
1
 10
233.687500
 20
134.006460
 30
0.0
 10
233.060584
 20
134.006460
 30
0.0
 10
232.495397
 20
133.628815
 30
0.0
 10
232.255487
 20
133.049619
 30
0.0
  0
SPLINE
  5
18b
100
AcDbEntity
  8
Layer_1
 62
3
100
AcDbSpline
 70
8
 71
3
 72
8
 73
4
 74
0
 40
0
 40
0
 40
0
 40
0
 40
1
 40
1
 40
1
 40
1
 10
232.255487
 20
133.049619
 30
0.0
 10
232.015576
 20
132.470424
 30
0.0
 10
232.148188
 20
131.803741
 30
0.0
 10
232.591484
 20
131.360444
 30
0.0
  0
SPLINE
  5
18c
100
AcDbEntity
  8
Layer_1
 62
3
100
AcDbSpline
 70
8
 71
3
 72
8
 73
4
 74
0
 40
0
 40
0
 40
0
 40
0
 40
1
 40
1
 40
1
 40
1
 10
232.591484
 20
131.360444
 30
0.0
 10
233.034781
 20
130.917148
 30
0.0
 10
233.701464
 20
130.784536
 30
0.0
 10
234.280659
 20
131.024447
 30
0.0
  0
SPLINE
  5
18d
100
AcDbEntity
  8
Layer_1
 62
3
100
AcDbSpline
 70
8
 71
3
 72
8
 73
4
 74
0
 40
0
 40
0
 40
0
 40
0
 40
1
 40
1
 40
1
 40
1
 10
234.280659
 20
131.024447
 30
0.0
 10
234.859855
 20
131.264357
 30
0.0
 10
235.237500
 20
131.829544
 30
0.0
 10
235.237500
 20
132.456460
 30
0.0
  0
SPLINE
  5
18e
100
AcDbEntity
  8
Layer_1
 62
3
100
AcDbSpline
 70
8
 71
3
 72
8
 73
4
 74
0
 40
0
 40
0
 40
0
 40
0
 40
1
 40
1
 40
1
 40
1
 10
235.237500
 20
132.456460
 30
0.0
 10
235.237500
 20
132.867546
 30
0.0
 10
235.074197
 20
133.261794
 30
0.0
 10
234.783516
 20
133.552476
 30
0.0
  0
SPLINE
  5
18f
100
AcDbEntity
  8
Layer_1
 62
3
100
AcDbSpline
 70
8
 71
3
 72
8
 73
4
 74
0
 40
0
 40
0
 40
0
 40
0
 40
1
 40
1
 40
1
 40
1
 10
234.783516
 20
133.552476
 30
0.0
 10
234.492834
 20
133.843157
 30
0.0
 10
234.098586
 20
134.006460
 30
0.0
 10
233.687500
 20
134.006460
 30
0.0
  0
LWPOLYLINE
  5
190
100
AcDbEntity
  8
Layer_1
 62
3
100
AcDbPolyline
 90
4
 70
1
 10
228.687500
 20
137.456460
 30
0.0
 10
238.687500
 20
137.456460
 30
0.0
 10
238.687500
 20
127.456460
 30
0.0
 10
228.687500
 20
127.456460
 30
0.0
  0
SPLINE
  5
191
100
AcDbEntity
  8
Layer_1
 62
3
100
AcDbSpline
 70
8
 71
3
 72
8
 73
4
 74
0
 40
0
 40
0
 40
0
 40
0
 40
1
 40
1
 40
1
 40
1
 10
144.880290
 20
103.332700
 30
0.0
 10
144.253374
 20
103.332700
 30
0.0
 10
143.688187
 20
102.955055
 30
0.0
 10
143.448277
 20
102.375859
 30
0.0
  0
SPLINE
  5
192
100
AcDbEntity
  8
Layer_1
 62
3
100
AcDbSpline
 70
8
 71
3
 72
8
 73
4
 74
0
 40
0
 40
0
 40
0
 40
0
 40
1
 40
1
 40
1
 40
1
 10
143.448277
 20
102.375859
 30
0.0
 10
143.208366
 20
101.796664
 30
0.0
 10
143.340978
 20
101.129981
 30
0.0
 10
143.784274
 20
100.686684
 30
0.0
  0
SPLINE
  5
193
100
AcDbEntity
  8
Layer_1
 62
3
100
AcDbSpline
 70
8
 71
3
 72
8
 73
4
 74
0
 40
0
 40
0
 40
0
 40
0
 40
1
 40
1
 40
1
 40
1
 10
143.784274
 20
100.686684
 30
0.0
 10
144.227571
 20
100.243388
 30
0.0
 10
144.894254
 20
100.110776
 30
0.0
 10
145.473449
 20
100.350687
 30
0.0
  0
SPLINE
  5
194
100
AcDbEntity
  8
Layer_1
 62
3
100
AcDbSpline
 70
8
 71
3
 72
8
 73
4
 74
0
 40
0
 40
0
 40
0
 40
0
 40
1
 40
1
 40
1
 40
1
 10
145.473449
 20
100.350687
 30
0.0
 10
146.052645
 20
100.590597
 30
0.0
 10
146.430290
 20
101.155784
 30
0.0
 10
146.430290
 20
101.782700
 30
0.0
  0
SPLINE
  5
195
100
AcDbEntity
  8
Layer_1
 62
3
100
AcDbSpline
 70
8
 71
3
 72
8
 73
4
 74
0
 40
0
 40
0
 40
0
 40
0
 40
1
 40
1
 40
1
 40
1
 10
146.430290
 20
101.782700
 30
0.0
 10
146.430290
 20
102.193786
 30
0.0
 10
146.266987
 20
102.588034
 30
0.0
 10
145.976306
 20
102.878716
 30
0.0
  0
SPLINE
  5
196
100
AcDbEntity
  8
Layer_1
 62
3
100
AcDbSpline
 70
8
 71
3
 72
8
 73
4
 74
0
 40
0
 40
0
 40
0
 40
0
 40
1
 40
1
 40
1
 40
1
 10
145.976306
 20
102.878716
 30
0.0
 10
145.685624
 20
103.169397
 30
0.0
 10
145.291376
 20
103.332700
 30
0.0
 10
144.880290
 20
103.332700
 30
0.0
  0
LWPOLYLINE
  5
197
100
AcDbEntity
  8
Layer_1
 62
3
100
AcDbPolyline
 90
1
 70
1
 10
233.687500
 20
134.006460
 30
0.0
  0
LWPOLYLINE
  5
198
100
AcDbEntity
  8
Layer_1
 62
3
100
AcDbPolyline
 90
1
 70
1
 10
144.880290
 20
103.332700
 30
0.0
  0
LWPOLYLINE
  5
199
100
AcDbEntity
  8
Layer_1
 62
3
100
AcDbPolyline
 90
4
 70
1
 10
139.880290
 20
126.782700
 30
0.0
 10
149.880290
 20
126.782700
 30
0.0
 10
149.880290
 20
76.782700
 30
0.0
 10
139.880290
 20
76.782700
 30
0.0
  0
LWPOLYLINE
  5
19a
100
AcDbEntity
  8
Layer_1
 62
3
100
AcDbPolyline
 90
4
 70
1
 10
20.880310
 20
154.282690
 30
0.0
 10
30.880310
 20
154.282690
 30
0.0
 10
30.880310
 20
144.282690
 30
0.0
 10
20.880310
 20
144.282690
 30
0.0
  0
LWPOLYLINE
  5
19b
100
AcDbEntity
  8
Layer_1
 62
3
100
AcDbPolyline
 90
4
 70
1
 10
20.880310
 20
59.282670
 30
0.0
 10
30.880310
 20
59.282670
 30
0.0
 10
30.880310
 20
49.282670
 30
0.0
 10
20.880310
 20
49.282670
 30
0.0
  0
LWPOLYLINE
  5
19c
100
AcDbEntity
  8
Layer_1
 62
3
100
AcDbPolyline
 90
4
 70
1
 10
258.880290
 20
59.282670
 30
0.0
 10
268.880290
 20
59.282670
 30
0.0
 10
268.880290
 20
49.282670
 30
0.0
 10
258.880290
 20
49.282670
 30
0.0
  0
LWPOLYLINE
  5
19d
100
AcDbEntity
  8
Layer_1
 62
3
100
AcDbPolyline
 90
4
 70
1
 10
258.880330
 20
154.282690
 30
0.0
 10
268.880330
 20
154.282690
 30
0.0
 10
268.880330
 20
144.282690
 30
0.0
 10
258.880330
 20
144.282690
 30
0.0
  0
LWPOLYLINE
  5
19e
100
AcDbEntity
  8
Layer_1
 62
3
100
AcDbPolyline
 90
4
 70
1
 10
51.073500
 20
76.109360
 30
0.0
 10
56.073500
 20
76.109360
 30
0.0
 10
56.073500
 20
71.109360
 30
0.0
 10
51.073500
 20
71.109360
 30
0.0
  0
LWPOLYLINE
  5
19f
100
AcDbEntity
  8
Layer_1
 62
3
100
AcDbPolyline
 90
4
 70
1
 10
105.351460
 20
76.109360
 30
0.0
 10
110.351460
 20
76.109360
 30
0.0
 10
110.351460
 20
71.109360
 30
0.0
 10
105.351460
 20
71.109360
 30
0.0
  0
LWPOLYLINE
  5
1a0
100
AcDbEntity
  8
Layer_1
 62
3
100
AcDbPolyline
 90
4
 70
1
 10
56.074020
 20
137.456500
 30
0.0
 10
61.074020
 20
137.456500
 30
0.0
 10
61.074020
 20
132.456500
 30
0.0
 10
56.074020
 20
132.456500
 30
0.0
  0
LWPOLYLINE
  5
1a1
100
AcDbEntity
  8
Layer_1
 62
3
100
AcDbPolyline
 90
4
 70
1
 10
110.351970
 20
137.456500
 30
0.0
 10
115.351970
 20
137.456500
 30
0.0
 10
115.351970
 20
132.456500
 30
0.0
 10
110.351970
 20
132.456500
 30
0.0
  0
LWPOLYLINE
  5
1a2
100
AcDbEntity
  8
Layer_1
 62
3
100
AcDbPolyline
 90
4
 70
1
 10
179.408650
 20
76.109360
 30
0.0
 10
184.408650
 20
76.109360
 30
0.0
 10
184.408650
 20
71.109360
 30
0.0
 10
179.408650
 20
71.109360
 30
0.0
  0
LWPOLYLINE
  5
1a3
100
AcDbEntity
  8
Layer_1
 62
3
100
AcDbPolyline
 90
4
 70
1
 10
233.686600
 20
76.109360
 30
0.0
 10
238.686600
 20
76.109360
 30
0.0
 10
238.686600
 20
71.109360
 30
0.0
 10
233.686600
 20
71.109360
 30
0.0
  0
LWPOLYLINE
  5
1a4
100
AcDbEntity
  8
Layer_1
 62
3
100
AcDbPolyline
 90
4
 70
1
 10
233.687120
 20
137.456500
 30
0.0
 10
238.687120
 20
137.456500
 30
0.0
 10
238.687120
 20
132.456500
 30
0.0
 10
233.687120
 20
132.456500
 30
0.0
  0
LWPOLYLINE
  5
1a5
100
AcDbEntity
  8
Layer_1
 62
3
100
AcDbPolyline
 90
4
 70
1
 10
179.409160
 20
137.456500
 30
0.0
 10
184.409160
 20
137.456500
 30
0.0
 10
184.409160
 20
132.456500
 30
0.0
 10
179.409160
 20
132.456500
 30
0.0
  0
LWPOLYLINE
  5
1a6
100
AcDbEntity
  8
Layer_1
 62
3
100
AcDbPolyline
 90
4
 70
1
 10
139.880290
 20
126.782700
 30
0.0
 10
144.880290
 20
126.782700
 30
0.0
 10
144.880290
 20
101.782700
 30
0.0
 10
139.880290
 20
101.782700
 30
0.0
  0
ENDSEC
  0
SECTION
  2
OBJECTS
  0
DICTIONARY
  5
C
330
0
100
AcDbDictionary
  3
ACAD_GROUP
350
D
  3
ACAD_MLINESTYLE
350
17
  0
DICTIONARY
  5
D
330
C
100
AcDbDictionary
  0
DICTIONARY
  5
1A
330
C
100
AcDbDictionary
  0
DICTIONARY
  5
17
330
C
100
AcDbDictionary
  3
STANDARD
350
18
  0
DICTIONARY
  5
19
330
C
100
AcDbDictionary
  0
ENDSEC
  0
EOF
