  0
SECTION
  2
HEADER
  9
$ACADVER
  1
AC1014
  9
$HANDSEED
  5
FFFF
  9
$MEASUREMENT
 70
     1
  0
ENDSEC
  0
SECTION
  2
TABLES
  0
TABLE
  2
VPORT
  5
8
330
0
100
AcDbSymbolTable
 70
     4
  0
VPORT
  5
2E
330
8
100
AcDbSymbolTableRecord
100
AcDbViewportTableRecord
  2
*ACTIVE
 70
     0
 10
0.0
 20
0.0
 11
1.0
 21
1.0
 12
210.0
 22
148.5
 13
0.0
 23
0.0
 14
10.0
 24
10.0
 15
10.0
 25
10.0
 16
0.0
 26
0.0
 36
1.0
 17
0.0
 27
0.0
 37
0.0
 40
341.0
 41
1.24
 42
50.0
 43
0.0
 44
0.0
 50
0.0
 51
0.0
 71
     0
 72
   100
 73
     1
 74
     3
 75
     0
 76
     0
 77
     0
 78
     0
  0
ENDTAB
  0
TABLE
  2
LTYPE
  5
5
330
0
100
AcDbSymbolTable
 70
     1
  0
LTYPE
  5
14
330
5
100
AcDbSymbolTableRecord
100
AcDbLinetypeTableRecord
  2
BYBLOCK
 70
     0
  3

 72
    65
 73
     0
 40
0.0
  0
LTYPE
  5
15
330
5
100
AcDbSymbolTableRecord
100
AcDbLinetypeTableRecord
  2
BYLAYER
 70
     0
  3

 72
    65
 73
     0
 40
0.0
  0
LTYPE
  5
16
330
5
100
AcDbSymbolTableRecord
100
AcDbLinetypeTableRecord
  2
CONTINUOUS
 70
     0
  3
Solid line
 72
    65
 73
     0
 40
0.0
  0
ENDTAB
  0
TABLE
  2
LAYER
  5
2
100
AcDbSymbolTable
 70
2
  0
LAYER
  5
50
100
AcDbSymbolTableRecord
100
AcDbLayerTableRecord
  2
0
 70
0
  6
CONTINUOUS
  0
LAYER
  5
51
100
AcDbSymbolTableRecord
100
AcDbLayerTableRecord
  2
Layer_1
 70
0
  6
CONTINUOUS
  0
ENDTAB
  0
TABLE
  2
STYLE
  5
3
330
0
100
AcDbSymbolTable
 70
     1
  0
STYLE
  5
11
330
3
100
AcDbSymbolTableRecord
100
AcDbTextStyleTableRecord
  2
STANDARD
 70
     0
 40
0.0
 41
1.0
 50
0.0
 71
     0
 42
2.5
  3
txt
  4

  0
ENDTAB
  0
TABLE
  2
VIEW
  5
6
330
0
100
AcDbSymbolTable
 70
     0
  0
ENDTAB
  0
TABLE
  2
UCS
  5
7
330
0
100
AcDbSymbolTable
 70
     0
  0
ENDTAB
  0
TABLE
  2
APPID
  5
9
330
0
100
AcDbSymbolTable
 70
     2
  0
APPID
  5
12
330
9
100
AcDbSymbolTableRecord
100
AcDbRegAppTableRecord
  2
ACAD
 70
     0
  0
ENDTAB
  0
TABLE
  2
DIMSTYLE
  5
A
330
0
100
AcDbSymbolTable
 70
     1
  0
DIMSTYLE
105
27
330
A
100
AcDbSymbolTableRecord
100
AcDbDimStyleTableRecord
  2
ISO-25
 70
     0
  3

  4

  5

  6

  7

 40
1.0
 41
2.5
 42
0.625
 43
3.75
 44
1.25
 45
0.0
 46
0.0
 47
0.0
 48
0.0
140
2.5
141
2.5
142
0.0
143
0.03937007874016
144
1.0
145
0.0
146
1.0
147
0.625
 71
     0
 72
     0
 73
     0
 74
     0
 75
     0
 76
     0
 77
     1
 78
     8
170
     0
171
     3
172
     1
173
     0
174
     0
175
     0
176
     0
177
     0
178
     0
270
     2
271
     2
272
     2
273
     2
274
     3
340
11
275
     0
280
     0
281
     0
282
     0
283
     0
284
     8
285
     0
286
     0
287
     3
288
     0
  0
ENDTAB
  0
TABLE
  2
BLOCK_RECORD
  5
1
330
0
100
AcDbSymbolTable
 70
     1
  0
BLOCK_RECORD
  5
1F
330
1
100
AcDbSymbolTableRecord
100
AcDbBlockTableRecord
  2
*MODEL_SPACE
  0
BLOCK_RECORD
  5
1B
330
1
100
AcDbSymbolTableRecord
100
AcDbBlockTableRecord
  2
*PAPER_SPACE
  0
ENDTAB
  0
ENDSEC
  0
SECTION
  2
BLOCKS
  0
BLOCK
  5
20
330
1F
100
AcDbEntity
  8
0
100
AcDbBlockBegin
  2
*MODEL_SPACE
 70
     0
 10
0.0
 20
0.0
 30
0.0
  3
*MODEL_SPACE
  1

  0
ENDBLK
  5
21
330
1F
100
AcDbEntity
  8
0
100
AcDbBlockEnd
  0
BLOCK
  5
1C
330
1B
100
AcDbEntity
 67
     1
  8
0
100
AcDbBlockBegin
  2
*PAPER_SPACE
  1

  0
ENDBLK
  5
1D
330
1B
100
AcDbEntity
 67
     1
  8
0
100
AcDbBlockEnd
  0
ENDSEC
  0
SECTION
  2
ENTITIES
  0
LWPOLYLINE
  5
100
100
AcDbEntity
  8
Layer_1
 62
3
100
AcDbPolyline
 90
6
 70
1
 10
45.918299
 20
84.394630
 30
0.0
 10
41.992959
 20
80.469290
 30
0.0
 10
45.918299
 20
76.544480
 30
0.0
 10
73.433419
 20
76.544480
 30
0.0
 10
77.358239
 20
80.469290
 30
0.0
 10
73.433419
 20
84.394630
 30
0.0
  0
LWPOLYLINE
  5
101
100
AcDbEntity
  8
Layer_1
 62
3
100
AcDbPolyline
 90
6
 70
1
 10
35.951449
 20
86.511310
 30
0.0
 10
39.876789
 20
82.585970
 30
0.0
 10
43.801619
 20
86.511310
 30
0.0
 10
43.801619
 20
114.026434
 30
0.0
 10
39.876789
 20
117.951254
 30
0.0
 10
35.951449
 20
114.026434
 30
0.0
  0
LWPOLYLINE
  5
102
100
AcDbEntity
  8
Layer_1
 62
3
100
AcDbPolyline
 90
6
 70
1
 10
83.400269
 20
114.026434
 30
0.0
 10
79.474929
 20
117.951784
 30
0.0
 10
75.550099
 20
114.026434
 30
0.0
 10
75.550099
 20
86.511310
 30
0.0
 10
79.474929
 20
82.586500
 30
0.0
 10
83.400269
 20
86.511310
 30
0.0
  0
LWPOLYLINE
  5
103
100
AcDbEntity
  8
Layer_1
 62
3
100
AcDbPolyline
 90
6
 70
1
 10
45.918299
 20
123.993284
 30
0.0
 10
41.992959
 20
120.067944
 30
0.0
 10
45.918299
 20
116.143114
 30
0.0
 10
73.433419
 20
116.143114
 30
0.0
 10
77.358239
 20
120.067944
 30
0.0
 10
73.433419
 20
123.993284
 30
0.0
  0
LWPOLYLINE
  5
104
100
AcDbEntity
  8
Layer_1
 62
3
100
AcDbPolyline
 90
6
 70
1
 10
45.918819
 20
163.591934
 30
0.0
 10
41.993469
 20
159.666594
 30
0.0
 10
45.918819
 20
155.741764
 30
0.0
 10
73.433939
 20
155.741764
 30
0.0
 10
77.358759
 20
159.666594
 30
0.0
 10
73.433939
 20
163.591934
 30
0.0
  0
LWPOLYLINE
  5
105
100
AcDbEntity
  8
Layer_1
 62
3
100
AcDbPolyline
 90
6
 70
1
 10
75.550099
 20
126.109964
 30
0.0
 10
79.475439
 20
122.184624
 30
0.0
 10
83.400269
 20
126.109964
 30
0.0
 10
83.400269
 20
153.625084
 30
0.0
 10
79.475439
 20
157.549914
 30
0.0
 10
75.550099
 20
153.625084
 30
0.0
  0
LWPOLYLINE
  5
106
100
AcDbEntity
  8
Layer_1
 62
3
100
AcDbPolyline
 90
6
 70
1
 10
43.801619
 20
153.625084
 30
0.0
 10
39.876279
 20
157.550424
 30
0.0
 10
35.951449
 20
153.625084
 30
0.0
 10
35.951449
 20
126.109964
 30
0.0
 10
39.876279
 20
122.185144
 30
0.0
 10
43.801619
 20
126.109964
 30
0.0
  0
LWPOLYLINE
  5
107
100
AcDbEntity
  8
Layer_1
 62
3
100
AcDbPolyline
 90
6
 70
1
 10
100.196250
 20
84.394630
 30
0.0
 10
96.270909
 20
80.469290
 30
0.0
 10
100.196250
 20
76.544480
 30
0.0
 10
127.711380
 20
76.544480
 30
0.0
 10
131.636200
 20
80.469290
 30
0.0
 10
127.711380
 20
84.394630
 30
0.0
  0
LWPOLYLINE
  5
108
100
AcDbEntity
  8
Layer_1
 62
3
100
AcDbPolyline
 90
6
 70
1
 10
90.229149
 20
86.511560
 30
0.0
 10
94.154489
 20
82.586220
 30
0.0
 10
98.079319
 20
86.511560
 30
0.0
 10
98.079319
 20
114.026682
 30
0.0
 10
94.154489
 20
117.951502
 30
0.0
 10
90.229149
 20
114.026682
 30
0.0
  0
LWPOLYLINE
  5
109
100
AcDbEntity
  8
Layer_1
 62
3
100
AcDbPolyline
 90
6
 70
1
 10
137.678220
 20
114.026434
 30
0.0
 10
133.752880
 20
117.951784
 30
0.0
 10
129.828050
 20
114.026434
 30
0.0
 10
129.828050
 20
86.511310
 30
0.0
 10
133.752880
 20
82.586500
 30
0.0
 10
137.678220
 20
86.511310
 30
0.0
  0
LWPOLYLINE
  5
10a
100
AcDbEntity
  8
Layer_1
 62
3
100
AcDbPolyline
 90
6
 70
1
 10
100.196250
 20
123.993284
 30
0.0
 10
96.270909
 20
120.067944
 30
0.0
 10
100.196250
 20
116.143114
 30
0.0
 10
127.711380
 20
116.143114
 30
0.0
 10
131.636200
 20
120.067944
 30
0.0
 10
127.711380
 20
123.993284
 30
0.0
  0
LWPOLYLINE
  5
10b
100
AcDbEntity
  8
Layer_1
 62
3
100
AcDbPolyline
 90
6
 70
1
 10
100.196770
 20
163.591934
 30
0.0
 10
96.271429
 20
159.666594
 30
0.0
 10
100.196770
 20
155.741764
 30
0.0
 10
127.711900
 20
155.741764
 30
0.0
 10
131.636720
 20
159.666594
 30
0.0
 10
127.711900
 20
163.591934
 30
0.0
  0
LWPOLYLINE
  5
10c
100
AcDbEntity
  8
Layer_1
 62
3
100
AcDbPolyline
 90
6
 70
1
 10
129.828050
 20
126.109964
 30
0.0
 10
133.753390
 20
122.184624
 30
0.0
 10
137.678220
 20
126.109964
 30
0.0
 10
137.678220
 20
153.625084
 30
0.0
 10
133.753390
 20
157.549914
 30
0.0
 10
129.828050
 20
153.625084
 30
0.0
  0
LWPOLYLINE
  5
10d
100
AcDbEntity
  8
Layer_1
 62
3
100
AcDbPolyline
 90
6
 70
1
 10
98.079569
 20
153.625084
 30
0.0
 10
94.154229
 20
157.550424
 30
0.0
 10
90.229399
 20
153.625084
 30
0.0
 10
90.229399
 20
126.109964
 30
0.0
 10
94.154229
 20
122.185144
 30
0.0
 10
98.079569
 20
126.109964
 30
0.0
  0
LWPOLYLINE
  5
10e
100
AcDbEntity
  8
Layer_1
 62
3
100
AcDbPolyline
 90
6
 70
1
 10
169.253460
 20
84.394630
 30
0.0
 10
165.328120
 20
80.469290
 30
0.0
 10
169.253460
 20
76.544480
 30
0.0
 10
196.768580
 20
76.544480
 30
0.0
 10
200.693400
 20
80.469290
 30
0.0
 10
196.768580
 20
84.394630
 30
0.0
  0
LWPOLYLINE
  5
10f
100
AcDbEntity
  8
Layer_1
 62
3
100
AcDbPolyline
 90
6
 70
1
 10
159.286610
 20
86.511310
 30
0.0
 10
163.211950
 20
82.585970
 30
0.0
 10
167.136780
 20
86.511310
 30
0.0
 10
167.136780
 20
114.026434
 30
0.0
 10
163.211950
 20
117.951254
 30
0.0
 10
159.286610
 20
114.026434
 30
0.0
  0
LWPOLYLINE
  5
110
100
AcDbEntity
  8
Layer_1
 62
3
100
AcDbPolyline
 90
6
 70
1
 10
206.735430
 20
114.026434
 30
0.0
 10
202.810090
 20
117.951784
 30
0.0
 10
198.885260
 20
114.026434
 30
0.0
 10
198.885260
 20
86.511310
 30
0.0
 10
202.810090
 20
82.586500
 30
0.0
 10
206.735430
 20
86.511310
 30
0.0
  0
LWPOLYLINE
  5
111
100
AcDbEntity
  8
Layer_1
 62
3
100
AcDbPolyline
 90
6
 70
1
 10
169.253460
 20
123.993284
 30
0.0
 10
165.328120
 20
120.067944
 30
0.0
 10
169.253460
 20
116.143114
 30
0.0
 10
196.768580
 20
116.143114
 30
0.0
 10
200.693400
 20
120.067944
 30
0.0
 10
196.768580
 20
123.993284
 30
0.0
  0
LWPOLYLINE
  5
112
100
AcDbEntity
  8
Layer_1
 62
3
100
AcDbPolyline
 90
6
 70
1
 10
169.253980
 20
163.591934
 30
0.0
 10
165.328630
 20
159.666594
 30
0.0
 10
169.253980
 20
155.741764
 30
0.0
 10
196.769100
 20
155.741764
 30
0.0
 10
200.693920
 20
159.666594
 30
0.0
 10
196.769100
 20
163.591934
 30
0.0
  0
LWPOLYLINE
  5
113
100
AcDbEntity
  8
Layer_1
 62
3
100
AcDbPolyline
 90
6
 70
1
 10
198.885260
 20
126.109964
 30
0.0
 10
202.810600
 20
122.184624
 30
0.0
 10
206.735430
 20
126.109964
 30
0.0
 10
206.735430
 20
153.625084
 30
0.0
 10
202.810600
 20
157.549914
 30
0.0
 10
198.885260
 20
153.625084
 30
0.0
  0
LWPOLYLINE
  5
114
100
AcDbEntity
  8
Layer_1
 62
3
100
AcDbPolyline
 90
6
 70
1
 10
167.136780
 20
153.625084
 30
0.0
 10
163.211440
 20
157.550424
 30
0.0
 10
159.286610
 20
153.625084
 30
0.0
 10
159.286610
 20
126.109964
 30
0.0
 10
163.211440
 20
122.185144
 30
0.0
 10
167.136780
 20
126.109964
 30
0.0
  0
LWPOLYLINE
  5
115
100
AcDbEntity
  8
Layer_1
 62
3
100
AcDbPolyline
 90
6
 70
1
 10
223.531420
 20
84.394630
 30
0.0
 10
219.606080
 20
80.469290
 30
0.0
 10
223.531420
 20
76.544480
 30
0.0
 10
251.046540
 20
76.544480
 30
0.0
 10
254.971360
 20
80.469290
 30
0.0
 10
251.046540
 20
84.394630
 30
0.0
  0
LWPOLYLINE
  5
116
100
AcDbEntity
  8
Layer_1
 62
3
100
AcDbPolyline
 90
6
 70
1
 10
213.564560
 20
86.511310
 30
0.0
 10
217.489900
 20
82.585970
 30
0.0
 10
221.414730
 20
86.511310
 30
0.0
 10
221.414730
 20
114.026434
 30
0.0
 10
217.489900
 20
117.951254
 30
0.0
 10
213.564560
 20
114.026434
 30
0.0
  0
LWPOLYLINE
  5
117
100
AcDbEntity
  8
Layer_1
 62
3
100
AcDbPolyline
 90
6
 70
1
 10
261.013390
 20
114.026434
 30
0.0
 10
257.088050
 20
117.951784
 30
0.0
 10
253.163220
 20
114.026434
 30
0.0
 10
253.163220
 20
86.511310
 30
0.0
 10
257.088050
 20
82.586500
 30
0.0
 10
261.013390
 20
86.511310
 30
0.0
  0
LWPOLYLINE
  5
118
100
AcDbEntity
  8
Layer_1
 62
3
100
AcDbPolyline
 90
6
 70
1
 10
223.531420
 20
123.993284
 30
0.0
 10
219.606080
 20
120.067944
 30
0.0
 10
223.531420
 20
116.143114
 30
0.0
 10
251.046540
 20
116.143114
 30
0.0
 10
254.971360
 20
120.067944
 30
0.0
 10
251.046540
 20
123.993284
 30
0.0
  0
LWPOLYLINE
  5
119
100
AcDbEntity
  8
Layer_1
 62
3
100
AcDbPolyline
 90
6
 70
1
 10
223.531940
 20
163.591934
 30
0.0
 10
219.606590
 20
159.666594
 30
0.0
 10
223.531940
 20
155.741764
 30
0.0
 10
251.047060
 20
155.741764
 30
0.0
 10
254.971880
 20
159.666594
 30
0.0
 10
251.047060
 20
163.591934
 30
0.0
  0
LWPOLYLINE
  5
11a
100
AcDbEntity
  8
Layer_1
 62
3
100
AcDbPolyline
 90
6
 70
1
 10
253.163220
 20
126.109964
 30
0.0
 10
257.088560
 20
122.184624
 30
0.0
 10
261.013390
 20
126.109964
 30
0.0
 10
261.013390
 20
153.625084
 30
0.0
 10
257.088560
 20
157.549914
 30
0.0
 10
253.163220
 20
153.625084
 30
0.0
  0
SPLINE
  5
11b
100
AcDbEntity
  8
Layer_1
 62
3
100
AcDbSpline
 70
8
 71
3
 72
8
 73
4
 74
0
 40
0
 40
0
 40
0
 40
0
 40
1
 40
1
 40
1
 40
1
 10
148.481920
 20
141.960767
 30
0.0
 10
146.314202
 20
141.960767
 30
0.0
 10
144.556920
 20
140.203485
 30
0.0
 10
144.556920
 20
138.035767
 30
0.0
  0
SPLINE
  5
11c
100
AcDbEntity
  8
Layer_1
 62
3
100
AcDbSpline
 70
8
 71
3
 72
8
 73
4
 74
0
 40
0
 40
0
 40
0
 40
0
 40
1
 40
1
 40
1
 40
1
 10
144.556920
 20
138.035767
 30
0.0
 10
144.556920
 20
135.868049
 30
0.0
 10
146.314202
 20
134.110767
 30
0.0
 10
148.481920
 20
134.110767
 30
0.0
  0
SPLINE
  5
11d
100
AcDbEntity
  8
Layer_1
 62
3
100
AcDbSpline
 70
8
 71
3
 72
8
 73
4
 74
0
 40
0
 40
0
 40
0
 40
0
 40
1
 40
1
 40
1
 40
1
 10
148.481920
 20
134.110767
 30
0.0
 10
150.649638
 20
134.110767
 30
0.0
 10
152.406920
 20
135.868049
 30
0.0
 10
152.406920
 20
138.035767
 30
0.0
  0
SPLINE
  5
11e
100
AcDbEntity
  8
Layer_1
 62
3
100
AcDbSpline
 70
8
 71
3
 72
8
 73
4
 74
0
 40
0
 40
0
 40
0
 40
0
 40
1
 40
1
 40
1
 40
1
 10
152.406920
 20
138.035767
 30
0.0
 10
152.406920
 20
139.076742
 30
0.0
 10
151.993394
 20
140.075081
 30
0.0
 10
151.257314
 20
140.811161
 30
0.0
  0
SPLINE
  5
11f
100
AcDbEntity
  8
Layer_1
 62
3
100
AcDbSpline
 70
8
 71
3
 72
8
 73
4
 74
0
 40
0
 40
0
 40
0
 40
0
 40
1
 40
1
 40
1
 40
1
 10
151.257314
 20
140.811161
 30
0.0
 10
150.521234
 20
141.547241
 30
0.0
 10
149.522895
 20
141.960767
 30
0.0
 10
148.481920
 20
141.960767
 30
0.0
  0
LWPOLYLINE
  5
120
100
AcDbEntity
  8
Layer_1
 62
3
100
AcDbPolyline
 90
6
 70
1
 10
221.414730
 20
153.625084
 30
0.0
 10
217.489390
 20
157.550424
 30
0.0
 10
213.564560
 20
153.625084
 30
0.0
 10
213.564560
 20
126.109964
 30
0.0
 10
217.489390
 20
122.185144
 30
0.0
 10
221.414730
 20
126.109964
 30
0.0
  0
SPLINE
  5
121
100
AcDbEntity
  8
Layer_1
 62
3
100
AcDbSpline
 70
8
 71
3
 72
8
 73
4
 74
0
 40
0
 40
0
 40
0
 40
0
 40
1
 40
1
 40
1
 40
1
 10
148.481920
 20
106.025640
 30
0.0
 10
146.314202
 20
106.025640
 30
0.0
 10
144.556920
 20
104.268358
 30
0.0
 10
144.556920
 20
102.100640
 30
0.0
  0
SPLINE
  5
122
100
AcDbEntity
  8
Layer_1
 62
3
100
AcDbSpline
 70
8
 71
3
 72
8
 73
4
 74
0
 40
0
 40
0
 40
0
 40
0
 40
1
 40
1
 40
1
 40
1
 10
144.556920
 20
102.100640
 30
0.0
 10
144.556920
 20
99.932922
 30
0.0
 10
146.314202
 20
98.175640
 30
0.0
 10
148.481920
 20
98.175640
 30
0.0
  0
SPLINE
  5
123
100
AcDbEntity
  8
Layer_1
 62
3
100
AcDbSpline
 70
8
 71
3
 72
8
 73
4
 74
0
 40
0
 40
0
 40
0
 40
0
 40
1
 40
1
 40
1
 40
1
 10
148.481920
 20
98.175640
 30
0.0
 10
150.649638
 20
98.175640
 30
0.0
 10
152.406920
 20
99.932922
 30
0.0
 10
152.406920
 20
102.100640
 30
0.0
  0
SPLINE
  5
124
100
AcDbEntity
  8
Layer_1
 62
3
100
AcDbSpline
 70
8
 71
3
 72
8
 73
4
 74
0
 40
0
 40
0
 40
0
 40
0
 40
1
 40
1
 40
1
 40
1
 10
152.406920
 20
102.100640
 30
0.0
 10
152.406920
 20
103.141615
 30
0.0
 10
151.993394
 20
104.139954
 30
0.0
 10
151.257314
 20
104.876034
 30
0.0
  0
SPLINE
  5
125
100
AcDbEntity
  8
Layer_1
 62
3
100
AcDbSpline
 70
8
 71
3
 72
8
 73
4
 74
0
 40
0
 40
0
 40
0
 40
0
 40
1
 40
1
 40
1
 40
1
 10
151.257314
 20
104.876034
 30
0.0
 10
150.521234
 20
105.612114
 30
0.0
 10
149.522895
 20
106.025640
 30
0.0
 10
148.481920
 20
106.025640
 30
0.0
  0
LWPOLYLINE
  5
126
100
AcDbEntity
  8
Layer_1
 62
3
100
AcDbPolyline
 90
1
 70
1
 10
148.481920
 20
141.960767
 30
0.0
  0
LWPOLYLINE
  5
127
100
AcDbEntity
  8
Layer_1
 62
3
100
AcDbPolyline
 90
1
 70
1
 10
148.481920
 20
106.025640
 30
0.0
  0
SPLINE
  5
128
100
AcDbEntity
  8
Layer_1
 62
3
100
AcDbSpline
 70
8
 71
3
 72
8
 73
4
 74
0
 40
0
 40
0
 40
0
 40
0
 40
1
 40
1
 40
1
 40
1
 10
252.482400
 20
172.567944
 30
0.0
 10
257.786730
 20
172.567944
 30
0.0
 10
262.873808
 20
170.460807
 30
0.0
 10
266.624536
 20
166.710080
 30
0.0
  0
SPLINE
  5
129
100
AcDbEntity
  8
Layer_1
 62
3
100
AcDbSpline
 70
8
 71
3
 72
8
 73
4
 74
0
 40
0
 40
0
 40
0
 40
0
 40
1
 40
1
 40
1
 40
1
 10
266.624536
 20
166.710080
 30
0.0
 10
270.375263
 20
162.959352
 30
0.0
 10
272.482400
 20
157.872274
 30
0.0
 10
272.482400
 20
152.567944
 30
0.0
  0
LWPOLYLINE
  5
12a
100
AcDbEntity
  8
Layer_1
 62
3
100
AcDbPolyline
 90
2
 70
0
 10
44.482403
 20
172.567944
 30
0.0
 10
252.482400
 20
172.567944
 30
0.0
  0
SPLINE
  5
12b
100
AcDbEntity
  8
Layer_1
 62
3
100
AcDbSpline
 70
8
 71
3
 72
8
 73
4
 74
0
 40
0
 40
0
 40
0
 40
0
 40
1
 40
1
 40
1
 40
1
 10
272.482400
 20
87.567940
 30
0.0
 10
272.482400
 20
82.263610
 30
0.0
 10
270.375263
 20
77.176532
 30
0.0
 10
266.624536
 20
73.425804
 30
0.0
  0
SPLINE
  5
12c
100
AcDbEntity
  8
Layer_1
 62
3
100
AcDbSpline
 70
8
 71
3
 72
8
 73
4
 74
0
 40
0
 40
0
 40
0
 40
0
 40
1
 40
1
 40
1
 40
1
 10
266.624536
 20
73.425804
 30
0.0
 10
262.873808
 20
69.675077
 30
0.0
 10
257.786730
 20
67.567940
 30
0.0
 10
252.482400
 20
67.567940
 30
0.0
  0
LWPOLYLINE
  5
12d
100
AcDbEntity
  8
Layer_1
 62
3
100
AcDbPolyline
 90
2
 70
0
 10
272.482400
 20
152.567944
 30
0.0
 10
272.482400
 20
87.567940
 30
0.0
  0
SPLINE
  5
12e
100
AcDbEntity
  8
Layer_1
 62
3
100
AcDbSpline
 70
8
 71
3
 72
8
 73
4
 74
0
 40
0
 40
0
 40
0
 40
0
 40
1
 40
1
 40
1
 40
1
 10
44.482403
 20
67.567940
 30
0.0
 10
39.178073
 20
67.567940
 30
0.0
 10
34.090995
 20
69.675077
 30
0.0
 10
30.340267
 20
73.425804
 30
0.0
  0
SPLINE
  5
12f
100
AcDbEntity
  8
Layer_1
 62
3
100
AcDbSpline
 70
8
 71
3
 72
8
 73
4
 74
0
 40
0
 40
0
 40
0
 40
0
 40
1
 40
1
 40
1
 40
1
 10
30.340267
 20
73.425804
 30
0.0
 10
26.589540
 20
77.176532
 30
0.0
 10
24.482403
 20
82.263610
 30
0.0
 10
24.482403
 20
87.567940
 30
0.0
  0
LWPOLYLINE
  5
130
100
AcDbEntity
  8
Layer_1
 62
3
100
AcDbPolyline
 90
2
 70
0
 10
252.482400
 20
67.567940
 30
0.0
 10
44.482403
 20
67.567940
 30
0.0
  0
SPLINE
  5
131
100
AcDbEntity
  8
Layer_1
 62
3
100
AcDbSpline
 70
8
 71
3
 72
8
 73
4
 74
0
 40
0
 40
0
 40
0
 40
0
 40
1
 40
1
 40
1
 40
1
 10
24.482403
 20
152.567944
 30
0.0
 10
24.482403
 20
157.872274
 30
0.0
 10
26.589540
 20
162.959352
 30
0.0
 10
30.340267
 20
166.710080
 30
0.0
  0
SPLINE
  5
132
100
AcDbEntity
  8
Layer_1
 62
3
100
AcDbSpline
 70
8
 71
3
 72
8
 73
4
 74
0
 40
0
 40
0
 40
0
 40
0
 40
1
 40
1
 40
1
 40
1
 10
30.340267
 20
166.710080
 30
0.0
 10
34.090995
 20
170.460807
 30
0.0
 10
39.178073
 20
172.567944
 30
0.0
 10
44.482403
 20
172.567944
 30
0.0
  0
LWPOLYLINE
  5
133
100
AcDbEntity
  8
Layer_1
 62
3
100
AcDbPolyline
 90
2
 70
0
 10
24.482403
 20
87.567940
 30
0.0
 10
24.482403
 20
152.567944
 30
0.0
  0
SPLINE
  5
134
100
AcDbEntity
  8
Layer_1
 62
3
100
AcDbSpline
 70
8
 71
3
 72
8
 73
4
 74
0
 40
0
 40
0
 40
0
 40
0
 40
1
 40
1
 40
1
 40
1
 10
262.482450
 20
164.117944
 30
0.0
 10
261.626409
 20
164.117944
 30
0.0
 10
260.932450
 20
163.423985
 30
0.0
 10
260.932450
 20
162.567944
 30
0.0
  0
SPLINE
  5
135
100
AcDbEntity
  8
Layer_1
 62
3
100
AcDbSpline
 70
8
 71
3
 72
8
 73
4
 74
0
 40
0
 40
0
 40
0
 40
0
 40
1
 40
1
 40
1
 40
1
 10
260.932450
 20
162.567944
 30
0.0
 10
260.932450
 20
161.711903
 30
0.0
 10
261.626409
 20
161.017944
 30
0.0
 10
262.482450
 20
161.017944
 30
0.0
  0
SPLINE
  5
136
100
AcDbEntity
  8
Layer_1
 62
3
100
AcDbSpline
 70
8
 71
3
 72
8
 73
4
 74
0
 40
0
 40
0
 40
0
 40
0
 40
1
 40
1
 40
1
 40
1
 10
262.482450
 20
161.017944
 30
0.0
 10
263.338491
 20
161.017944
 30
0.0
 10
264.032450
 20
161.711903
 30
0.0
 10
264.032450
 20
162.567944
 30
0.0
  0
SPLINE
  5
137
100
AcDbEntity
  8
Layer_1
 62
3
100
AcDbSpline
 70
8
 71
3
 72
8
 73
4
 74
0
 40
0
 40
0
 40
0
 40
0
 40
1
 40
1
 40
1
 40
1
 10
264.032450
 20
162.567944
 30
0.0
 10
264.032450
 20
162.979030
 30
0.0
 10
263.869147
 20
163.373278
 30
0.0
 10
263.578466
 20
163.663960
 30
0.0
  0
SPLINE
  5
138
100
AcDbEntity
  8
Layer_1
 62
3
100
AcDbSpline
 70
8
 71
3
 72
8
 73
4
 74
0
 40
0
 40
0
 40
0
 40
0
 40
1
 40
1
 40
1
 40
1
 10
263.578466
 20
163.663960
 30
0.0
 10
263.287784
 20
163.954641
 30
0.0
 10
262.893536
 20
164.117944
 30
0.0
 10
262.482450
 20
164.117944
 30
0.0
  0
LWPOLYLINE
  5
139
100
AcDbEntity
  8
Layer_1
 62
3
100
AcDbPolyline
 90
1
 70
1
 10
44.482403
 20
172.567944
 30
0.0
  0
SPLINE
  5
13a
100
AcDbEntity
  8
Layer_1
 62
3
100
AcDbSpline
 70
8
 71
3
 72
8
 73
4
 74
0
 40
0
 40
0
 40
0
 40
0
 40
1
 40
1
 40
1
 40
1
 10
262.482420
 20
79.117930
 30
0.0
 10
261.855504
 20
79.117930
 30
0.0
 10
261.290317
 20
78.740285
 30
0.0
 10
261.050407
 20
78.161089
 30
0.0
  0
SPLINE
  5
13b
100
AcDbEntity
  8
Layer_1
 62
3
100
AcDbSpline
 70
8
 71
3
 72
8
 73
4
 74
0
 40
0
 40
0
 40
0
 40
0
 40
1
 40
1
 40
1
 40
1
 10
261.050407
 20
78.161089
 30
0.0
 10
260.810496
 20
77.581894
 30
0.0
 10
260.943108
 20
76.915211
 30
0.0
 10
261.386404
 20
76.471914
 30
0.0
  0
SPLINE
  5
13c
100
AcDbEntity
  8
Layer_1
 62
3
100
AcDbSpline
 70
8
 71
3
 72
8
 73
4
 74
0
 40
0
 40
0
 40
0
 40
0
 40
1
 40
1
 40
1
 40
1
 10
261.386404
 20
76.471914
 30
0.0
 10
261.829701
 20
76.028618
 30
0.0
 10
262.496384
 20
75.896006
 30
0.0
 10
263.075579
 20
76.135917
 30
0.0
  0
SPLINE
  5
13d
100
AcDbEntity
  8
Layer_1
 62
3
100
AcDbSpline
 70
8
 71
3
 72
8
 73
4
 74
0
 40
0
 40
0
 40
0
 40
0
 40
1
 40
1
 40
1
 40
1
 10
263.075579
 20
76.135917
 30
0.0
 10
263.654775
 20
76.375827
 30
0.0
 10
264.032420
 20
76.941014
 30
0.0
 10
264.032420
 20
77.567930
 30
0.0
  0
SPLINE
  5
13e
100
AcDbEntity
  8
Layer_1
 62
3
100
AcDbSpline
 70
8
 71
3
 72
8
 73
4
 74
0
 40
0
 40
0
 40
0
 40
0
 40
1
 40
1
 40
1
 40
1
 10
264.032420
 20
77.567930
 30
0.0
 10
264.032420
 20
77.979016
 30
0.0
 10
263.869117
 20
78.373264
 30
0.0
 10
263.578436
 20
78.663946
 30
0.0
  0
SPLINE
  5
13f
100
AcDbEntity
  8
Layer_1
 62
3
100
AcDbSpline
 70
8
 71
3
 72
8
 73
4
 74
0
 40
0
 40
0
 40
0
 40
0
 40
1
 40
1
 40
1
 40
1
 10
263.578436
 20
78.663946
 30
0.0
 10
263.287754
 20
78.954627
 30
0.0
 10
262.893506
 20
79.117930
 30
0.0
 10
262.482420
 20
79.117930
 30
0.0
  0
LWPOLYLINE
  5
140
100
AcDbEntity
  8
Layer_1
 62
3
100
AcDbPolyline
 90
1
 70
1
 10
262.482450
 20
164.117944
 30
0.0
  0
SPLINE
  5
141
100
AcDbEntity
  8
Layer_1
 62
3
100
AcDbSpline
 70
8
 71
3
 72
8
 73
4
 74
0
 40
0
 40
0
 40
0
 40
0
 40
1
 40
1
 40
1
 40
1
 10
34.482403
 20
164.117944
 30
0.0
 10
33.855487
 20
164.117944
 30
0.0
 10
33.290300
 20
163.740299
 30
0.0
 10
33.050390
 20
163.161103
 30
0.0
  0
SPLINE
  5
142
100
AcDbEntity
  8
Layer_1
 62
3
100
AcDbSpline
 70
8
 71
3
 72
8
 73
4
 74
0
 40
0
 40
0
 40
0
 40
0
 40
1
 40
1
 40
1
 40
1
 10
33.050390
 20
163.161103
 30
0.0
 10
32.810479
 20
162.581908
 30
0.0
 10
32.943091
 20
161.915225
 30
0.0
 10
33.386387
 20
161.471928
 30
0.0
  0
SPLINE
  5
143
100
AcDbEntity
  8
Layer_1
 62
3
100
AcDbSpline
 70
8
 71
3
 72
8
 73
4
 74
0
 40
0
 40
0
 40
0
 40
0
 40
1
 40
1
 40
1
 40
1
 10
33.386387
 20
161.471928
 30
0.0
 10
33.829684
 20
161.028632
 30
0.0
 10
34.496367
 20
160.896020
 30
0.0
 10
35.075562
 20
161.135931
 30
0.0
  0
SPLINE
  5
144
100
AcDbEntity
  8
Layer_1
 62
3
100
AcDbSpline
 70
8
 71
3
 72
8
 73
4
 74
0
 40
0
 40
0
 40
0
 40
0
 40
1
 40
1
 40
1
 40
1
 10
35.075562
 20
161.135931
 30
0.0
 10
35.654758
 20
161.375841
 30
0.0
 10
36.032403
 20
161.941028
 30
0.0
 10
36.032403
 20
162.567944
 30
0.0
  0
SPLINE
  5
145
100
AcDbEntity
  8
Layer_1
 62
3
100
AcDbSpline
 70
8
 71
3
 72
8
 73
4
 74
0
 40
0
 40
0
 40
0
 40
0
 40
1
 40
1
 40
1
 40
1
 10
36.032403
 20
162.567944
 30
0.0
 10
36.032403
 20
162.979030
 30
0.0
 10
35.869100
 20
163.373278
 30
0.0
 10
35.578419
 20
163.663960
 30
0.0
  0
SPLINE
  5
146
100
AcDbEntity
  8
Layer_1
 62
3
100
AcDbSpline
 70
8
 71
3
 72
8
 73
4
 74
0
 40
0
 40
0
 40
0
 40
0
 40
1
 40
1
 40
1
 40
1
 10
35.578419
 20
163.663960
 30
0.0
 10
35.287737
 20
163.954641
 30
0.0
 10
34.893489
 20
164.117944
 30
0.0
 10
34.482403
 20
164.117944
 30
0.0
  0
LWPOLYLINE
  5
147
100
AcDbEntity
  8
Layer_1
 62
3
100
AcDbPolyline
 90
1
 70
1
 10
262.482420
 20
79.117930
 30
0.0
  0
LWPOLYLINE
  5
148
100
AcDbEntity
  8
Layer_1
 62
3
100
AcDbPolyline
 90
1
 70
1
 10
34.482403
 20
164.117944
 30
0.0
  0
LWPOLYLINE
  5
149
100
AcDbEntity
  8
Layer_1
 62
3
100
AcDbPolyline
 90
4
 70
1
 10
54.676113
 20
155.741756
 30
0.0
 10
64.676113
 20
155.741756
 30
0.0
 10
64.676113
 20
145.741756
 30
0.0
 10
54.676113
 20
145.741756
 30
0.0
  0
SPLINE
  5
14a
100
AcDbEntity
  8
Layer_1
 62
3
100
AcDbSpline
 70
8
 71
3
 72
8
 73
4
 74
0
 40
0
 40
0
 40
0
 40
0
 40
1
 40
1
 40
1
 40
1
 10
59.675594
 20
90.944620
 30
0.0
 10
59.048678
 20
90.944620
 30
0.0
 10
58.483491
 20
90.566975
 30
0.0
 10
58.243581
 20
89.987779
 30
0.0
  0
SPLINE
  5
14b
100
AcDbEntity
  8
Layer_1
 62
3
100
AcDbSpline
 70
8
 71
3
 72
8
 73
4
 74
0
 40
0
 40
0
 40
0
 40
0
 40
1
 40
1
 40
1
 40
1
 10
58.243581
 20
89.987779
 30
0.0
 10
58.003670
 20
89.408584
 30
0.0
 10
58.136282
 20
88.741901
 30
0.0
 10
58.579578
 20
88.298604
 30
0.0
  0
SPLINE
  5
14c
100
AcDbEntity
  8
Layer_1
 62
3
100
AcDbSpline
 70
8
 71
3
 72
8
 73
4
 74
0
 40
0
 40
0
 40
0
 40
0
 40
1
 40
1
 40
1
 40
1
 10
58.579578
 20
88.298604
 30
0.0
 10
59.022875
 20
87.855308
 30
0.0
 10
59.689558
 20
87.722696
 30
0.0
 10
60.268753
 20
87.962607
 30
0.0
  0
SPLINE
  5
14d
100
AcDbEntity
  8
Layer_1
 62
3
100
AcDbSpline
 70
8
 71
3
 72
8
 73
4
 74
0
 40
0
 40
0
 40
0
 40
0
 40
1
 40
1
 40
1
 40
1
 10
60.268753
 20
87.962607
 30
0.0
 10
60.847949
 20
88.202517
 30
0.0
 10
61.225594
 20
88.767704
 30
0.0
 10
61.225594
 20
89.394620
 30
0.0
  0
SPLINE
  5
14e
100
AcDbEntity
  8
Layer_1
 62
3
100
AcDbSpline
 70
8
 71
3
 72
8
 73
4
 74
0
 40
0
 40
0
 40
0
 40
0
 40
1
 40
1
 40
1
 40
1
 10
61.225594
 20
89.394620
 30
0.0
 10
61.225594
 20
89.805706
 30
0.0
 10
61.062291
 20
90.199954
 30
0.0
 10
60.771610
 20
90.490636
 30
0.0
  0
SPLINE
  5
14f
100
AcDbEntity
  8
Layer_1
 62
3
100
AcDbSpline
 70
8
 71
3
 72
8
 73
4
 74
0
 40
0
 40
0
 40
0
 40
0
 40
1
 40
1
 40
1
 40
1
 10
60.771610
 20
90.490636
 30
0.0
 10
60.480928
 20
90.781317
 30
0.0
 10
60.086680
 20
90.944620
 30
0.0
 10
59.675594
 20
90.944620
 30
0.0
  0
LWPOLYLINE
  5
150
100
AcDbEntity
  8
Layer_1
 62
3
100
AcDbPolyline
 90
4
 70
1
 10
54.675594
 20
94.394620
 30
0.0
 10
64.675594
 20
94.394620
 30
0.0
 10
64.675594
 20
84.394620
 30
0.0
 10
54.675594
 20
84.394620
 30
0.0
  0
SPLINE
  5
151
100
AcDbEntity
  8
Layer_1
 62
3
100
AcDbSpline
 70
8
 71
3
 72
8
 73
4
 74
0
 40
0
 40
0
 40
0
 40
0
 40
1
 40
1
 40
1
 40
1
 10
59.676113
 20
152.291756
 30
0.0
 10
59.049197
 20
152.291756
 30
0.0
 10
58.484010
 20
151.914111
 30
0.0
 10
58.244100
 20
151.334915
 30
0.0
  0
SPLINE
  5
152
100
AcDbEntity
  8
Layer_1
 62
3
100
AcDbSpline
 70
8
 71
3
 72
8
 73
4
 74
0
 40
0
 40
0
 40
0
 40
0
 40
1
 40
1
 40
1
 40
1
 10
58.244100
 20
151.334915
 30
0.0
 10
58.004189
 20
150.755720
 30
0.0
 10
58.136801
 20
150.089037
 30
0.0
 10
58.580097
 20
149.645740
 30
0.0
  0
SPLINE
  5
153
100
AcDbEntity
  8
Layer_1
 62
3
100
AcDbSpline
 70
8
 71
3
 72
8
 73
4
 74
0
 40
0
 40
0
 40
0
 40
0
 40
1
 40
1
 40
1
 40
1
 10
58.580097
 20
149.645740
 30
0.0
 10
59.023394
 20
149.202444
 30
0.0
 10
59.690077
 20
149.069832
 30
0.0
 10
60.269272
 20
149.309743
 30
0.0
  0
SPLINE
  5
154
100
AcDbEntity
  8
Layer_1
 62
3
100
AcDbSpline
 70
8
 71
3
 72
8
 73
4
 74
0
 40
0
 40
0
 40
0
 40
0
 40
1
 40
1
 40
1
 40
1
 10
60.269272
 20
149.309743
 30
0.0
 10
60.848468
 20
149.549653
 30
0.0
 10
61.226113
 20
150.114840
 30
0.0
 10
61.226113
 20
150.741756
 30
0.0
  0
SPLINE
  5
155
100
AcDbEntity
  8
Layer_1
 62
3
100
AcDbSpline
 70
8
 71
3
 72
8
 73
4
 74
0
 40
0
 40
0
 40
0
 40
0
 40
1
 40
1
 40
1
 40
1
 10
61.226113
 20
150.741756
 30
0.0
 10
61.226113
 20
151.152842
 30
0.0
 10
61.062810
 20
151.547090
 30
0.0
 10
60.772129
 20
151.837772
 30
0.0
  0
SPLINE
  5
156
100
AcDbEntity
  8
Layer_1
 62
3
100
AcDbSpline
 70
8
 71
3
 72
8
 73
4
 74
0
 40
0
 40
0
 40
0
 40
0
 40
1
 40
1
 40
1
 40
1
 10
60.772129
 20
151.837772
 30
0.0
 10
60.481447
 20
152.128453
 30
0.0
 10
60.087199
 20
152.291756
 30
0.0
 10
59.676113
 20
152.291756
 30
0.0
  0
LWPOLYLINE
  5
157
100
AcDbEntity
  8
Layer_1
 62
3
100
AcDbPolyline
 90
1
 70
1
 10
59.675594
 20
90.944620
 30
0.0
  0
LWPOLYLINE
  5
158
100
AcDbEntity
  8
Layer_1
 62
3
100
AcDbPolyline
 90
1
 70
1
 10
59.676113
 20
152.291756
 30
0.0
  0
SPLINE
  5
159
100
AcDbEntity
  8
Layer_1
 62
3
100
AcDbSpline
 70
8
 71
3
 72
8
 73
4
 74
0
 40
0
 40
0
 40
0
 40
0
 40
1
 40
1
 40
1
 40
1
 10
113.953560
 20
90.944620
 30
0.0
 10
113.326644
 20
90.944620
 30
0.0
 10
112.761457
 20
90.566975
 30
0.0
 10
112.521547
 20
89.987779
 30
0.0
  0
SPLINE
  5
15a
100
AcDbEntity
  8
Layer_1
 62
3
100
AcDbSpline
 70
8
 71
3
 72
8
 73
4
 74
0
 40
0
 40
0
 40
0
 40
0
 40
1
 40
1
 40
1
 40
1
 10
112.521547
 20
89.987779
 30
0.0
 10
112.281636
 20
89.408584
 30
0.0
 10
112.414248
 20
88.741901
 30
0.0
 10
112.857544
 20
88.298604
 30
0.0
  0
SPLINE
  5
15b
100
AcDbEntity
  8
Layer_1
 62
3
100
AcDbSpline
 70
8
 71
3
 72
8
 73
4
 74
0
 40
0
 40
0
 40
0
 40
0
 40
1
 40
1
 40
1
 40
1
 10
112.857544
 20
88.298604
 30
0.0
 10
113.300841
 20
87.855308
 30
0.0
 10
113.967524
 20
87.722696
 30
0.0
 10
114.546719
 20
87.962607
 30
0.0
  0
SPLINE
  5
15c
100
AcDbEntity
  8
Layer_1
 62
3
100
AcDbSpline
 70
8
 71
3
 72
8
 73
4
 74
0
 40
0
 40
0
 40
0
 40
0
 40
1
 40
1
 40
1
 40
1
 10
114.546719
 20
87.962607
 30
0.0
 10
115.125915
 20
88.202517
 30
0.0
 10
115.503560
 20
88.767704
 30
0.0
 10
115.503560
 20
89.394620
 30
0.0
  0
SPLINE
  5
15d
100
AcDbEntity
  8
Layer_1
 62
3
100
AcDbSpline
 70
8
 71
3
 72
8
 73
4
 74
0
 40
0
 40
0
 40
0
 40
0
 40
1
 40
1
 40
1
 40
1
 10
115.503560
 20
89.394620
 30
0.0
 10
115.503560
 20
89.805706
 30
0.0
 10
115.340257
 20
90.199954
 30
0.0
 10
115.049576
 20
90.490636
 30
0.0
  0
SPLINE
  5
15e
100
AcDbEntity
  8
Layer_1
 62
3
100
AcDbSpline
 70
8
 71
3
 72
8
 73
4
 74
0
 40
0
 40
0
 40
0
 40
0
 40
1
 40
1
 40
1
 40
1
 10
115.049576
 20
90.490636
 30
0.0
 10
114.758894
 20
90.781317
 30
0.0
 10
114.364646
 20
90.944620
 30
0.0
 10
113.953560
 20
90.944620
 30
0.0
  0
LWPOLYLINE
  5
15f
100
AcDbEntity
  8
Layer_1
 62
3
100
AcDbPolyline
 90
4
 70
1
 10
108.953550
 20
94.394620
 30
0.0
 10
118.953550
 20
94.394620
 30
0.0
 10
118.953550
 20
84.394620
 30
0.0
 10
108.953550
 20
84.394620
 30
0.0
  0
LWPOLYLINE
  5
160
100
AcDbEntity
  8
Layer_1
 62
3
100
AcDbPolyline
 90
1
 70
1
 10
113.953560
 20
90.944620
 30
0.0
  0
SPLINE
  5
161
100
AcDbEntity
  8
Layer_1
 62
3
100
AcDbSpline
 70
8
 71
3
 72
8
 73
4
 74
0
 40
0
 40
0
 40
0
 40
0
 40
1
 40
1
 40
1
 40
1
 10
113.954080
 20
152.291760
 30
0.0
 10
113.327164
 20
152.291760
 30
0.0
 10
112.761977
 20
151.914115
 30
0.0
 10
112.522067
 20
151.334919
 30
0.0
  0
SPLINE
  5
162
100
AcDbEntity
  8
Layer_1
 62
3
100
AcDbSpline
 70
8
 71
3
 72
8
 73
4
 74
0
 40
0
 40
0
 40
0
 40
0
 40
1
 40
1
 40
1
 40
1
 10
112.522067
 20
151.334919
 30
0.0
 10
112.282156
 20
150.755724
 30
0.0
 10
112.414768
 20
150.089041
 30
0.0
 10
112.858064
 20
149.645744
 30
0.0
  0
SPLINE
  5
163
100
AcDbEntity
  8
Layer_1
 62
3
100
AcDbSpline
 70
8
 71
3
 72
8
 73
4
 74
0
 40
0
 40
0
 40
0
 40
0
 40
1
 40
1
 40
1
 40
1
 10
112.858064
 20
149.645744
 30
0.0
 10
113.301361
 20
149.202448
 30
0.0
 10
113.968044
 20
149.069836
 30
0.0
 10
114.547239
 20
149.309747
 30
0.0
  0
SPLINE
  5
164
100
AcDbEntity
  8
Layer_1
 62
3
100
AcDbSpline
 70
8
 71
3
 72
8
 73
4
 74
0
 40
0
 40
0
 40
0
 40
0
 40
1
 40
1
 40
1
 40
1
 10
114.547239
 20
149.309747
 30
0.0
 10
115.126435
 20
149.549657
 30
0.0
 10
115.504080
 20
150.114844
 30
0.0
 10
115.504080
 20
150.741760
 30
0.0
  0
SPLINE
  5
165
100
AcDbEntity
  8
Layer_1
 62
3
100
AcDbSpline
 70
8
 71
3
 72
8
 73
4
 74
0
 40
0
 40
0
 40
0
 40
0
 40
1
 40
1
 40
1
 40
1
 10
115.504080
 20
150.741760
 30
0.0
 10
115.504080
 20
151.597801
 30
0.0
 10
114.810121
 20
152.291760
 30
0.0
 10
113.954080
 20
152.291760
 30
0.0
  0
LWPOLYLINE
  5
166
100
AcDbEntity
  8
Layer_1
 62
3
100
AcDbPolyline
 90
4
 70
1
 10
108.954080
 20
155.741760
 30
0.0
 10
118.954080
 20
155.741760
 30
0.0
 10
118.954080
 20
145.741760
 30
0.0
 10
108.954080
 20
145.741760
 30
0.0
  0
LWPOLYLINE
  5
167
100
AcDbEntity
  8
Layer_1
 62
3
100
AcDbPolyline
 90
1
 70
1
 10
113.954080
 20
152.291760
 30
0.0
  0
SPLINE
  5
168
100
AcDbEntity
  8
Layer_1
 62
3
100
AcDbSpline
 70
8
 71
3
 72
8
 73
4
 74
0
 40
0
 40
0
 40
0
 40
0
 40
1
 40
1
 40
1
 40
1
 10
183.010760
 20
90.944620
 30
0.0
 10
182.383844
 20
90.944620
 30
0.0
 10
181.818657
 20
90.566975
 30
0.0
 10
181.578747
 20
89.987779
 30
0.0
  0
SPLINE
  5
169
100
AcDbEntity
  8
Layer_1
 62
3
100
AcDbSpline
 70
8
 71
3
 72
8
 73
4
 74
0
 40
0
 40
0
 40
0
 40
0
 40
1
 40
1
 40
1
 40
1
 10
181.578747
 20
89.987779
 30
0.0
 10
181.338836
 20
89.408584
 30
0.0
 10
181.471448
 20
88.741901
 30
0.0
 10
181.914744
 20
88.298604
 30
0.0
  0
SPLINE
  5
16a
100
AcDbEntity
  8
Layer_1
 62
3
100
AcDbSpline
 70
8
 71
3
 72
8
 73
4
 74
0
 40
0
 40
0
 40
0
 40
0
 40
1
 40
1
 40
1
 40
1
 10
181.914744
 20
88.298604
 30
0.0
 10
182.358041
 20
87.855308
 30
0.0
 10
183.024724
 20
87.722696
 30
0.0
 10
183.603919
 20
87.962607
 30
0.0
  0
SPLINE
  5
16b
100
AcDbEntity
  8
Layer_1
 62
3
100
AcDbSpline
 70
8
 71
3
 72
8
 73
4
 74
0
 40
0
 40
0
 40
0
 40
0
 40
1
 40
1
 40
1
 40
1
 10
183.603919
 20
87.962607
 30
0.0
 10
184.183115
 20
88.202517
 30
0.0
 10
184.560760
 20
88.767704
 30
0.0
 10
184.560760
 20
89.394620
 30
0.0
  0
SPLINE
  5
16c
100
AcDbEntity
  8
Layer_1
 62
3
100
AcDbSpline
 70
8
 71
3
 72
8
 73
4
 74
0
 40
0
 40
0
 40
0
 40
0
 40
1
 40
1
 40
1
 40
1
 10
184.560760
 20
89.394620
 30
0.0
 10
184.560760
 20
89.805706
 30
0.0
 10
184.397457
 20
90.199954
 30
0.0
 10
184.106776
 20
90.490636
 30
0.0
  0
SPLINE
  5
16d
100
AcDbEntity
  8
Layer_1
 62
3
100
AcDbSpline
 70
8
 71
3
 72
8
 73
4
 74
0
 40
0
 40
0
 40
0
 40
0
 40
1
 40
1
 40
1
 40
1
 10
184.106776
 20
90.490636
 30
0.0
 10
183.816094
 20
90.781317
 30
0.0
 10
183.421846
 20
90.944620
 30
0.0
 10
183.010760
 20
90.944620
 30
0.0
  0
LWPOLYLINE
  5
16e
100
AcDbEntity
  8
Layer_1
 62
3
100
AcDbPolyline
 90
4
 70
1
 10
178.010760
 20
94.394620
 30
0.0
 10
188.010760
 20
94.394620
 30
0.0
 10
188.010760
 20
84.394620
 30
0.0
 10
178.010760
 20
84.394620
 30
0.0
  0
LWPOLYLINE
  5
16f
100
AcDbEntity
  8
Layer_1
 62
3
100
AcDbPolyline
 90
1
 70
1
 10
183.010760
 20
90.944620
 30
0.0
  0
SPLINE
  5
170
100
AcDbEntity
  8
Layer_1
 62
3
100
AcDbSpline
 70
8
 71
3
 72
8
 73
4
 74
0
 40
0
 40
0
 40
0
 40
0
 40
1
 40
1
 40
1
 40
1
 10
183.011280
 20
152.291760
 30
0.0
 10
182.155239
 20
152.291760
 30
0.0
 10
181.461280
 20
151.597801
 30
0.0
 10
181.461280
 20
150.741760
 30
0.0
  0
SPLINE
  5
171
100
AcDbEntity
  8
Layer_1
 62
3
100
AcDbSpline
 70
8
 71
3
 72
8
 73
4
 74
0
 40
0
 40
0
 40
0
 40
0
 40
1
 40
1
 40
1
 40
1
 10
181.461280
 20
150.741760
 30
0.0
 10
181.461280
 20
149.885719
 30
0.0
 10
182.155239
 20
149.191760
 30
0.0
 10
183.011280
 20
149.191760
 30
0.0
  0
SPLINE
  5
172
100
AcDbEntity
  8
Layer_1
 62
3
100
AcDbSpline
 70
8
 71
3
 72
8
 73
4
 74
0
 40
0
 40
0
 40
0
 40
0
 40
1
 40
1
 40
1
 40
1
 10
183.011280
 20
149.191760
 30
0.0
 10
183.867321
 20
149.191760
 30
0.0
 10
184.561280
 20
149.885719
 30
0.0
 10
184.561280
 20
150.741760
 30
0.0
  0
SPLINE
  5
173
100
AcDbEntity
  8
Layer_1
 62
3
100
AcDbSpline
 70
8
 71
3
 72
8
 73
4
 74
0
 40
0
 40
0
 40
0
 40
0
 40
1
 40
1
 40
1
 40
1
 10
184.561280
 20
150.741760
 30
0.0
 10
184.561280
 20
151.152846
 30
0.0
 10
184.397977
 20
151.547094
 30
0.0
 10
184.107296
 20
151.837776
 30
0.0
  0
SPLINE
  5
174
100
AcDbEntity
  8
Layer_1
 62
3
100
AcDbSpline
 70
8
 71
3
 72
8
 73
4
 74
0
 40
0
 40
0
 40
0
 40
0
 40
1
 40
1
 40
1
 40
1
 10
184.107296
 20
151.837776
 30
0.0
 10
183.816614
 20
152.128457
 30
0.0
 10
183.422366
 20
152.291760
 30
0.0
 10
183.011280
 20
152.291760
 30
0.0
  0
LWPOLYLINE
  5
175
100
AcDbEntity
  8
Layer_1
 62
3
100
AcDbPolyline
 90
4
 70
1
 10
178.011280
 20
155.741760
 30
0.0
 10
188.011280
 20
155.741760
 30
0.0
 10
188.011280
 20
145.741760
 30
0.0
 10
178.011280
 20
145.741760
 30
0.0
  0
LWPOLYLINE
  5
176
100
AcDbEntity
  8
Layer_1
 62
3
100
AcDbPolyline
 90
1
 70
1
 10
183.011280
 20
152.291760
 30
0.0
  0
SPLINE
  5
177
100
AcDbEntity
  8
Layer_1
 62
3
100
AcDbSpline
 70
8
 71
3
 72
8
 73
4
 74
0
 40
0
 40
0
 40
0
 40
0
 40
1
 40
1
 40
1
 40
1
 10
237.288710
 20
90.944620
 30
0.0
 10
236.661794
 20
90.944620
 30
0.0
 10
236.096607
 20
90.566975
 30
0.0
 10
235.856697
 20
89.987779
 30
0.0
  0
SPLINE
  5
178
100
AcDbEntity
  8
Layer_1
 62
3
100
AcDbSpline
 70
8
 71
3
 72
8
 73
4
 74
0
 40
0
 40
0
 40
0
 40
0
 40
1
 40
1
 40
1
 40
1
 10
235.856697
 20
89.987779
 30
0.0
 10
235.616786
 20
89.408584
 30
0.0
 10
235.749398
 20
88.741901
 30
0.0
 10
236.192694
 20
88.298604
 30
0.0
  0
SPLINE
  5
179
100
AcDbEntity
  8
Layer_1
 62
3
100
AcDbSpline
 70
8
 71
3
 72
8
 73
4
 74
0
 40
0
 40
0
 40
0
 40
0
 40
1
 40
1
 40
1
 40
1
 10
236.192694
 20
88.298604
 30
0.0
 10
236.635991
 20
87.855308
 30
0.0
 10
237.302674
 20
87.722696
 30
0.0
 10
237.881869
 20
87.962607
 30
0.0
  0
SPLINE
  5
17a
100
AcDbEntity
  8
Layer_1
 62
3
100
AcDbSpline
 70
8
 71
3
 72
8
 73
4
 74
0
 40
0
 40
0
 40
0
 40
0
 40
1
 40
1
 40
1
 40
1
 10
237.881869
 20
87.962607
 30
0.0
 10
238.461065
 20
88.202517
 30
0.0
 10
238.838710
 20
88.767704
 30
0.0
 10
238.838710
 20
89.394620
 30
0.0
  0
SPLINE
  5
17b
100
AcDbEntity
  8
Layer_1
 62
3
100
AcDbSpline
 70
8
 71
3
 72
8
 73
4
 74
0
 40
0
 40
0
 40
0
 40
0
 40
1
 40
1
 40
1
 40
1
 10
238.838710
 20
89.394620
 30
0.0
 10
238.838710
 20
89.805706
 30
0.0
 10
238.675407
 20
90.199954
 30
0.0
 10
238.384726
 20
90.490636
 30
0.0
  0
SPLINE
  5
17c
100
AcDbEntity
  8
Layer_1
 62
3
100
AcDbSpline
 70
8
 71
3
 72
8
 73
4
 74
0
 40
0
 40
0
 40
0
 40
0
 40
1
 40
1
 40
1
 40
1
 10
238.384726
 20
90.490636
 30
0.0
 10
238.094044
 20
90.781317
 30
0.0
 10
237.699796
 20
90.944620
 30
0.0
 10
237.288710
 20
90.944620
 30
0.0
  0
LWPOLYLINE
  5
17d
100
AcDbEntity
  8
Layer_1
 62
3
100
AcDbPolyline
 90
4
 70
1
 10
232.288710
 20
94.394620
 30
0.0
 10
242.288710
 20
94.394620
 30
0.0
 10
242.288710
 20
84.394620
 30
0.0
 10
232.288710
 20
84.394620
 30
0.0
  0
LWPOLYLINE
  5
17e
100
AcDbEntity
  8
Layer_1
 62
3
100
AcDbPolyline
 90
1
 70
1
 10
237.288710
 20
90.944620
 30
0.0
  0
SPLINE
  5
17f
100
AcDbEntity
  8
Layer_1
 62
3
100
AcDbSpline
 70
8
 71
3
 72
8
 73
4
 74
0
 40
0
 40
0
 40
0
 40
0
 40
1
 40
1
 40
1
 40
1
 10
237.289230
 20
152.291760
 30
0.0
 10
236.662314
 20
152.291760
 30
0.0
 10
236.097127
 20
151.914115
 30
0.0
 10
235.857217
 20
151.334919
 30
0.0
  0
SPLINE
  5
180
100
AcDbEntity
  8
Layer_1
 62
3
100
AcDbSpline
 70
8
 71
3
 72
8
 73
4
 74
0
 40
0
 40
0
 40
0
 40
0
 40
1
 40
1
 40
1
 40
1
 10
235.857217
 20
151.334919
 30
0.0
 10
235.617306
 20
150.755724
 30
0.0
 10
235.749918
 20
150.089041
 30
0.0
 10
236.193214
 20
149.645744
 30
0.0
  0
SPLINE
  5
181
100
AcDbEntity
  8
Layer_1
 62
3
100
AcDbSpline
 70
8
 71
3
 72
8
 73
4
 74
0
 40
0
 40
0
 40
0
 40
0
 40
1
 40
1
 40
1
 40
1
 10
236.193214
 20
149.645744
 30
0.0
 10
236.636511
 20
149.202448
 30
0.0
 10
237.303194
 20
149.069836
 30
0.0
 10
237.882389
 20
149.309747
 30
0.0
  0
SPLINE
  5
182
100
AcDbEntity
  8
Layer_1
 62
3
100
AcDbSpline
 70
8
 71
3
 72
8
 73
4
 74
0
 40
0
 40
0
 40
0
 40
0
 40
1
 40
1
 40
1
 40
1
 10
237.882389
 20
149.309747
 30
0.0
 10
238.461585
 20
149.549657
 30
0.0
 10
238.839230
 20
150.114844
 30
0.0
 10
238.839230
 20
150.741760
 30
0.0
  0
SPLINE
  5
183
100
AcDbEntity
  8
Layer_1
 62
3
100
AcDbSpline
 70
8
 71
3
 72
8
 73
4
 74
0
 40
0
 40
0
 40
0
 40
0
 40
1
 40
1
 40
1
 40
1
 10
238.839230
 20
150.741760
 30
0.0
 10
238.839230
 20
151.152846
 30
0.0
 10
238.675927
 20
151.547094
 30
0.0
 10
238.385246
 20
151.837776
 30
0.0
  0
SPLINE
  5
184
100
AcDbEntity
  8
Layer_1
 62
3
100
AcDbSpline
 70
8
 71
3
 72
8
 73
4
 74
0
 40
0
 40
0
 40
0
 40
0
 40
1
 40
1
 40
1
 40
1
 10
238.385246
 20
151.837776
 30
0.0
 10
238.094564
 20
152.128457
 30
0.0
 10
237.700316
 20
152.291760
 30
0.0
 10
237.289230
 20
152.291760
 30
0.0
  0
LWPOLYLINE
  5
185
100
AcDbEntity
  8
Layer_1
 62
3
100
AcDbPolyline
 90
4
 70
1
 10
232.289230
 20
155.741760
 30
0.0
 10
242.289230
 20
155.741760
 30
0.0
 10
242.289230
 20
145.741760
 30
0.0
 10
232.289230
 20
145.741760
 30
0.0
  0
SPLINE
  5
186
100
AcDbEntity
  8
Layer_1
 62
3
100
AcDbSpline
 70
8
 71
3
 72
8
 73
4
 74
0
 40
0
 40
0
 40
0
 40
0
 40
1
 40
1
 40
1
 40
1
 10
148.482410
 20
121.617955
 30
0.0
 10
147.855494
 20
121.617955
 30
0.0
 10
147.290307
 20
121.240310
 30
0.0
 10
147.050397
 20
120.661114
 30
0.0
  0
SPLINE
  5
187
100
AcDbEntity
  8
Layer_1
 62
3
100
AcDbSpline
 70
8
 71
3
 72
8
 73
4
 74
0
 40
0
 40
0
 40
0
 40
0
 40
1
 40
1
 40
1
 40
1
 10
147.050397
 20
120.661114
 30
0.0
 10
146.810486
 20
120.081919
 30
0.0
 10
146.943098
 20
119.415236
 30
0.0
 10
147.386394
 20
118.971939
 30
0.0
  0
SPLINE
  5
188
100
AcDbEntity
  8
Layer_1
 62
3
100
AcDbSpline
 70
8
 71
3
 72
8
 73
4
 74
0
 40
0
 40
0
 40
0
 40
0
 40
1
 40
1
 40
1
 40
1
 10
147.386394
 20
118.971939
 30
0.0
 10
147.829691
 20
118.528643
 30
0.0
 10
148.496374
 20
118.396031
 30
0.0
 10
149.075569
 20
118.635942
 30
0.0
  0
SPLINE
  5
189
100
AcDbEntity
  8
Layer_1
 62
3
100
AcDbSpline
 70
8
 71
3
 72
8
 73
4
 74
0
 40
0
 40
0
 40
0
 40
0
 40
1
 40
1
 40
1
 40
1
 10
149.075569
 20
118.635942
 30
0.0
 10
149.654765
 20
118.875852
 30
0.0
 10
150.032410
 20
119.441039
 30
0.0
 10
150.032410
 20
120.067955
 30
0.0
  0
SPLINE
  5
18a
100
AcDbEntity
  8
Layer_1
 62
3
100
AcDbSpline
 70
8
 71
3
 72
8
 73
4
 74
0
 40
0
 40
0
 40
0
 40
0
 40
1
 40
1
 40
1
 40
1
 10
150.032410
 20
120.067955
 30
0.0
 10
150.032410
 20
120.479041
 30
0.0
 10
149.869107
 20
120.873289
 30
0.0
 10
149.578426
 20
121.163971
 30
0.0
  0
SPLINE
  5
18b
100
AcDbEntity
  8
Layer_1
 62
3
100
AcDbSpline
 70
8
 71
3
 72
8
 73
4
 74
0
 40
0
 40
0
 40
0
 40
0
 40
1
 40
1
 40
1
 40
1
 10
149.578426
 20
121.163971
 30
0.0
 10
149.287744
 20
121.454652
 30
0.0
 10
148.893496
 20
121.617955
 30
0.0
 10
148.482410
 20
121.617955
 30
0.0
  0
LWPOLYLINE
  5
18c
100
AcDbEntity
  8
Layer_1
 62
3
100
AcDbPolyline
 90
1
 70
1
 10
237.289230
 20
152.291760
 30
0.0
  0
LWPOLYLINE
  5
18d
100
AcDbEntity
  8
Layer_1
 62
3
100
AcDbPolyline
 90
1
 70
1
 10
148.482410
 20
121.617955
 30
0.0
  0
LWPOLYLINE
  5
18e
100
AcDbEntity
  8
Layer_1
 62
3
100
AcDbPolyline
 90
4
 70
1
 10
143.482410
 20
145.067955
 30
0.0
 10
153.482410
 20
145.067955
 30
0.0
 10
153.482410
 20
95.067955
 30
0.0
 10
143.482410
 20
95.067955
 30
0.0
  0
LWPOLYLINE
  5
18f
100
AcDbEntity
  8
Layer_1
 62
3
100
AcDbPolyline
 90
4
 70
1
 10
24.482403
 20
172.567944
 30
0.0
 10
34.482403
 20
172.567944
 30
0.0
 10
34.482403
 20
162.567944
 30
0.0
 10
24.482403
 20
162.567944
 30
0.0
  0
LWPOLYLINE
  5
190
100
AcDbEntity
  8
Layer_1
 62
3
100
AcDbPolyline
 90
4
 70
1
 10
24.482403
 20
77.567930
 30
0.0
 10
34.482403
 20
77.567930
 30
0.0
 10
34.482403
 20
67.567930
 30
0.0
 10
24.482403
 20
67.567930
 30
0.0
  0
LWPOLYLINE
  5
191
100
AcDbEntity
  8
Layer_1
 62
3
100
AcDbPolyline
 90
4
 70
1
 10
262.482420
 20
77.567930
 30
0.0
 10
272.482420
 20
77.567930
 30
0.0
 10
272.482420
 20
67.567930
 30
0.0
 10
262.482420
 20
67.567930
 30
0.0
  0
LWPOLYLINE
  5
192
100
AcDbEntity
  8
Layer_1
 62
3
100
AcDbPolyline
 90
4
 70
1
 10
262.482450
 20
172.567944
 30
0.0
 10
272.482450
 20
172.567944
 30
0.0
 10
272.482450
 20
162.567944
 30
0.0
 10
262.482450
 20
162.567944
 30
0.0
  0
LWPOLYLINE
  5
193
100
AcDbEntity
  8
Layer_1
 62
3
100
AcDbPolyline
 90
4
 70
1
 10
54.675594
 20
94.394620
 30
0.0
 10
59.675594
 20
94.394620
 30
0.0
 10
59.675594
 20
89.394620
 30
0.0
 10
54.675594
 20
89.394620
 30
0.0
  0
LWPOLYLINE
  5
194
100
AcDbEntity
  8
Layer_1
 62
3
100
AcDbPolyline
 90
4
 70
1
 10
108.953550
 20
94.394620
 30
0.0
 10
113.953550
 20
94.394620
 30
0.0
 10
113.953550
 20
89.394620
 30
0.0
 10
108.953550
 20
89.394620
 30
0.0
  0
LWPOLYLINE
  5
195
100
AcDbEntity
  8
Layer_1
 62
3
100
AcDbPolyline
 90
4
 70
1
 10
59.676113
 20
155.741756
 30
0.0
 10
64.676113
 20
155.741756
 30
0.0
 10
64.676113
 20
150.741756
 30
0.0
 10
59.676113
 20
150.741756
 30
0.0
  0
LWPOLYLINE
  5
196
100
AcDbEntity
  8
Layer_1
 62
3
100
AcDbPolyline
 90
4
 70
1
 10
113.954080
 20
155.741756
 30
0.0
 10
118.954080
 20
155.741756
 30
0.0
 10
118.954080
 20
150.741756
 30
0.0
 10
113.954080
 20
150.741756
 30
0.0
  0
LWPOLYLINE
  5
197
100
AcDbEntity
  8
Layer_1
 62
3
100
AcDbPolyline
 90
4
 70
1
 10
183.010760
 20
94.394620
 30
0.0
 10
188.010760
 20
94.394620
 30
0.0
 10
188.010760
 20
89.394620
 30
0.0
 10
183.010760
 20
89.394620
 30
0.0
  0
LWPOLYLINE
  5
198
100
AcDbEntity
  8
Layer_1
 62
3
100
AcDbPolyline
 90
4
 70
1
 10
237.288710
 20
94.394620
 30
0.0
 10
242.288710
 20
94.394620
 30
0.0
 10
242.288710
 20
89.394620
 30
0.0
 10
237.288710
 20
89.394620
 30
0.0
  0
LWPOLYLINE
  5
199
100
AcDbEntity
  8
Layer_1
 62
3
100
AcDbPolyline
 90
4
 70
1
 10
237.289230
 20
155.741756
 30
0.0
 10
242.289230
 20
155.741756
 30
0.0
 10
242.289230
 20
150.741756
 30
0.0
 10
237.289230
 20
150.741756
 30
0.0
  0
LWPOLYLINE
  5
19a
100
AcDbEntity
  8
Layer_1
 62
3
100
AcDbPolyline
 90
4
 70
1
 10
183.011280
 20
155.741756
 30
0.0
 10
188.011280
 20
155.741756
 30
0.0
 10
188.011280
 20
150.741756
 30
0.0
 10
183.011280
 20
150.741756
 30
0.0
  0
SPLINE
  5
19b
100
AcDbEntity
  8
Layer_1
 62
3
100
AcDbSpline
 70
8
 71
3
 72
8
 73
4
 74
0
 40
0
 40
0
 40
0
 40
0
 40
1
 40
1
 40
1
 40
1
 10
34.482403
 20
79.117930
 30
0.0
 10
33.855487
 20
79.117930
 30
0.0
 10
33.290300
 20
78.740285
 30
0.0
 10
33.050390
 20
78.161089
 30
0.0
  0
SPLINE
  5
19c
100
AcDbEntity
  8
Layer_1
 62
3
100
AcDbSpline
 70
8
 71
3
 72
8
 73
4
 74
0
 40
0
 40
0
 40
0
 40
0
 40
1
 40
1
 40
1
 40
1
 10
33.050390
 20
78.161089
 30
0.0
 10
32.810479
 20
77.581894
 30
0.0
 10
32.943091
 20
76.915211
 30
0.0
 10
33.386387
 20
76.471914
 30
0.0
  0
SPLINE
  5
19d
100
AcDbEntity
  8
Layer_1
 62
3
100
AcDbSpline
 70
8
 71
3
 72
8
 73
4
 74
0
 40
0
 40
0
 40
0
 40
0
 40
1
 40
1
 40
1
 40
1
 10
33.386387
 20
76.471914
 30
0.0
 10
33.829684
 20
76.028618
 30
0.0
 10
34.496367
 20
75.896006
 30
0.0
 10
35.075562
 20
76.135917
 30
0.0
  0
SPLINE
  5
19e
100
AcDbEntity
  8
Layer_1
 62
3
100
AcDbSpline
 70
8
 71
3
 72
8
 73
4
 74
0
 40
0
 40
0
 40
0
 40
0
 40
1
 40
1
 40
1
 40
1
 10
35.075562
 20
76.135917
 30
0.0
 10
35.654758
 20
76.375827
 30
0.0
 10
36.032403
 20
76.941014
 30
0.0
 10
36.032403
 20
77.567930
 30
0.0
  0
SPLINE
  5
19f
100
AcDbEntity
  8
Layer_1
 62
3
100
AcDbSpline
 70
8
 71
3
 72
8
 73
4
 74
0
 40
0
 40
0
 40
0
 40
0
 40
1
 40
1
 40
1
 40
1
 10
36.032403
 20
77.567930
 30
0.0
 10
36.032403
 20
77.979016
 30
0.0
 10
35.869100
 20
78.373264
 30
0.0
 10
35.578419
 20
78.663946
 30
0.0
  0
SPLINE
  5
1a0
100
AcDbEntity
  8
Layer_1
 62
3
100
AcDbSpline
 70
8
 71
3
 72
8
 73
4
 74
0
 40
0
 40
0
 40
0
 40
0
 40
1
 40
1
 40
1
 40
1
 10
35.578419
 20
78.663946
 30
0.0
 10
35.287737
 20
78.954627
 30
0.0
 10
34.893489
 20
79.117930
 30
0.0
 10
34.482403
 20
79.117930
 30
0.0
  0
LWPOLYLINE
  5
1a1
100
AcDbEntity
  8
Layer_1
 62
3
100
AcDbPolyline
 90
4
 70
1
 10
143.482410
 20
145.067955
 30
0.0
 10
148.482410
 20
145.067955
 30
0.0
 10
148.482410
 20
120.067955
 30
0.0
 10
143.482410
 20
120.067955
 30
0.0
  0
LWPOLYLINE
  5
1a2
100
AcDbEntity
  8
Layer_1
 62
3
100
AcDbPolyline
 90
1
 70
1
 10
34.482403
 20
79.117930
 30
0.0
  0
LWPOLYLINE
  5
1a3
100
AcDbEntity
  8
Layer_1
 62
3
100
AcDbPolyline
 90
4
 70
1
 10
143.482410
 20
172.567959
 30
0.0
 10
153.482410
 20
172.567959
 30
0.0
 10
153.482410
 20
145.067959
 30
0.0
 10
143.482410
 20
145.067959
 30
0.0
  0
SPLINE
  5
1a4
100
AcDbEntity
  8
Layer_1
 62
3
100
AcDbSpline
 70
8
 71
3
 72
8
 73
4
 74
0
 40
0
 40
0
 40
0
 40
0
 40
1
 40
1
 40
1
 40
1
 10
148.482410
 20
160.367959
 30
0.0
 10
147.855494
 20
160.367959
 30
0.0
 10
147.290307
 20
159.990314
 30
0.0
 10
147.050397
 20
159.411118
 30
0.0
  0
SPLINE
  5
1a5
100
AcDbEntity
  8
Layer_1
 62
3
100
AcDbSpline
 70
8
 71
3
 72
8
 73
4
 74
0
 40
0
 40
0
 40
0
 40
0
 40
1
 40
1
 40
1
 40
1
 10
147.050397
 20
159.411118
 30
0.0
 10
146.810486
 20
158.831923
 30
0.0
 10
146.943098
 20
158.165240
 30
0.0
 10
147.386394
 20
157.721943
 30
0.0
  0
SPLINE
  5
1a6
100
AcDbEntity
  8
Layer_1
 62
3
100
AcDbSpline
 70
8
 71
3
 72
8
 73
4
 74
0
 40
0
 40
0
 40
0
 40
0
 40
1
 40
1
 40
1
 40
1
 10
147.386394
 20
157.721943
 30
0.0
 10
147.829691
 20
157.278647
 30
0.0
 10
148.496374
 20
157.146035
 30
0.0
 10
149.075569
 20
157.385946
 30
0.0
  0
SPLINE
  5
1a7
100
AcDbEntity
  8
Layer_1
 62
3
100
AcDbSpline
 70
8
 71
3
 72
8
 73
4
 74
0
 40
0
 40
0
 40
0
 40
0
 40
1
 40
1
 40
1
 40
1
 10
149.075569
 20
157.385946
 30
0.0
 10
149.654765
 20
157.625856
 30
0.0
 10
150.032410
 20
158.191043
 30
0.0
 10
150.032410
 20
158.817959
 30
0.0
  0
SPLINE
  5
1a8
100
AcDbEntity
  8
Layer_1
 62
3
100
AcDbSpline
 70
8
 71
3
 72
8
 73
4
 74
0
 40
0
 40
0
 40
0
 40
0
 40
1
 40
1
 40
1
 40
1
 10
150.032410
 20
158.817959
 30
0.0
 10
150.032410
 20
159.229045
 30
0.0
 10
149.869107
 20
159.623293
 30
0.0
 10
149.578426
 20
159.913975
 30
0.0
  0
SPLINE
  5
1a9
100
AcDbEntity
  8
Layer_1
 62
3
100
AcDbSpline
 70
8
 71
3
 72
8
 73
4
 74
0
 40
0
 40
0
 40
0
 40
0
 40
1
 40
1
 40
1
 40
1
 10
149.578426
 20
159.913975
 30
0.0
 10
149.287744
 20
160.204656
 30
0.0
 10
148.893496
 20
160.367959
 30
0.0
 10
148.482410
 20
160.367959
 30
0.0
  0
LWPOLYLINE
  5
1aa
100
AcDbEntity
  8
Layer_1
 62
3
100
AcDbPolyline
 90
4
 70
1
 10
143.482410
 20
158.817959
 30
0.0
 10
148.482410
 20
158.817959
 30
0.0
 10
148.482410
 20
145.067959
 30
0.0
 10
143.482410
 20
145.067959
 30
0.0
  0
LWPOLYLINE
  5
1ab
100
AcDbEntity
  8
Layer_1
 62
3
100
AcDbPolyline
 90
1
 70
1
 10
148.482410
 20
160.367959
 30
0.0
  0
LWPOLYLINE
  5
1ac
100
AcDbEntity
  8
Layer_1
 62
3
100
AcDbPolyline
 90
4
 70
1
 10
143.482410
 20
95.067960
 30
0.0
 10
153.482410
 20
95.067960
 30
0.0
 10
153.482410
 20
67.567960
 30
0.0
 10
143.482410
 20
67.567960
 30
0.0
  0
SPLINE
  5
1ad
100
AcDbEntity
  8
Layer_1
 62
3
100
AcDbSpline
 70
8
 71
3
 72
8
 73
4
 74
0
 40
0
 40
0
 40
0
 40
0
 40
1
 40
1
 40
1
 40
1
 10
148.482410
 20
82.867960
 30
0.0
 10
147.855494
 20
82.867960
 30
0.0
 10
147.290307
 20
82.490315
 30
0.0
 10
147.050397
 20
81.911119
 30
0.0
  0
SPLINE
  5
1ae
100
AcDbEntity
  8
Layer_1
 62
3
100
AcDbSpline
 70
8
 71
3
 72
8
 73
4
 74
0
 40
0
 40
0
 40
0
 40
0
 40
1
 40
1
 40
1
 40
1
 10
147.050397
 20
81.911119
 30
0.0
 10
146.810486
 20
81.331924
 30
0.0
 10
146.943098
 20
80.665241
 30
0.0
 10
147.386394
 20
80.221944
 30
0.0
  0
SPLINE
  5
1af
100
AcDbEntity
  8
Layer_1
 62
3
100
AcDbSpline
 70
8
 71
3
 72
8
 73
4
 74
0
 40
0
 40
0
 40
0
 40
0
 40
1
 40
1
 40
1
 40
1
 10
147.386394
 20
80.221944
 30
0.0
 10
147.829691
 20
79.778648
 30
0.0
 10
148.496374
 20
79.646036
 30
0.0
 10
149.075569
 20
79.885947
 30
0.0
  0
SPLINE
  5
1b0
100
AcDbEntity
  8
Layer_1
 62
3
100
AcDbSpline
 70
8
 71
3
 72
8
 73
4
 74
0
 40
0
 40
0
 40
0
 40
0
 40
1
 40
1
 40
1
 40
1
 10
149.075569
 20
79.885947
 30
0.0
 10
149.654765
 20
80.125857
 30
0.0
 10
150.032410
 20
80.691044
 30
0.0
 10
150.032410
 20
81.317960
 30
0.0
  0
SPLINE
  5
1b1
100
AcDbEntity
  8
Layer_1
 62
3
100
AcDbSpline
 70
8
 71
3
 72
8
 73
4
 74
0
 40
0
 40
0
 40
0
 40
0
 40
1
 40
1
 40
1
 40
1
 10
150.032410
 20
81.317960
 30
0.0
 10
150.032410
 20
81.729046
 30
0.0
 10
149.869107
 20
82.123294
 30
0.0
 10
149.578426
 20
82.413976
 30
0.0
  0
SPLINE
  5
1b2
100
AcDbEntity
  8
Layer_1
 62
3
100
AcDbSpline
 70
8
 71
3
 72
8
 73
4
 74
0
 40
0
 40
0
 40
0
 40
0
 40
1
 40
1
 40
1
 40
1
 10
149.578426
 20
82.413976
 30
0.0
 10
149.287744
 20
82.704657
 30
0.0
 10
148.893496
 20
82.867960
 30
0.0
 10
148.482410
 20
82.867960
 30
0.0
  0
LWPOLYLINE
  5
1b3
100
AcDbEntity
  8
Layer_1
 62
3
100
AcDbPolyline
 90
4
 70
1
 10
143.482410
 20
81.317960
 30
0.0
 10
148.482410
 20
81.317960
 30
0.0
 10
148.482410
 20
67.567960
 30
0.0
 10
143.482410
 20
67.567960
 30
0.0
  0
LWPOLYLINE
  5
1b4
100
AcDbEntity
  8
Layer_1
 62
3
100
AcDbPolyline
 90
1
 70
1
 10
148.482410
 20
82.867960
 30
0.0
  0
LWPOLYLINE
  5
1b5
100
AcDbEntity
  8
Layer_1
 62
3
100
AcDbPolyline
 90
4
 70
1
 10
227.288710
 20
109.686290
 30
0.0
 10
247.288710
 20
109.686290
 30
0.0
 10
247.288710
 20
99.686290
 30
0.0
 10
227.288710
 20
99.686290
 30
0.0
  0
LWPOLYLINE
  5
1b6
100
AcDbEntity
  8
Layer_1
 62
3
100
AcDbPolyline
 90
4
 70
1
 10
37.376537
 20
149.220425
 30
0.0
 10
42.376537
 20
149.220425
 30
0.0
 10
42.376537
 20
144.220425
 30
0.0
 10
37.376537
 20
144.220425
 30
0.0
  0
LWPOLYLINE
  5
1b7
100
AcDbEntity
  8
Layer_1
 62
3
100
AcDbPolyline
 90
4
 70
1
 10
37.376537
 20
135.890419
 30
0.0
 10
42.376537
 20
135.890419
 30
0.0
 10
42.376537
 20
130.890419
 30
0.0
 10
37.376537
 20
130.890419
 30
0.0
  0
LWPOLYLINE
  5
1b8
100
AcDbEntity
  8
Layer_1
 62
3
100
AcDbPolyline
 90
4
 70
1
 10
37.376537
 20
109.621250
 30
0.0
 10
42.376537
 20
109.621250
 30
0.0
 10
42.376537
 20
104.621250
 30
0.0
 10
37.376537
 20
104.621250
 30
0.0
  0
LWPOLYLINE
  5
1b9
100
AcDbEntity
  8
Layer_1
 62
3
100
AcDbPolyline
 90
4
 70
1
 10
37.376537
 20
96.291240
 30
0.0
 10
42.376537
 20
96.291240
 30
0.0
 10
42.376537
 20
91.291240
 30
0.0
 10
37.376537
 20
91.291240
 30
0.0
  0
LWPOLYLINE
  5
1ba
100
AcDbEntity
  8
Layer_1
 62
3
100
AcDbPolyline
 90
4
 70
1
 10
76.975197
 20
109.621780
 30
0.0
 10
81.975197
 20
109.621780
 30
0.0
 10
81.975197
 20
104.621780
 30
0.0
 10
76.975197
 20
104.621780
 30
0.0
  0
LWPOLYLINE
  5
1bb
100
AcDbEntity
  8
Layer_1
 62
3
100
AcDbPolyline
 90
4
 70
1
 10
76.975197
 20
96.291780
 30
0.0
 10
81.975197
 20
96.291780
 30
0.0
 10
81.975197
 20
91.291780
 30
0.0
 10
76.975197
 20
91.291780
 30
0.0
  0
LWPOLYLINE
  5
1bc
100
AcDbEntity
  8
Layer_1
 62
3
100
AcDbPolyline
 90
4
 70
1
 10
76.975166
 20
149.219913
 30
0.0
 10
81.975166
 20
149.219913
 30
0.0
 10
81.975166
 20
144.219913
 30
0.0
 10
76.975166
 20
144.219913
 30
0.0
  0
LWPOLYLINE
  5
1bd
100
AcDbEntity
  8
Layer_1
 62
3
100
AcDbPolyline
 90
4
 70
1
 10
76.975166
 20
135.889908
 30
0.0
 10
81.975166
 20
135.889908
 30
0.0
 10
81.975166
 20
130.889908
 30
0.0
 10
76.975166
 20
130.889908
 30
0.0
  0
LWPOLYLINE
  5
1be
100
AcDbEntity
  8
Layer_1
 62
3
100
AcDbPolyline
 90
4
 70
1
 10
91.654457
 20
149.220425
 30
0.0
 10
96.654457
 20
149.220425
 30
0.0
 10
96.654457
 20
144.220425
 30
0.0
 10
91.654457
 20
144.220425
 30
0.0
  0
LWPOLYLINE
  5
1bf
100
AcDbEntity
  8
Layer_1
 62
3
100
AcDbPolyline
 90
4
 70
1
 10
91.654457
 20
135.890419
 30
0.0
 10
96.654457
 20
135.890419
 30
0.0
 10
96.654457
 20
130.890419
 30
0.0
 10
91.654457
 20
130.890419
 30
0.0
  0
LWPOLYLINE
  5
1c0
100
AcDbEntity
  8
Layer_1
 62
3
100
AcDbPolyline
 90
4
 70
1
 10
91.792099
 20
109.621780
 30
0.0
 10
96.792099
 20
109.621780
 30
0.0
 10
96.792099
 20
104.621780
 30
0.0
 10
91.792099
 20
104.621780
 30
0.0
  0
LWPOLYLINE
  5
1c1
100
AcDbEntity
  8
Layer_1
 62
3
100
AcDbPolyline
 90
4
 70
1
 10
91.792099
 20
96.291780
 30
0.0
 10
96.792099
 20
96.291780
 30
0.0
 10
96.792099
 20
91.291780
 30
0.0
 10
91.792099
 20
91.291780
 30
0.0
  0
LWPOLYLINE
  5
1c2
100
AcDbEntity
  8
Layer_1
 62
3
100
AcDbPolyline
 90
4
 70
1
 10
131.253130
 20
109.621780
 30
0.0
 10
136.253130
 20
109.621780
 30
0.0
 10
136.253130
 20
104.621780
 30
0.0
 10
131.253130
 20
104.621780
 30
0.0
  0
LWPOLYLINE
  5
1c3
100
AcDbEntity
  8
Layer_1
 62
3
100
AcDbPolyline
 90
4
 70
1
 10
131.253130
 20
96.291780
 30
0.0
 10
136.253130
 20
96.291780
 30
0.0
 10
136.253130
 20
91.291780
 30
0.0
 10
131.253130
 20
91.291780
 30
0.0
  0
LWPOLYLINE
  5
1c4
100
AcDbEntity
  8
Layer_1
 62
3
100
AcDbPolyline
 90
4
 70
1
 10
131.253220
 20
149.032272
 30
0.0
 10
136.253220
 20
149.032272
 30
0.0
 10
136.253220
 20
144.032272
 30
0.0
 10
131.253220
 20
144.032272
 30
0.0
  0
LWPOLYLINE
  5
1c5
100
AcDbEntity
  8
Layer_1
 62
3
100
AcDbPolyline
 90
4
 70
1
 10
131.253220
 20
135.702263
 30
0.0
 10
136.253220
 20
135.702263
 30
0.0
 10
136.253220
 20
130.702263
 30
0.0
 10
131.253220
 20
130.702263
 30
0.0
  0
LWPOLYLINE
  5
1c6
100
AcDbEntity
  8
Layer_1
 62
3
100
AcDbPolyline
 90
4
 70
1
 10
160.711690
 20
149.220425
 30
0.0
 10
165.711690
 20
149.220425
 30
0.0
 10
165.711690
 20
144.220425
 30
0.0
 10
160.711690
 20
144.220425
 30
0.0
  0
LWPOLYLINE
  5
1c7
100
AcDbEntity
  8
Layer_1
 62
3
100
AcDbPolyline
 90
4
 70
1
 10
160.711690
 20
135.890427
 30
0.0
 10
165.711690
 20
135.890427
 30
0.0
 10
165.711690
 20
130.890427
 30
0.0
 10
160.711690
 20
130.890427
 30
0.0
  0
LWPOLYLINE
  5
1c8
100
AcDbEntity
  8
Layer_1
 62
3
100
AcDbPolyline
 90
4
 70
1
 10
200.310350
 20
149.219913
 30
0.0
 10
205.310350
 20
149.219913
 30
0.0
 10
205.310350
 20
144.219913
 30
0.0
 10
200.310350
 20
144.219913
 30
0.0
  0
LWPOLYLINE
  5
1c9
100
AcDbEntity
  8
Layer_1
 62
3
100
AcDbPolyline
 90
4
 70
1
 10
200.310350
 20
135.889908
 30
0.0
 10
205.310350
 20
135.889908
 30
0.0
 10
205.310350
 20
130.889908
 30
0.0
 10
200.310350
 20
130.889908
 30
0.0
  0
LWPOLYLINE
  5
1ca
100
AcDbEntity
  8
Layer_1
 62
3
100
AcDbPolyline
 90
4
 70
1
 10
200.310380
 20
109.621780
 30
0.0
 10
205.310380
 20
109.621780
 30
0.0
 10
205.310380
 20
104.621780
 30
0.0
 10
200.310380
 20
104.621780
 30
0.0
  0
LWPOLYLINE
  5
1cb
100
AcDbEntity
  8
Layer_1
 62
3
100
AcDbPolyline
 90
4
 70
1
 10
200.310380
 20
96.291780
 30
0.0
 10
205.310380
 20
96.291780
 30
0.0
 10
205.310380
 20
91.291780
 30
0.0
 10
200.310380
 20
91.291780
 30
0.0
  0
LWPOLYLINE
  5
1cc
100
AcDbEntity
  8
Layer_1
 62
3
100
AcDbPolyline
 90
4
 70
1
 10
160.711810
 20
109.433610
 30
0.0
 10
165.711810
 20
109.433610
 30
0.0
 10
165.711810
 20
104.433610
 30
0.0
 10
160.711810
 20
104.433610
 30
0.0
  0
LWPOLYLINE
  5
1cd
100
AcDbEntity
  8
Layer_1
 62
3
100
AcDbPolyline
 90
4
 70
1
 10
160.711810
 20
96.103610
 30
0.0
 10
165.711810
 20
96.103610
 30
0.0
 10
165.711810
 20
91.103610
 30
0.0
 10
160.711810
 20
91.103610
 30
0.0
  0
LWPOLYLINE
  5
1ce
100
AcDbEntity
  8
Layer_1
 62
3
100
AcDbPolyline
 90
4
 70
1
 10
214.989670
 20
109.621250
 30
0.0
 10
219.989670
 20
109.621250
 30
0.0
 10
219.989670
 20
104.621250
 30
0.0
 10
214.989670
 20
104.621250
 30
0.0
  0
LWPOLYLINE
  5
1cf
100
AcDbEntity
  8
Layer_1
 62
3
100
AcDbPolyline
 90
4
 70
1
 10
214.989670
 20
96.291240
 30
0.0
 10
219.989670
 20
96.291240
 30
0.0
 10
219.989670
 20
91.291240
 30
0.0
 10
214.989670
 20
91.291240
 30
0.0
  0
LWPOLYLINE
  5
1d0
100
AcDbEntity
  8
Layer_1
 62
3
100
AcDbPolyline
 90
4
 70
1
 10
214.989640
 20
149.220421
 30
0.0
 10
219.989640
 20
149.220421
 30
0.0
 10
219.989640
 20
144.220421
 30
0.0
 10
214.989640
 20
144.220421
 30
0.0
  0
LWPOLYLINE
  5
1d1
100
AcDbEntity
  8
Layer_1
 62
3
100
AcDbPolyline
 90
4
 70
1
 10
214.989640
 20
135.890419
 30
0.0
 10
219.989640
 20
135.890419
 30
0.0
 10
219.989640
 20
130.890419
 30
0.0
 10
214.989640
 20
130.890419
 30
0.0
  0
LWPOLYLINE
  5
1d2
100
AcDbEntity
  8
Layer_1
 62
3
100
AcDbPolyline
 90
4
 70
1
 10
254.588350
 20
149.219913
 30
0.0
 10
259.588350
 20
149.219913
 30
0.0
 10
259.588350
 20
144.219913
 30
0.0
 10
254.588350
 20
144.219913
 30
0.0
  0
LWPOLYLINE
  5
1d3
100
AcDbEntity
  8
Layer_1
 62
3
100
AcDbPolyline
 90
4
 70
1
 10
254.588350
 20
135.889908
 30
0.0
 10
259.588350
 20
135.889908
 30
0.0
 10
259.588350
 20
130.889908
 30
0.0
 10
254.588350
 20
130.889908
 30
0.0
  0
LWPOLYLINE
  5
1d4
100
AcDbEntity
  8
Layer_1
 62
3
100
AcDbPolyline
 90
4
 70
1
 10
254.588440
 20
109.434140
 30
0.0
 10
259.588440
 20
109.434140
 30
0.0
 10
259.588440
 20
104.434140
 30
0.0
 10
254.588440
 20
104.434140
 30
0.0
  0
LWPOLYLINE
  5
1d5
100
AcDbEntity
  8
Layer_1
 62
3
100
AcDbPolyline
 90
4
 70
1
 10
254.588440
 20
96.104130
 30
0.0
 10
259.588440
 20
96.104130
 30
0.0
 10
259.588440
 20
91.104130
 30
0.0
 10
254.588440
 20
91.104130
 30
0.0
  0
LWPOLYLINE
  5
1d6
100
AcDbEntity
  8
Layer_1
 62
3
100
AcDbPolyline
 90
4
 70
1
 10
69.028755
 20
162.166847
 30
0.0
 10
69.028755
 20
157.166847
 30
0.0
 10
64.028755
 20
157.166847
 30
0.0
 10
64.028755
 20
162.166847
 30
0.0
  0
LWPOLYLINE
  5
1d7
100
AcDbEntity
  8
Layer_1
 62
3
100
AcDbPolyline
 90
4
 70
1
 10
55.698772
 20
162.166847
 30
0.0
 10
55.698772
 20
157.166847
 30
0.0
 10
50.698772
 20
157.166847
 30
0.0
 10
50.698772
 20
162.166847
 30
0.0
  0
LWPOLYLINE
  5
1d8
100
AcDbEntity
  8
Layer_1
 62
3
100
AcDbPolyline
 90
4
 70
1
 10
68.840584
 20
122.568275
 30
0.0
 10
68.840584
 20
117.568275
 30
0.0
 10
63.840584
 20
117.568275
 30
0.0
 10
63.840584
 20
122.568275
 30
0.0
  0
LWPOLYLINE
  5
1d9
100
AcDbEntity
  8
Layer_1
 62
3
100
AcDbPolyline
 90
4
 70
1
 10
55.510601
 20
122.568275
 30
0.0
 10
55.510601
 20
117.568275
 30
0.0
 10
50.510601
 20
117.568275
 30
0.0
 10
50.510601
 20
122.568275
 30
0.0
  0
LWPOLYLINE
  5
1da
100
AcDbEntity
  8
Layer_1
 62
3
100
AcDbPolyline
 90
4
 70
1
 10
68.840584
 20
82.969470
 30
0.0
 10
68.840584
 20
77.969470
 30
0.0
 10
63.840584
 20
77.969470
 30
0.0
 10
63.840584
 20
82.969470
 30
0.0
  0
LWPOLYLINE
  5
1db
100
AcDbEntity
  8
Layer_1
 62
3
100
AcDbPolyline
 90
4
 70
1
 10
55.510601
 20
82.969470
 30
0.0
 10
55.510601
 20
77.969470
 30
0.0
 10
50.510601
 20
77.969470
 30
0.0
 10
50.510601
 20
82.969470
 30
0.0
  0
LWPOLYLINE
  5
1dc
100
AcDbEntity
  8
Layer_1
 62
3
100
AcDbPolyline
 90
4
 70
1
 10
123.118540
 20
82.969470
 30
0.0
 10
123.118540
 20
77.969470
 30
0.0
 10
118.118540
 20
77.969470
 30
0.0
 10
118.118540
 20
82.969470
 30
0.0
  0
LWPOLYLINE
  5
1dd
100
AcDbEntity
  8
Layer_1
 62
3
100
AcDbPolyline
 90
4
 70
1
 10
109.788530
 20
82.969470
 30
0.0
 10
109.788530
 20
77.969470
 30
0.0
 10
104.788530
 20
77.969470
 30
0.0
 10
104.788530
 20
82.969470
 30
0.0
  0
LWPOLYLINE
  5
1de
100
AcDbEntity
  8
Layer_1
 62
3
100
AcDbPolyline
 90
4
 70
1
 10
123.118540
 20
122.568108
 30
0.0
 10
123.118540
 20
117.568108
 30
0.0
 10
118.118540
 20
117.568108
 30
0.0
 10
118.118540
 20
122.568108
 30
0.0
  0
LWPOLYLINE
  5
1df
100
AcDbEntity
  8
Layer_1
 62
3
100
AcDbPolyline
 90
4
 70
1
 10
109.788530
 20
122.568108
 30
0.0
 10
109.788530
 20
117.568108
 30
0.0
 10
104.788530
 20
117.568108
 30
0.0
 10
104.788530
 20
122.568108
 30
0.0
  0
LWPOLYLINE
  5
1e0
100
AcDbEntity
  8
Layer_1
 62
3
100
AcDbPolyline
 90
4
 70
1
 10
123.119090
 20
162.166759
 30
0.0
 10
123.119090
 20
157.166759
 30
0.0
 10
118.119090
 20
157.166759
 30
0.0
 10
118.119090
 20
162.166759
 30
0.0
  0
LWPOLYLINE
  5
1e1
100
AcDbEntity
  8
Layer_1
 62
3
100
AcDbPolyline
 90
4
 70
1
 10
109.789110
 20
162.166759
 30
0.0
 10
109.789110
 20
157.166759
 30
0.0
 10
104.789110
 20
157.166759
 30
0.0
 10
104.789110
 20
162.166759
 30
0.0
  0
LWPOLYLINE
  5
1e2
100
AcDbEntity
  8
Layer_1
 62
3
100
AcDbPolyline
 90
4
 70
1
 10
192.176280
 20
162.166763
 30
0.0
 10
192.176280
 20
157.166763
 30
0.0
 10
187.176280
 20
157.166763
 30
0.0
 10
187.176280
 20
162.166763
 30
0.0
  0
LWPOLYLINE
  5
1e3
100
AcDbEntity
  8
Layer_1
 62
3
100
AcDbPolyline
 90
4
 70
1
 10
178.846300
 20
162.166763
 30
0.0
 10
178.846300
 20
157.166763
 30
0.0
 10
173.846300
 20
157.166763
 30
0.0
 10
173.846300
 20
162.166763
 30
0.0
  0
LWPOLYLINE
  5
1e4
100
AcDbEntity
  8
Layer_1
 62
3
100
AcDbPolyline
 90
4
 70
1
 10
192.363420
 20
122.568192
 30
0.0
 10
192.363420
 20
117.568192
 30
0.0
 10
187.363420
 20
117.568192
 30
0.0
 10
187.363420
 20
122.568192
 30
0.0
  0
LWPOLYLINE
  5
1e5
100
AcDbEntity
  8
Layer_1
 62
3
100
AcDbPolyline
 90
4
 70
1
 10
179.033400
 20
122.568192
 30
0.0
 10
179.033400
 20
117.568192
 30
0.0
 10
174.033400
 20
117.568192
 30
0.0
 10
174.033400
 20
122.568192
 30
0.0
  0
LWPOLYLINE
  5
1e6
100
AcDbEntity
  8
Layer_1
 62
3
100
AcDbPolyline
 90
4
 70
1
 10
192.363390
 20
82.969540
 30
0.0
 10
192.363390
 20
77.969540
 30
0.0
 10
187.363390
 20
77.969540
 30
0.0
 10
187.363390
 20
82.969540
 30
0.0
  0
LWPOLYLINE
  5
1e7
100
AcDbEntity
  8
Layer_1
 62
3
100
AcDbPolyline
 90
4
 70
1
 10
179.033400
 20
82.969540
 30
0.0
 10
179.033400
 20
77.969540
 30
0.0
 10
174.033400
 20
77.969540
 30
0.0
 10
174.033400
 20
82.969540
 30
0.0
  0
LWPOLYLINE
  5
1e8
100
AcDbEntity
  8
Layer_1
 62
3
100
AcDbPolyline
 90
4
 70
1
 10
246.453740
 20
82.969630
 30
0.0
 10
246.453740
 20
77.969630
 30
0.0
 10
241.453740
 20
77.969630
 30
0.0
 10
241.453740
 20
82.969630
 30
0.0
  0
LWPOLYLINE
  5
1e9
100
AcDbEntity
  8
Layer_1
 62
3
100
AcDbPolyline
 90
4
 70
1
 10
233.123700
 20
82.969630
 30
0.0
 10
233.123700
 20
77.969630
 30
0.0
 10
228.123700
 20
77.969630
 30
0.0
 10
228.123700
 20
82.969630
 30
0.0
  0
LWPOLYLINE
  5
1ea
100
AcDbEntity
  8
Layer_1
 62
3
100
AcDbPolyline
 90
4
 70
1
 10
246.453740
 20
122.568108
 30
0.0
 10
246.453740
 20
117.568108
 30
0.0
 10
241.453740
 20
117.568108
 30
0.0
 10
241.453740
 20
122.568108
 30
0.0
  0
LWPOLYLINE
  5
1eb
100
AcDbEntity
  8
Layer_1
 62
3
100
AcDbPolyline
 90
4
 70
1
 10
233.123700
 20
122.568108
 30
0.0
 10
233.123700
 20
117.568108
 30
0.0
 10
228.123700
 20
117.568108
 30
0.0
 10
228.123700
 20
122.568108
 30
0.0
  0
LWPOLYLINE
  5
1ec
100
AcDbEntity
  8
Layer_1
 62
3
100
AcDbPolyline
 90
4
 70
1
 10
246.454250
 20
162.166763
 30
0.0
 10
246.454250
 20
157.166763
 30
0.0
 10
241.454250
 20
157.166763
 30
0.0
 10
241.454250
 20
162.166763
 30
0.0
  0
LWPOLYLINE
  5
1ed
100
AcDbEntity
  8
Layer_1
 62
3
100
AcDbPolyline
 90
4
 70
1
 10
233.124220
 20
162.166763
 30
0.0
 10
233.124220
 20
157.166763
 30
0.0
 10
228.124220
 20
157.166763
 30
0.0
 10
228.124220
 20
162.166763
 30
0.0
  0
ENDSEC
  0
SECTION
  2
OBJECTS
  0
DICTIONARY
  5
C
330
0
100
AcDbDictionary
  3
ACAD_GROUP
350
D
  3
ACAD_MLINESTYLE
350
17
  0
DICTIONARY
  5
D
330
C
100
AcDbDictionary
  0
DICTIONARY
  5
1A
330
C
100
AcDbDictionary
  0
DICTIONARY
  5
17
330
C
100
AcDbDictionary
  3
STANDARD
350
18
  0
DICTIONARY
  5
19
330
C
100
AcDbDictionary
  0
ENDSEC
  0
EOF
