  0
SECTION
  2
HEADER
  9
$ACADVER
  1
AC1014
  9
$HANDSEED
  5
FFFF
  9
$MEASUREMENT
 70
     1
  0
ENDSEC
  0
SECTION
  2
TABLES
  0
TABLE
  2
VPORT
  5
8
330
0
100
AcDbSymbolTable
 70
     4
  0
VPORT
  5
2E
330
8
100
AcDbSymbolTableRecord
100
AcDbViewportTableRecord
  2
*ACTIVE
 70
     0
 10
0.0
 20
0.0
 11
1.0
 21
1.0
 12
210.0
 22
148.5
 13
0.0
 23
0.0
 14
10.0
 24
10.0
 15
10.0
 25
10.0
 16
0.0
 26
0.0
 36
1.0
 17
0.0
 27
0.0
 37
0.0
 40
341.0
 41
1.24
 42
50.0
 43
0.0
 44
0.0
 50
0.0
 51
0.0
 71
     0
 72
   100
 73
     1
 74
     3
 75
     0
 76
     0
 77
     0
 78
     0
  0
ENDTAB
  0
TABLE
  2
LTYPE
  5
5
330
0
100
AcDbSymbolTable
 70
     1
  0
LTYPE
  5
14
330
5
100
AcDbSymbolTableRecord
100
AcDbLinetypeTableRecord
  2
BYBLOCK
 70
     0
  3

 72
    65
 73
     0
 40
0.0
  0
LTYPE
  5
15
330
5
100
AcDbSymbolTableRecord
100
AcDbLinetypeTableRecord
  2
BYLAYER
 70
     0
  3

 72
    65
 73
     0
 40
0.0
  0
LTYPE
  5
16
330
5
100
AcDbSymbolTableRecord
100
AcDbLinetypeTableRecord
  2
CONTINUOUS
 70
     0
  3
Solid line
 72
    65
 73
     0
 40
0.0
  0
ENDTAB
  0
TABLE
  2
LAYER
  5
2
100
AcDbSymbolTable
 70
2
  0
LAYER
  5
50
100
AcDbSymbolTableRecord
100
AcDbLayerTableRecord
  2
0
 70
0
  6
CONTINUOUS
  0
LAYER
  5
51
100
AcDbSymbolTableRecord
100
AcDbLayerTableRecord
  2
Layer_1
 70
0
  6
CONTINUOUS
  0
ENDTAB
  0
TABLE
  2
STYLE
  5
3
330
0
100
AcDbSymbolTable
 70
     1
  0
STYLE
  5
11
330
3
100
AcDbSymbolTableRecord
100
AcDbTextStyleTableRecord
  2
STANDARD
 70
     0
 40
0.0
 41
1.0
 50
0.0
 71
     0
 42
2.5
  3
txt
  4

  0
ENDTAB
  0
TABLE
  2
VIEW
  5
6
330
0
100
AcDbSymbolTable
 70
     0
  0
ENDTAB
  0
TABLE
  2
UCS
  5
7
330
0
100
AcDbSymbolTable
 70
     0
  0
ENDTAB
  0
TABLE
  2
APPID
  5
9
330
0
100
AcDbSymbolTable
 70
     2
  0
APPID
  5
12
330
9
100
AcDbSymbolTableRecord
100
AcDbRegAppTableRecord
  2
ACAD
 70
     0
  0
ENDTAB
  0
TABLE
  2
DIMSTYLE
  5
A
330
0
100
AcDbSymbolTable
 70
     1
  0
DIMSTYLE
105
27
330
A
100
AcDbSymbolTableRecord
100
AcDbDimStyleTableRecord
  2
ISO-25
 70
     0
  3

  4

  5

  6

  7

 40
1.0
 41
2.5
 42
0.625
 43
3.75
 44
1.25
 45
0.0
 46
0.0
 47
0.0
 48
0.0
140
2.5
141
2.5
142
0.0
143
0.03937007874016
144
1.0
145
0.0
146
1.0
147
0.625
 71
     0
 72
     0
 73
     0
 74
     0
 75
     0
 76
     0
 77
     1
 78
     8
170
     0
171
     3
172
     1
173
     0
174
     0
175
     0
176
     0
177
     0
178
     0
270
     2
271
     2
272
     2
273
     2
274
     3
340
11
275
     0
280
     0
281
     0
282
     0
283
     0
284
     8
285
     0
286
     0
287
     3
288
     0
  0
ENDTAB
  0
TABLE
  2
BLOCK_RECORD
  5
1
330
0
100
AcDbSymbolTable
 70
     1
  0
BLOCK_RECORD
  5
1F
330
1
100
AcDbSymbolTableRecord
100
AcDbBlockTableRecord
  2
*MODEL_SPACE
  0
BLOCK_RECORD
  5
1B
330
1
100
AcDbSymbolTableRecord
100
AcDbBlockTableRecord
  2
*PAPER_SPACE
  0
ENDTAB
  0
ENDSEC
  0
SECTION
  2
BLOCKS
  0
BLOCK
  5
20
330
1F
100
AcDbEntity
  8
0
100
AcDbBlockBegin
  2
*MODEL_SPACE
 70
     0
 10
0.0
 20
0.0
 30
0.0
  3
*MODEL_SPACE
  1

  0
ENDBLK
  5
21
330
1F
100
AcDbEntity
  8
0
100
AcDbBlockEnd
  0
BLOCK
  5
1C
330
1B
100
AcDbEntity
 67
     1
  8
0
100
AcDbBlockBegin
  2
*PAPER_SPACE
  1

  0
ENDBLK
  5
1D
330
1B
100
AcDbEntity
 67
     1
  8
0
100
AcDbBlockEnd
  0
ENDSEC
  0
SECTION
  2
ENTITIES
  0
LWPOLYLINE
  5
100
100
AcDbEntity
  8
Layer_1
 62
3
100
AcDbPolyline
 90
6
 70
1
 10
51.598274
 20
69.061220
 30
0.0
 10
47.672934
 20
65.135880
 30
0.0
 10
51.598274
 20
61.211060
 30
0.0
 10
79.113394
 20
61.211060
 30
0.0
 10
83.038214
 20
65.135880
 30
0.0
 10
79.113394
 20
69.061220
 30
0.0
  0
LWPOLYLINE
  5
101
100
AcDbEntity
  8
Layer_1
 62
3
100
AcDbPolyline
 90
6
 70
1
 10
41.631424
 20
71.177900
 30
0.0
 10
45.556764
 20
67.252560
 30
0.0
 10
49.481594
 20
71.177900
 30
0.0
 10
49.481594
 20
98.693020
 30
0.0
 10
45.556764
 20
102.617840
 30
0.0
 10
41.631424
 20
98.693020
 30
0.0
  0
LWPOLYLINE
  5
102
100
AcDbEntity
  8
Layer_1
 62
3
100
AcDbPolyline
 90
6
 70
1
 10
89.080244
 20
98.693020
 30
0.0
 10
85.154904
 20
102.618370
 30
0.0
 10
81.230074
 20
98.693020
 30
0.0
 10
81.230074
 20
71.177900
 30
0.0
 10
85.154904
 20
67.253080
 30
0.0
 10
89.080244
 20
71.177900
 30
0.0
  0
LWPOLYLINE
  5
103
100
AcDbEntity
  8
Layer_1
 62
3
100
AcDbPolyline
 90
6
 70
1
 10
51.598274
 20
108.659870
 30
0.0
 10
47.672934
 20
104.734530
 30
0.0
 10
51.598274
 20
100.809700
 30
0.0
 10
79.113394
 20
100.809700
 30
0.0
 10
83.038214
 20
104.734530
 30
0.0
 10
79.113394
 20
108.659870
 30
0.0
  0
LWPOLYLINE
  5
104
100
AcDbEntity
  8
Layer_1
 62
3
100
AcDbPolyline
 90
6
 70
1
 10
51.598794
 20
148.258521
 30
0.0
 10
47.673444
 20
144.333181
 30
0.0
 10
51.598794
 20
140.408351
 30
0.0
 10
79.113914
 20
140.408351
 30
0.0
 10
83.038734
 20
144.333181
 30
0.0
 10
79.113914
 20
148.258521
 30
0.0
  0
LWPOLYLINE
  5
105
100
AcDbEntity
  8
Layer_1
 62
3
100
AcDbPolyline
 90
6
 70
1
 10
81.230074
 20
110.776551
 30
0.0
 10
85.155414
 20
106.851210
 30
0.0
 10
89.080244
 20
110.776551
 30
0.0
 10
89.080244
 20
138.291671
 30
0.0
 10
85.155414
 20
142.216501
 30
0.0
 10
81.230074
 20
138.291671
 30
0.0
  0
LWPOLYLINE
  5
106
100
AcDbEntity
  8
Layer_1
 62
3
100
AcDbPolyline
 90
6
 70
1
 10
49.481594
 20
138.291671
 30
0.0
 10
45.556254
 20
142.217011
 30
0.0
 10
41.631424
 20
138.291671
 30
0.0
 10
41.631424
 20
110.776551
 30
0.0
 10
45.556254
 20
106.851730
 30
0.0
 10
49.481594
 20
110.776551
 30
0.0
  0
LWPOLYLINE
  5
107
100
AcDbEntity
  8
Layer_1
 62
3
100
AcDbPolyline
 90
6
 70
1
 10
105.876220
 20
69.061220
 30
0.0
 10
101.950880
 20
65.135880
 30
0.0
 10
105.876220
 20
61.211060
 30
0.0
 10
133.391350
 20
61.211060
 30
0.0
 10
137.316170
 20
65.135880
 30
0.0
 10
133.391350
 20
69.061220
 30
0.0
  0
LWPOLYLINE
  5
108
100
AcDbEntity
  8
Layer_1
 62
3
100
AcDbPolyline
 90
6
 70
1
 10
98.025804
 20
73.294850
 30
0.0
 10
101.951140
 20
69.369510
 30
0.0
 10
105.875970
 20
73.294850
 30
0.0
 10
105.875970
 20
100.809970
 30
0.0
 10
101.951140
 20
104.734790
 30
0.0
 10
98.025804
 20
100.809970
 30
0.0
  0
LWPOLYLINE
  5
109
100
AcDbEntity
  8
Layer_1
 62
3
100
AcDbPolyline
 90
6
 70
1
 10
143.358190
 20
98.693020
 30
0.0
 10
139.432850
 20
102.618370
 30
0.0
 10
135.508020
 20
98.693020
 30
0.0
 10
135.508020
 20
71.177900
 30
0.0
 10
139.432850
 20
67.253080
 30
0.0
 10
143.358190
 20
71.177900
 30
0.0
  0
LWPOLYLINE
  5
10a
100
AcDbEntity
  8
Layer_1
 62
3
100
AcDbPolyline
 90
6
 70
1
 10
105.876220
 20
108.659870
 30
0.0
 10
101.950880
 20
104.734530
 30
0.0
 10
105.876220
 20
100.809700
 30
0.0
 10
133.391350
 20
100.809700
 30
0.0
 10
137.316170
 20
104.734530
 30
0.0
 10
133.391350
 20
108.659870
 30
0.0
  0
LWPOLYLINE
  5
10b
100
AcDbEntity
  8
Layer_1
 62
3
100
AcDbPolyline
 90
6
 70
1
 10
105.876740
 20
148.258521
 30
0.0
 10
101.951400
 20
144.333181
 30
0.0
 10
105.876740
 20
140.408351
 30
0.0
 10
133.391870
 20
140.408351
 30
0.0
 10
137.316690
 20
144.333181
 30
0.0
 10
133.391870
 20
148.258521
 30
0.0
  0
LWPOLYLINE
  5
10c
100
AcDbEntity
  8
Layer_1
 62
3
100
AcDbPolyline
 90
6
 70
1
 10
135.508020
 20
110.776551
 30
0.0
 10
139.433360
 20
106.851210
 30
0.0
 10
143.358190
 20
110.776551
 30
0.0
 10
143.358190
 20
138.291671
 30
0.0
 10
139.433360
 20
142.216501
 30
0.0
 10
135.508020
 20
138.291671
 30
0.0
  0
LWPOLYLINE
  5
10d
100
AcDbEntity
  8
Layer_1
 62
3
100
AcDbPolyline
 90
6
 70
1
 10
103.759540
 20
138.291671
 30
0.0
 10
99.834204
 20
142.217011
 30
0.0
 10
95.909374
 20
138.291671
 30
0.0
 10
95.909374
 20
110.776551
 30
0.0
 10
99.834204
 20
106.851730
 30
0.0
 10
103.759540
 20
110.776551
 30
0.0
  0
LWPOLYLINE
  5
10e
100
AcDbEntity
  8
Layer_1
 62
3
100
AcDbPolyline
 90
6
 70
1
 10
174.933430
 20
69.061220
 30
0.0
 10
171.008090
 20
65.135880
 30
0.0
 10
174.933430
 20
61.211060
 30
0.0
 10
202.448550
 20
61.211060
 30
0.0
 10
206.373370
 20
65.135880
 30
0.0
 10
202.448550
 20
69.061220
 30
0.0
  0
LWPOLYLINE
  5
10f
100
AcDbEntity
  8
Layer_1
 62
3
100
AcDbPolyline
 90
6
 70
1
 10
164.966580
 20
71.177900
 30
0.0
 10
168.891920
 20
67.252560
 30
0.0
 10
172.816750
 20
71.177900
 30
0.0
 10
172.816750
 20
98.693020
 30
0.0
 10
168.891920
 20
102.617840
 30
0.0
 10
164.966580
 20
98.693020
 30
0.0
  0
LWPOLYLINE
  5
110
100
AcDbEntity
  8
Layer_1
 62
3
100
AcDbPolyline
 90
6
 70
1
 10
212.415400
 20
98.693020
 30
0.0
 10
208.490060
 20
102.618370
 30
0.0
 10
204.565230
 20
98.693020
 30
0.0
 10
204.565230
 20
71.177900
 30
0.0
 10
208.490060
 20
67.253080
 30
0.0
 10
212.415400
 20
71.177900
 30
0.0
  0
LWPOLYLINE
  5
111
100
AcDbEntity
  8
Layer_1
 62
3
100
AcDbPolyline
 90
6
 70
1
 10
174.933430
 20
108.659870
 30
0.0
 10
171.008090
 20
104.734530
 30
0.0
 10
174.933430
 20
100.809700
 30
0.0
 10
202.448550
 20
100.809700
 30
0.0
 10
206.373370
 20
104.734530
 30
0.0
 10
202.448550
 20
108.659870
 30
0.0
  0
LWPOLYLINE
  5
112
100
AcDbEntity
  8
Layer_1
 62
3
100
AcDbPolyline
 90
6
 70
1
 10
174.933950
 20
148.258521
 30
0.0
 10
171.008600
 20
144.333181
 30
0.0
 10
174.933950
 20
140.408351
 30
0.0
 10
202.449070
 20
140.408351
 30
0.0
 10
206.373890
 20
144.333181
 30
0.0
 10
202.449070
 20
148.258521
 30
0.0
  0
LWPOLYLINE
  5
113
100
AcDbEntity
  8
Layer_1
 62
3
100
AcDbPolyline
 90
6
 70
1
 10
204.565230
 20
110.776551
 30
0.0
 10
208.490570
 20
106.851210
 30
0.0
 10
212.415400
 20
110.776551
 30
0.0
 10
212.415400
 20
138.291671
 30
0.0
 10
208.490570
 20
142.216501
 30
0.0
 10
204.565230
 20
138.291671
 30
0.0
  0
LWPOLYLINE
  5
114
100
AcDbEntity
  8
Layer_1
 62
3
100
AcDbPolyline
 90
6
 70
1
 10
172.816750
 20
138.291671
 30
0.0
 10
168.891410
 20
142.217011
 30
0.0
 10
164.966580
 20
138.291671
 30
0.0
 10
164.966580
 20
110.776551
 30
0.0
 10
168.891410
 20
106.851730
 30
0.0
 10
172.816750
 20
110.776551
 30
0.0
  0
LWPOLYLINE
  5
115
100
AcDbEntity
  8
Layer_1
 62
3
100
AcDbPolyline
 90
6
 70
1
 10
229.211390
 20
69.061220
 30
0.0
 10
225.286050
 20
65.135880
 30
0.0
 10
229.211390
 20
61.211060
 30
0.0
 10
256.726510
 20
61.211060
 30
0.0
 10
260.651330
 20
65.135880
 30
0.0
 10
256.726510
 20
69.061220
 30
0.0
  0
LWPOLYLINE
  5
116
100
AcDbEntity
  8
Layer_1
 62
3
100
AcDbPolyline
 90
6
 70
1
 10
219.244530
 20
71.177900
 30
0.0
 10
223.169870
 20
67.252560
 30
0.0
 10
227.094700
 20
71.177900
 30
0.0
 10
227.094700
 20
98.693020
 30
0.0
 10
223.169870
 20
102.617840
 30
0.0
 10
219.244530
 20
98.693020
 30
0.0
  0
LWPOLYLINE
  5
117
100
AcDbEntity
  8
Layer_1
 62
3
100
AcDbPolyline
 90
6
 70
1
 10
266.693360
 20
98.693020
 30
0.0
 10
262.768020
 20
102.618370
 30
0.0
 10
258.843190
 20
98.693020
 30
0.0
 10
258.843190
 20
71.177900
 30
0.0
 10
262.768020
 20
67.253080
 30
0.0
 10
266.693360
 20
71.177900
 30
0.0
  0
LWPOLYLINE
  5
118
100
AcDbEntity
  8
Layer_1
 62
3
100
AcDbPolyline
 90
6
 70
1
 10
229.211390
 20
108.659870
 30
0.0
 10
225.286050
 20
104.734530
 30
0.0
 10
229.211390
 20
100.809700
 30
0.0
 10
256.726510
 20
100.809700
 30
0.0
 10
260.651330
 20
104.734530
 30
0.0
 10
256.726510
 20
108.659870
 30
0.0
  0
LWPOLYLINE
  5
119
100
AcDbEntity
  8
Layer_1
 62
3
100
AcDbPolyline
 90
6
 70
1
 10
229.211910
 20
148.258521
 30
0.0
 10
225.286560
 20
144.333181
 30
0.0
 10
229.211910
 20
140.408351
 30
0.0
 10
256.727030
 20
140.408351
 30
0.0
 10
260.651850
 20
144.333181
 30
0.0
 10
256.727030
 20
148.258521
 30
0.0
  0
LWPOLYLINE
  5
11a
100
AcDbEntity
  8
Layer_1
 62
3
100
AcDbPolyline
 90
6
 70
1
 10
258.843190
 20
110.776551
 30
0.0
 10
262.768530
 20
106.851210
 30
0.0
 10
266.693360
 20
110.776551
 30
0.0
 10
266.693360
 20
138.291671
 30
0.0
 10
262.768530
 20
142.216501
 30
0.0
 10
258.843190
 20
138.291671
 30
0.0
  0
SPLINE
  5
11b
100
AcDbEntity
  8
Layer_1
 62
3
100
AcDbSpline
 70
8
 71
3
 72
8
 73
4
 74
0
 40
0
 40
0
 40
0
 40
0
 40
1
 40
1
 40
1
 40
1
 10
154.161900
 20
126.627354
 30
0.0
 10
151.994182
 20
126.627354
 30
0.0
 10
150.236900
 20
124.870072
 30
0.0
 10
150.236900
 20
122.702354
 30
0.0
  0
SPLINE
  5
11c
100
AcDbEntity
  8
Layer_1
 62
3
100
AcDbSpline
 70
8
 71
3
 72
8
 73
4
 74
0
 40
0
 40
0
 40
0
 40
0
 40
1
 40
1
 40
1
 40
1
 10
150.236900
 20
122.702354
 30
0.0
 10
150.236900
 20
120.534636
 30
0.0
 10
151.994182
 20
118.777354
 30
0.0
 10
154.161900
 20
118.777354
 30
0.0
  0
SPLINE
  5
11d
100
AcDbEntity
  8
Layer_1
 62
3
100
AcDbSpline
 70
8
 71
3
 72
8
 73
4
 74
0
 40
0
 40
0
 40
0
 40
0
 40
1
 40
1
 40
1
 40
1
 10
154.161900
 20
118.777354
 30
0.0
 10
156.329618
 20
118.777354
 30
0.0
 10
158.086900
 20
120.534636
 30
0.0
 10
158.086900
 20
122.702354
 30
0.0
  0
SPLINE
  5
11e
100
AcDbEntity
  8
Layer_1
 62
3
100
AcDbSpline
 70
8
 71
3
 72
8
 73
4
 74
0
 40
0
 40
0
 40
0
 40
0
 40
1
 40
1
 40
1
 40
1
 10
158.086900
 20
122.702354
 30
0.0
 10
158.086900
 20
123.743329
 30
0.0
 10
157.673374
 20
124.741668
 30
0.0
 10
156.937294
 20
125.477748
 30
0.0
  0
SPLINE
  5
11f
100
AcDbEntity
  8
Layer_1
 62
3
100
AcDbSpline
 70
8
 71
3
 72
8
 73
4
 74
0
 40
0
 40
0
 40
0
 40
0
 40
1
 40
1
 40
1
 40
1
 10
156.937294
 20
125.477748
 30
0.0
 10
156.201214
 20
126.213828
 30
0.0
 10
155.202875
 20
126.627354
 30
0.0
 10
154.161900
 20
126.627354
 30
0.0
  0
LWPOLYLINE
  5
120
100
AcDbEntity
  8
Layer_1
 62
3
100
AcDbPolyline
 90
6
 70
1
 10
227.094700
 20
138.291671
 30
0.0
 10
223.169360
 20
142.217011
 30
0.0
 10
219.244530
 20
138.291671
 30
0.0
 10
219.244530
 20
110.776551
 30
0.0
 10
223.169360
 20
106.851730
 30
0.0
 10
227.094700
 20
110.776551
 30
0.0
  0
SPLINE
  5
121
100
AcDbEntity
  8
Layer_1
 62
3
100
AcDbSpline
 70
8
 71
3
 72
8
 73
4
 74
0
 40
0
 40
0
 40
0
 40
0
 40
1
 40
1
 40
1
 40
1
 10
154.161900
 20
90.692230
 30
0.0
 10
151.994182
 20
90.692230
 30
0.0
 10
150.236900
 20
88.934948
 30
0.0
 10
150.236900
 20
86.767230
 30
0.0
  0
SPLINE
  5
122
100
AcDbEntity
  8
Layer_1
 62
3
100
AcDbSpline
 70
8
 71
3
 72
8
 73
4
 74
0
 40
0
 40
0
 40
0
 40
0
 40
1
 40
1
 40
1
 40
1
 10
150.236900
 20
86.767230
 30
0.0
 10
150.236900
 20
84.599512
 30
0.0
 10
151.994182
 20
82.842230
 30
0.0
 10
154.161900
 20
82.842230
 30
0.0
  0
SPLINE
  5
123
100
AcDbEntity
  8
Layer_1
 62
3
100
AcDbSpline
 70
8
 71
3
 72
8
 73
4
 74
0
 40
0
 40
0
 40
0
 40
0
 40
1
 40
1
 40
1
 40
1
 10
154.161900
 20
82.842230
 30
0.0
 10
156.329618
 20
82.842230
 30
0.0
 10
158.086900
 20
84.599512
 30
0.0
 10
158.086900
 20
86.767230
 30
0.0
  0
SPLINE
  5
124
100
AcDbEntity
  8
Layer_1
 62
3
100
AcDbSpline
 70
8
 71
3
 72
8
 73
4
 74
0
 40
0
 40
0
 40
0
 40
0
 40
1
 40
1
 40
1
 40
1
 10
158.086900
 20
86.767230
 30
0.0
 10
158.086900
 20
87.808205
 30
0.0
 10
157.673374
 20
88.806544
 30
0.0
 10
156.937294
 20
89.542624
 30
0.0
  0
SPLINE
  5
125
100
AcDbEntity
  8
Layer_1
 62
3
100
AcDbSpline
 70
8
 71
3
 72
8
 73
4
 74
0
 40
0
 40
0
 40
0
 40
0
 40
1
 40
1
 40
1
 40
1
 10
156.937294
 20
89.542624
 30
0.0
 10
156.201214
 20
90.278704
 30
0.0
 10
155.202875
 20
90.692230
 30
0.0
 10
154.161900
 20
90.692230
 30
0.0
  0
LWPOLYLINE
  5
126
100
AcDbEntity
  8
Layer_1
 62
3
100
AcDbPolyline
 90
1
 70
1
 10
154.161900
 20
126.627354
 30
0.0
  0
LWPOLYLINE
  5
127
100
AcDbEntity
  8
Layer_1
 62
3
100
AcDbPolyline
 90
1
 70
1
 10
154.161900
 20
90.692230
 30
0.0
  0
SPLINE
  5
128
100
AcDbEntity
  8
Layer_1
 62
3
100
AcDbSpline
 70
8
 71
3
 72
8
 73
4
 74
0
 40
0
 40
0
 40
0
 40
0
 40
1
 40
1
 40
1
 40
1
 10
258.162380
 20
157.234531
 30
0.0
 10
263.466710
 20
157.234531
 30
0.0
 10
268.553788
 20
155.127394
 30
0.0
 10
272.304516
 20
151.376667
 30
0.0
  0
SPLINE
  5
129
100
AcDbEntity
  8
Layer_1
 62
3
100
AcDbSpline
 70
8
 71
3
 72
8
 73
4
 74
0
 40
0
 40
0
 40
0
 40
0
 40
1
 40
1
 40
1
 40
1
 10
272.304516
 20
151.376667
 30
0.0
 10
276.055243
 20
147.625939
 30
0.0
 10
278.162380
 20
142.538861
 30
0.0
 10
278.162380
 20
137.234531
 30
0.0
  0
LWPOLYLINE
  5
12a
100
AcDbEntity
  8
Layer_1
 62
3
100
AcDbPolyline
 90
2
 70
0
 10
50.162378
 20
157.234531
 30
0.0
 10
258.162380
 20
157.234531
 30
0.0
  0
SPLINE
  5
12b
100
AcDbEntity
  8
Layer_1
 62
3
100
AcDbSpline
 70
8
 71
3
 72
8
 73
4
 74
0
 40
0
 40
0
 40
0
 40
0
 40
1
 40
1
 40
1
 40
1
 10
278.162380
 20
72.234530
 30
0.0
 10
278.162380
 20
66.930200
 30
0.0
 10
276.055243
 20
61.843122
 30
0.0
 10
272.304516
 20
58.092394
 30
0.0
  0
SPLINE
  5
12c
100
AcDbEntity
  8
Layer_1
 62
3
100
AcDbSpline
 70
8
 71
3
 72
8
 73
4
 74
0
 40
0
 40
0
 40
0
 40
0
 40
1
 40
1
 40
1
 40
1
 10
272.304516
 20
58.092394
 30
0.0
 10
268.553788
 20
54.341667
 30
0.0
 10
263.466710
 20
52.234530
 30
0.0
 10
258.162380
 20
52.234530
 30
0.0
  0
LWPOLYLINE
  5
12d
100
AcDbEntity
  8
Layer_1
 62
3
100
AcDbPolyline
 90
2
 70
0
 10
278.162380
 20
137.234531
 30
0.0
 10
278.162380
 20
72.234530
 30
0.0
  0
SPLINE
  5
12e
100
AcDbEntity
  8
Layer_1
 62
3
100
AcDbSpline
 70
8
 71
3
 72
8
 73
4
 74
0
 40
0
 40
0
 40
0
 40
0
 40
1
 40
1
 40
1
 40
1
 10
50.162378
 20
52.234530
 30
0.0
 10
44.858048
 20
52.234530
 30
0.0
 10
39.770970
 20
54.341667
 30
0.0
 10
36.020242
 20
58.092394
 30
0.0
  0
SPLINE
  5
12f
100
AcDbEntity
  8
Layer_1
 62
3
100
AcDbSpline
 70
8
 71
3
 72
8
 73
4
 74
0
 40
0
 40
0
 40
0
 40
0
 40
1
 40
1
 40
1
 40
1
 10
36.020242
 20
58.092394
 30
0.0
 10
32.269515
 20
61.843122
 30
0.0
 10
30.162378
 20
66.930200
 30
0.0
 10
30.162378
 20
72.234530
 30
0.0
  0
LWPOLYLINE
  5
130
100
AcDbEntity
  8
Layer_1
 62
3
100
AcDbPolyline
 90
2
 70
0
 10
258.162380
 20
52.234530
 30
0.0
 10
50.162378
 20
52.234530
 30
0.0
  0
SPLINE
  5
131
100
AcDbEntity
  8
Layer_1
 62
3
100
AcDbSpline
 70
8
 71
3
 72
8
 73
4
 74
0
 40
0
 40
0
 40
0
 40
0
 40
1
 40
1
 40
1
 40
1
 10
30.162378
 20
137.234531
 30
0.0
 10
30.162378
 20
142.538861
 30
0.0
 10
32.269515
 20
147.625939
 30
0.0
 10
36.020242
 20
151.376667
 30
0.0
  0
SPLINE
  5
132
100
AcDbEntity
  8
Layer_1
 62
3
100
AcDbSpline
 70
8
 71
3
 72
8
 73
4
 74
0
 40
0
 40
0
 40
0
 40
0
 40
1
 40
1
 40
1
 40
1
 10
36.020242
 20
151.376667
 30
0.0
 10
39.770970
 20
155.127394
 30
0.0
 10
44.858048
 20
157.234531
 30
0.0
 10
50.162378
 20
157.234531
 30
0.0
  0
LWPOLYLINE
  5
133
100
AcDbEntity
  8
Layer_1
 62
3
100
AcDbPolyline
 90
2
 70
0
 10
30.162378
 20
72.234530
 30
0.0
 10
30.162378
 20
137.234531
 30
0.0
  0
SPLINE
  5
134
100
AcDbEntity
  8
Layer_1
 62
3
100
AcDbSpline
 70
8
 71
3
 72
8
 73
4
 74
0
 40
0
 40
0
 40
0
 40
0
 40
1
 40
1
 40
1
 40
1
 10
268.162410
 20
148.784531
 30
0.0
 10
267.535494
 20
148.784531
 30
0.0
 10
266.970307
 20
148.406886
 30
0.0
 10
266.730397
 20
147.827690
 30
0.0
  0
SPLINE
  5
135
100
AcDbEntity
  8
Layer_1
 62
3
100
AcDbSpline
 70
8
 71
3
 72
8
 73
4
 74
0
 40
0
 40
0
 40
0
 40
0
 40
1
 40
1
 40
1
 40
1
 10
266.730397
 20
147.827690
 30
0.0
 10
266.490486
 20
147.248495
 30
0.0
 10
266.623098
 20
146.581812
 30
0.0
 10
267.066394
 20
146.138515
 30
0.0
  0
SPLINE
  5
136
100
AcDbEntity
  8
Layer_1
 62
3
100
AcDbSpline
 70
8
 71
3
 72
8
 73
4
 74
0
 40
0
 40
0
 40
0
 40
0
 40
1
 40
1
 40
1
 40
1
 10
267.066394
 20
146.138515
 30
0.0
 10
267.509691
 20
145.695219
 30
0.0
 10
268.176374
 20
145.562607
 30
0.0
 10
268.755569
 20
145.802518
 30
0.0
  0
SPLINE
  5
137
100
AcDbEntity
  8
Layer_1
 62
3
100
AcDbSpline
 70
8
 71
3
 72
8
 73
4
 74
0
 40
0
 40
0
 40
0
 40
0
 40
1
 40
1
 40
1
 40
1
 10
268.755569
 20
145.802518
 30
0.0
 10
269.334765
 20
146.042428
 30
0.0
 10
269.712410
 20
146.607615
 30
0.0
 10
269.712410
 20
147.234531
 30
0.0
  0
SPLINE
  5
138
100
AcDbEntity
  8
Layer_1
 62
3
100
AcDbSpline
 70
8
 71
3
 72
8
 73
4
 74
0
 40
0
 40
0
 40
0
 40
0
 40
1
 40
1
 40
1
 40
1
 10
269.712410
 20
147.234531
 30
0.0
 10
269.712410
 20
147.645617
 30
0.0
 10
269.549107
 20
148.039865
 30
0.0
 10
269.258426
 20
148.330547
 30
0.0
  0
SPLINE
  5
139
100
AcDbEntity
  8
Layer_1
 62
3
100
AcDbSpline
 70
8
 71
3
 72
8
 73
4
 74
0
 40
0
 40
0
 40
0
 40
0
 40
1
 40
1
 40
1
 40
1
 10
269.258426
 20
148.330547
 30
0.0
 10
268.967744
 20
148.621228
 30
0.0
 10
268.573496
 20
148.784531
 30
0.0
 10
268.162410
 20
148.784531
 30
0.0
  0
LWPOLYLINE
  5
13a
100
AcDbEntity
  8
Layer_1
 62
3
100
AcDbPolyline
 90
1
 70
1
 10
50.162378
 20
157.234531
 30
0.0
  0
SPLINE
  5
13b
100
AcDbEntity
  8
Layer_1
 62
3
100
AcDbSpline
 70
8
 71
3
 72
8
 73
4
 74
0
 40
0
 40
0
 40
0
 40
0
 40
1
 40
1
 40
1
 40
1
 10
268.162380
 20
63.784510
 30
0.0
 10
267.535464
 20
63.784510
 30
0.0
 10
266.970277
 20
63.406865
 30
0.0
 10
266.730367
 20
62.827669
 30
0.0
  0
SPLINE
  5
13c
100
AcDbEntity
  8
Layer_1
 62
3
100
AcDbSpline
 70
8
 71
3
 72
8
 73
4
 74
0
 40
0
 40
0
 40
0
 40
0
 40
1
 40
1
 40
1
 40
1
 10
266.730367
 20
62.827669
 30
0.0
 10
266.490456
 20
62.248474
 30
0.0
 10
266.623068
 20
61.581791
 30
0.0
 10
267.066364
 20
61.138494
 30
0.0
  0
SPLINE
  5
13d
100
AcDbEntity
  8
Layer_1
 62
3
100
AcDbSpline
 70
8
 71
3
 72
8
 73
4
 74
0
 40
0
 40
0
 40
0
 40
0
 40
1
 40
1
 40
1
 40
1
 10
267.066364
 20
61.138494
 30
0.0
 10
267.509661
 20
60.695198
 30
0.0
 10
268.176344
 20
60.562586
 30
0.0
 10
268.755539
 20
60.802497
 30
0.0
  0
SPLINE
  5
13e
100
AcDbEntity
  8
Layer_1
 62
3
100
AcDbSpline
 70
8
 71
3
 72
8
 73
4
 74
0
 40
0
 40
0
 40
0
 40
0
 40
1
 40
1
 40
1
 40
1
 10
268.755539
 20
60.802497
 30
0.0
 10
269.334735
 20
61.042407
 30
0.0
 10
269.712380
 20
61.607594
 30
0.0
 10
269.712380
 20
62.234510
 30
0.0
  0
SPLINE
  5
13f
100
AcDbEntity
  8
Layer_1
 62
3
100
AcDbSpline
 70
8
 71
3
 72
8
 73
4
 74
0
 40
0
 40
0
 40
0
 40
0
 40
1
 40
1
 40
1
 40
1
 10
269.712380
 20
62.234510
 30
0.0
 10
269.712380
 20
62.645596
 30
0.0
 10
269.549077
 20
63.039844
 30
0.0
 10
269.258396
 20
63.330526
 30
0.0
  0
SPLINE
  5
140
100
AcDbEntity
  8
Layer_1
 62
3
100
AcDbSpline
 70
8
 71
3
 72
8
 73
4
 74
0
 40
0
 40
0
 40
0
 40
0
 40
1
 40
1
 40
1
 40
1
 10
269.258396
 20
63.330526
 30
0.0
 10
268.967714
 20
63.621207
 30
0.0
 10
268.573466
 20
63.784510
 30
0.0
 10
268.162380
 20
63.784510
 30
0.0
  0
LWPOLYLINE
  5
141
100
AcDbEntity
  8
Layer_1
 62
3
100
AcDbPolyline
 90
1
 70
1
 10
268.162410
 20
148.784531
 30
0.0
  0
SPLINE
  5
142
100
AcDbEntity
  8
Layer_1
 62
3
100
AcDbSpline
 70
8
 71
3
 72
8
 73
4
 74
0
 40
0
 40
0
 40
0
 40
0
 40
1
 40
1
 40
1
 40
1
 10
40.162376
 20
148.784531
 30
0.0
 10
39.535460
 20
148.784531
 30
0.0
 10
38.970273
 20
148.406886
 30
0.0
 10
38.730363
 20
147.827690
 30
0.0
  0
SPLINE
  5
143
100
AcDbEntity
  8
Layer_1
 62
3
100
AcDbSpline
 70
8
 71
3
 72
8
 73
4
 74
0
 40
0
 40
0
 40
0
 40
0
 40
1
 40
1
 40
1
 40
1
 10
38.730363
 20
147.827690
 30
0.0
 10
38.490452
 20
147.248495
 30
0.0
 10
38.623064
 20
146.581812
 30
0.0
 10
39.066360
 20
146.138515
 30
0.0
  0
SPLINE
  5
144
100
AcDbEntity
  8
Layer_1
 62
3
100
AcDbSpline
 70
8
 71
3
 72
8
 73
4
 74
0
 40
0
 40
0
 40
0
 40
0
 40
1
 40
1
 40
1
 40
1
 10
39.066360
 20
146.138515
 30
0.0
 10
39.509657
 20
145.695219
 30
0.0
 10
40.176340
 20
145.562607
 30
0.0
 10
40.755535
 20
145.802518
 30
0.0
  0
SPLINE
  5
145
100
AcDbEntity
  8
Layer_1
 62
3
100
AcDbSpline
 70
8
 71
3
 72
8
 73
4
 74
0
 40
0
 40
0
 40
0
 40
0
 40
1
 40
1
 40
1
 40
1
 10
40.755535
 20
145.802518
 30
0.0
 10
41.334731
 20
146.042428
 30
0.0
 10
41.712376
 20
146.607615
 30
0.0
 10
41.712376
 20
147.234531
 30
0.0
  0
SPLINE
  5
146
100
AcDbEntity
  8
Layer_1
 62
3
100
AcDbSpline
 70
8
 71
3
 72
8
 73
4
 74
0
 40
0
 40
0
 40
0
 40
0
 40
1
 40
1
 40
1
 40
1
 10
41.712376
 20
147.234531
 30
0.0
 10
41.712376
 20
148.090572
 30
0.0
 10
41.018417
 20
148.784531
 30
0.0
 10
40.162376
 20
148.784531
 30
0.0
  0
LWPOLYLINE
  5
147
100
AcDbEntity
  8
Layer_1
 62
3
100
AcDbPolyline
 90
1
 70
1
 10
268.162380
 20
63.784510
 30
0.0
  0
LWPOLYLINE
  5
148
100
AcDbEntity
  8
Layer_1
 62
3
100
AcDbPolyline
 90
1
 70
1
 10
40.162376
 20
148.784531
 30
0.0
  0
LWPOLYLINE
  5
149
100
AcDbEntity
  8
Layer_1
 62
3
100
AcDbPolyline
 90
4
 70
1
 10
60.356087
 20
140.408340
 30
0.0
 10
70.356087
 20
140.408340
 30
0.0
 10
70.356087
 20
130.408340
 30
0.0
 10
60.356087
 20
130.408340
 30
0.0
  0
SPLINE
  5
14a
100
AcDbEntity
  8
Layer_1
 62
3
100
AcDbSpline
 70
8
 71
3
 72
8
 73
4
 74
0
 40
0
 40
0
 40
0
 40
0
 40
1
 40
1
 40
1
 40
1
 10
65.355560
 20
75.611200
 30
0.0
 10
64.728644
 20
75.611200
 30
0.0
 10
64.163457
 20
75.233555
 30
0.0
 10
63.923547
 20
74.654359
 30
0.0
  0
SPLINE
  5
14b
100
AcDbEntity
  8
Layer_1
 62
3
100
AcDbSpline
 70
8
 71
3
 72
8
 73
4
 74
0
 40
0
 40
0
 40
0
 40
0
 40
1
 40
1
 40
1
 40
1
 10
63.923547
 20
74.654359
 30
0.0
 10
63.683636
 20
74.075164
 30
0.0
 10
63.816248
 20
73.408481
 30
0.0
 10
64.259544
 20
72.965184
 30
0.0
  0
SPLINE
  5
14c
100
AcDbEntity
  8
Layer_1
 62
3
100
AcDbSpline
 70
8
 71
3
 72
8
 73
4
 74
0
 40
0
 40
0
 40
0
 40
0
 40
1
 40
1
 40
1
 40
1
 10
64.259544
 20
72.965184
 30
0.0
 10
64.702841
 20
72.521888
 30
0.0
 10
65.369524
 20
72.389276
 30
0.0
 10
65.948719
 20
72.629187
 30
0.0
  0
SPLINE
  5
14d
100
AcDbEntity
  8
Layer_1
 62
3
100
AcDbSpline
 70
8
 71
3
 72
8
 73
4
 74
0
 40
0
 40
0
 40
0
 40
0
 40
1
 40
1
 40
1
 40
1
 10
65.948719
 20
72.629187
 30
0.0
 10
66.527915
 20
72.869097
 30
0.0
 10
66.905560
 20
73.434284
 30
0.0
 10
66.905560
 20
74.061200
 30
0.0
  0
SPLINE
  5
14e
100
AcDbEntity
  8
Layer_1
 62
3
100
AcDbSpline
 70
8
 71
3
 72
8
 73
4
 74
0
 40
0
 40
0
 40
0
 40
0
 40
1
 40
1
 40
1
 40
1
 10
66.905560
 20
74.061200
 30
0.0
 10
66.905560
 20
74.472286
 30
0.0
 10
66.742257
 20
74.866534
 30
0.0
 10
66.451576
 20
75.157216
 30
0.0
  0
SPLINE
  5
14f
100
AcDbEntity
  8
Layer_1
 62
3
100
AcDbSpline
 70
8
 71
3
 72
8
 73
4
 74
0
 40
0
 40
0
 40
0
 40
0
 40
1
 40
1
 40
1
 40
1
 10
66.451576
 20
75.157216
 30
0.0
 10
66.160894
 20
75.447897
 30
0.0
 10
65.766646
 20
75.611200
 30
0.0
 10
65.355560
 20
75.611200
 30
0.0
  0
LWPOLYLINE
  5
150
100
AcDbEntity
  8
Layer_1
 62
3
100
AcDbPolyline
 90
4
 70
1
 10
60.355560
 20
79.061200
 30
0.0
 10
70.355560
 20
79.061200
 30
0.0
 10
70.355560
 20
69.061200
 30
0.0
 10
60.355560
 20
69.061200
 30
0.0
  0
SPLINE
  5
151
100
AcDbEntity
  8
Layer_1
 62
3
100
AcDbSpline
 70
8
 71
3
 72
8
 73
4
 74
0
 40
0
 40
0
 40
0
 40
0
 40
1
 40
1
 40
1
 40
1
 10
65.356087
 20
136.958340
 30
0.0
 10
64.729171
 20
136.958340
 30
0.0
 10
64.163984
 20
136.580695
 30
0.0
 10
63.924074
 20
136.001499
 30
0.0
  0
SPLINE
  5
152
100
AcDbEntity
  8
Layer_1
 62
3
100
AcDbSpline
 70
8
 71
3
 72
8
 73
4
 74
0
 40
0
 40
0
 40
0
 40
0
 40
1
 40
1
 40
1
 40
1
 10
63.924074
 20
136.001499
 30
0.0
 10
63.684163
 20
135.422304
 30
0.0
 10
63.816775
 20
134.755621
 30
0.0
 10
64.260071
 20
134.312324
 30
0.0
  0
SPLINE
  5
153
100
AcDbEntity
  8
Layer_1
 62
3
100
AcDbSpline
 70
8
 71
3
 72
8
 73
4
 74
0
 40
0
 40
0
 40
0
 40
0
 40
1
 40
1
 40
1
 40
1
 10
64.260071
 20
134.312324
 30
0.0
 10
64.703368
 20
133.869028
 30
0.0
 10
65.370051
 20
133.736416
 30
0.0
 10
65.949246
 20
133.976327
 30
0.0
  0
SPLINE
  5
154
100
AcDbEntity
  8
Layer_1
 62
3
100
AcDbSpline
 70
8
 71
3
 72
8
 73
4
 74
0
 40
0
 40
0
 40
0
 40
0
 40
1
 40
1
 40
1
 40
1
 10
65.949246
 20
133.976327
 30
0.0
 10
66.528442
 20
134.216237
 30
0.0
 10
66.906087
 20
134.781424
 30
0.0
 10
66.906087
 20
135.408340
 30
0.0
  0
SPLINE
  5
155
100
AcDbEntity
  8
Layer_1
 62
3
100
AcDbSpline
 70
8
 71
3
 72
8
 73
4
 74
0
 40
0
 40
0
 40
0
 40
0
 40
1
 40
1
 40
1
 40
1
 10
66.906087
 20
135.408340
 30
0.0
 10
66.906087
 20
135.819426
 30
0.0
 10
66.742784
 20
136.213674
 30
0.0
 10
66.452103
 20
136.504356
 30
0.0
  0
SPLINE
  5
156
100
AcDbEntity
  8
Layer_1
 62
3
100
AcDbSpline
 70
8
 71
3
 72
8
 73
4
 74
0
 40
0
 40
0
 40
0
 40
0
 40
1
 40
1
 40
1
 40
1
 10
66.452103
 20
136.504356
 30
0.0
 10
66.161421
 20
136.795037
 30
0.0
 10
65.767173
 20
136.958340
 30
0.0
 10
65.356087
 20
136.958340
 30
0.0
  0
LWPOLYLINE
  5
157
100
AcDbEntity
  8
Layer_1
 62
3
100
AcDbPolyline
 90
1
 70
1
 10
65.355560
 20
75.611200
 30
0.0
  0
LWPOLYLINE
  5
158
100
AcDbEntity
  8
Layer_1
 62
3
100
AcDbPolyline
 90
1
 70
1
 10
65.356087
 20
136.958340
 30
0.0
  0
SPLINE
  5
159
100
AcDbEntity
  8
Layer_1
 62
3
100
AcDbSpline
 70
8
 71
3
 72
8
 73
4
 74
0
 40
0
 40
0
 40
0
 40
0
 40
1
 40
1
 40
1
 40
1
 10
119.633540
 20
75.611220
 30
0.0
 10
119.006624
 20
75.611220
 30
0.0
 10
118.441437
 20
75.233575
 30
0.0
 10
118.201527
 20
74.654379
 30
0.0
  0
SPLINE
  5
15a
100
AcDbEntity
  8
Layer_1
 62
3
100
AcDbSpline
 70
8
 71
3
 72
8
 73
4
 74
0
 40
0
 40
0
 40
0
 40
0
 40
1
 40
1
 40
1
 40
1
 10
118.201527
 20
74.654379
 30
0.0
 10
117.961616
 20
74.075184
 30
0.0
 10
118.094228
 20
73.408501
 30
0.0
 10
118.537524
 20
72.965204
 30
0.0
  0
SPLINE
  5
15b
100
AcDbEntity
  8
Layer_1
 62
3
100
AcDbSpline
 70
8
 71
3
 72
8
 73
4
 74
0
 40
0
 40
0
 40
0
 40
0
 40
1
 40
1
 40
1
 40
1
 10
118.537524
 20
72.965204
 30
0.0
 10
118.980821
 20
72.521908
 30
0.0
 10
119.647504
 20
72.389296
 30
0.0
 10
120.226699
 20
72.629207
 30
0.0
  0
SPLINE
  5
15c
100
AcDbEntity
  8
Layer_1
 62
3
100
AcDbSpline
 70
8
 71
3
 72
8
 73
4
 74
0
 40
0
 40
0
 40
0
 40
0
 40
1
 40
1
 40
1
 40
1
 10
120.226699
 20
72.629207
 30
0.0
 10
120.805895
 20
72.869117
 30
0.0
 10
121.183540
 20
73.434304
 30
0.0
 10
121.183540
 20
74.061220
 30
0.0
  0
SPLINE
  5
15d
100
AcDbEntity
  8
Layer_1
 62
3
100
AcDbSpline
 70
8
 71
3
 72
8
 73
4
 74
0
 40
0
 40
0
 40
0
 40
0
 40
1
 40
1
 40
1
 40
1
 10
121.183540
 20
74.061220
 30
0.0
 10
121.183540
 20
74.472306
 30
0.0
 10
121.020237
 20
74.866554
 30
0.0
 10
120.729556
 20
75.157236
 30
0.0
  0
SPLINE
  5
15e
100
AcDbEntity
  8
Layer_1
 62
3
100
AcDbSpline
 70
8
 71
3
 72
8
 73
4
 74
0
 40
0
 40
0
 40
0
 40
0
 40
1
 40
1
 40
1
 40
1
 10
120.729556
 20
75.157236
 30
0.0
 10
120.438874
 20
75.447917
 30
0.0
 10
120.044626
 20
75.611220
 30
0.0
 10
119.633540
 20
75.611220
 30
0.0
  0
LWPOLYLINE
  5
15f
100
AcDbEntity
  8
Layer_1
 62
3
100
AcDbPolyline
 90
4
 70
1
 10
114.633540
 20
79.061220
 30
0.0
 10
124.633540
 20
79.061220
 30
0.0
 10
124.633540
 20
69.061220
 30
0.0
 10
114.633540
 20
69.061220
 30
0.0
  0
LWPOLYLINE
  5
160
100
AcDbEntity
  8
Layer_1
 62
3
100
AcDbPolyline
 90
1
 70
1
 10
119.633540
 20
75.611220
 30
0.0
  0
SPLINE
  5
161
100
AcDbEntity
  8
Layer_1
 62
3
100
AcDbSpline
 70
8
 71
3
 72
8
 73
4
 74
0
 40
0
 40
0
 40
0
 40
0
 40
1
 40
1
 40
1
 40
1
 10
119.634060
 20
136.958348
 30
0.0
 10
119.007144
 20
136.958348
 30
0.0
 10
118.441957
 20
136.580703
 30
0.0
 10
118.202047
 20
136.001507
 30
0.0
  0
SPLINE
  5
162
100
AcDbEntity
  8
Layer_1
 62
3
100
AcDbSpline
 70
8
 71
3
 72
8
 73
4
 74
0
 40
0
 40
0
 40
0
 40
0
 40
1
 40
1
 40
1
 40
1
 10
118.202047
 20
136.001507
 30
0.0
 10
117.962136
 20
135.422312
 30
0.0
 10
118.094748
 20
134.755629
 30
0.0
 10
118.538044
 20
134.312332
 30
0.0
  0
SPLINE
  5
163
100
AcDbEntity
  8
Layer_1
 62
3
100
AcDbSpline
 70
8
 71
3
 72
8
 73
4
 74
0
 40
0
 40
0
 40
0
 40
0
 40
1
 40
1
 40
1
 40
1
 10
118.538044
 20
134.312332
 30
0.0
 10
118.981341
 20
133.869036
 30
0.0
 10
119.648024
 20
133.736424
 30
0.0
 10
120.227219
 20
133.976335
 30
0.0
  0
SPLINE
  5
164
100
AcDbEntity
  8
Layer_1
 62
3
100
AcDbSpline
 70
8
 71
3
 72
8
 73
4
 74
0
 40
0
 40
0
 40
0
 40
0
 40
1
 40
1
 40
1
 40
1
 10
120.227219
 20
133.976335
 30
0.0
 10
120.806415
 20
134.216245
 30
0.0
 10
121.184060
 20
134.781432
 30
0.0
 10
121.184060
 20
135.408348
 30
0.0
  0
SPLINE
  5
165
100
AcDbEntity
  8
Layer_1
 62
3
100
AcDbSpline
 70
8
 71
3
 72
8
 73
4
 74
0
 40
0
 40
0
 40
0
 40
0
 40
1
 40
1
 40
1
 40
1
 10
121.184060
 20
135.408348
 30
0.0
 10
121.184060
 20
135.819434
 30
0.0
 10
121.020757
 20
136.213682
 30
0.0
 10
120.730076
 20
136.504364
 30
0.0
  0
SPLINE
  5
166
100
AcDbEntity
  8
Layer_1
 62
3
100
AcDbSpline
 70
8
 71
3
 72
8
 73
4
 74
0
 40
0
 40
0
 40
0
 40
0
 40
1
 40
1
 40
1
 40
1
 10
120.730076
 20
136.504364
 30
0.0
 10
120.439394
 20
136.795045
 30
0.0
 10
120.045146
 20
136.958348
 30
0.0
 10
119.634060
 20
136.958348
 30
0.0
  0
LWPOLYLINE
  5
167
100
AcDbEntity
  8
Layer_1
 62
3
100
AcDbPolyline
 90
4
 70
1
 10
114.634060
 20
140.408348
 30
0.0
 10
124.634060
 20
140.408348
 30
0.0
 10
124.634060
 20
130.408348
 30
0.0
 10
114.634060
 20
130.408348
 30
0.0
  0
LWPOLYLINE
  5
168
100
AcDbEntity
  8
Layer_1
 62
3
100
AcDbPolyline
 90
1
 70
1
 10
119.634060
 20
136.958348
 30
0.0
  0
SPLINE
  5
169
100
AcDbEntity
  8
Layer_1
 62
3
100
AcDbSpline
 70
8
 71
3
 72
8
 73
4
 74
0
 40
0
 40
0
 40
0
 40
0
 40
1
 40
1
 40
1
 40
1
 10
188.690730
 20
75.611220
 30
0.0
 10
187.834689
 20
75.611220
 30
0.0
 10
187.140730
 20
74.917261
 30
0.0
 10
187.140730
 20
74.061220
 30
0.0
  0
SPLINE
  5
16a
100
AcDbEntity
  8
Layer_1
 62
3
100
AcDbSpline
 70
8
 71
3
 72
8
 73
4
 74
0
 40
0
 40
0
 40
0
 40
0
 40
1
 40
1
 40
1
 40
1
 10
187.140730
 20
74.061220
 30
0.0
 10
187.140730
 20
73.205179
 30
0.0
 10
187.834689
 20
72.511220
 30
0.0
 10
188.690730
 20
72.511220
 30
0.0
  0
SPLINE
  5
16b
100
AcDbEntity
  8
Layer_1
 62
3
100
AcDbSpline
 70
8
 71
3
 72
8
 73
4
 74
0
 40
0
 40
0
 40
0
 40
0
 40
1
 40
1
 40
1
 40
1
 10
188.690730
 20
72.511220
 30
0.0
 10
189.546771
 20
72.511220
 30
0.0
 10
190.240730
 20
73.205179
 30
0.0
 10
190.240730
 20
74.061220
 30
0.0
  0
SPLINE
  5
16c
100
AcDbEntity
  8
Layer_1
 62
3
100
AcDbSpline
 70
8
 71
3
 72
8
 73
4
 74
0
 40
0
 40
0
 40
0
 40
0
 40
1
 40
1
 40
1
 40
1
 10
190.240730
 20
74.061220
 30
0.0
 10
190.240730
 20
74.472306
 30
0.0
 10
190.077427
 20
74.866554
 30
0.0
 10
189.786746
 20
75.157236
 30
0.0
  0
SPLINE
  5
16d
100
AcDbEntity
  8
Layer_1
 62
3
100
AcDbSpline
 70
8
 71
3
 72
8
 73
4
 74
0
 40
0
 40
0
 40
0
 40
0
 40
1
 40
1
 40
1
 40
1
 10
189.786746
 20
75.157236
 30
0.0
 10
189.496064
 20
75.447917
 30
0.0
 10
189.101816
 20
75.611220
 30
0.0
 10
188.690730
 20
75.611220
 30
0.0
  0
LWPOLYLINE
  5
16e
100
AcDbEntity
  8
Layer_1
 62
3
100
AcDbPolyline
 90
4
 70
1
 10
183.690730
 20
79.061220
 30
0.0
 10
193.690730
 20
79.061220
 30
0.0
 10
193.690730
 20
69.061220
 30
0.0
 10
183.690730
 20
69.061220
 30
0.0
  0
LWPOLYLINE
  5
16f
100
AcDbEntity
  8
Layer_1
 62
3
100
AcDbPolyline
 90
1
 70
1
 10
188.690730
 20
75.611220
 30
0.0
  0
SPLINE
  5
170
100
AcDbEntity
  8
Layer_1
 62
3
100
AcDbSpline
 70
8
 71
3
 72
8
 73
4
 74
0
 40
0
 40
0
 40
0
 40
0
 40
1
 40
1
 40
1
 40
1
 10
188.691250
 20
136.958348
 30
0.0
 10
188.064334
 20
136.958348
 30
0.0
 10
187.499147
 20
136.580703
 30
0.0
 10
187.259237
 20
136.001507
 30
0.0
  0
SPLINE
  5
171
100
AcDbEntity
  8
Layer_1
 62
3
100
AcDbSpline
 70
8
 71
3
 72
8
 73
4
 74
0
 40
0
 40
0
 40
0
 40
0
 40
1
 40
1
 40
1
 40
1
 10
187.259237
 20
136.001507
 30
0.0
 10
187.019326
 20
135.422312
 30
0.0
 10
187.151938
 20
134.755629
 30
0.0
 10
187.595234
 20
134.312332
 30
0.0
  0
SPLINE
  5
172
100
AcDbEntity
  8
Layer_1
 62
3
100
AcDbSpline
 70
8
 71
3
 72
8
 73
4
 74
0
 40
0
 40
0
 40
0
 40
0
 40
1
 40
1
 40
1
 40
1
 10
187.595234
 20
134.312332
 30
0.0
 10
188.038531
 20
133.869036
 30
0.0
 10
188.705214
 20
133.736424
 30
0.0
 10
189.284409
 20
133.976335
 30
0.0
  0
SPLINE
  5
173
100
AcDbEntity
  8
Layer_1
 62
3
100
AcDbSpline
 70
8
 71
3
 72
8
 73
4
 74
0
 40
0
 40
0
 40
0
 40
0
 40
1
 40
1
 40
1
 40
1
 10
189.284409
 20
133.976335
 30
0.0
 10
189.863605
 20
134.216245
 30
0.0
 10
190.241250
 20
134.781432
 30
0.0
 10
190.241250
 20
135.408348
 30
0.0
  0
SPLINE
  5
174
100
AcDbEntity
  8
Layer_1
 62
3
100
AcDbSpline
 70
8
 71
3
 72
8
 73
4
 74
0
 40
0
 40
0
 40
0
 40
0
 40
1
 40
1
 40
1
 40
1
 10
190.241250
 20
135.408348
 30
0.0
 10
190.241250
 20
135.819434
 30
0.0
 10
190.077947
 20
136.213682
 30
0.0
 10
189.787266
 20
136.504364
 30
0.0
  0
SPLINE
  5
175
100
AcDbEntity
  8
Layer_1
 62
3
100
AcDbSpline
 70
8
 71
3
 72
8
 73
4
 74
0
 40
0
 40
0
 40
0
 40
0
 40
1
 40
1
 40
1
 40
1
 10
189.787266
 20
136.504364
 30
0.0
 10
189.496584
 20
136.795045
 30
0.0
 10
189.102336
 20
136.958348
 30
0.0
 10
188.691250
 20
136.958348
 30
0.0
  0
LWPOLYLINE
  5
176
100
AcDbEntity
  8
Layer_1
 62
3
100
AcDbPolyline
 90
4
 70
1
 10
183.691250
 20
140.408348
 30
0.0
 10
193.691250
 20
140.408348
 30
0.0
 10
193.691250
 20
130.408348
 30
0.0
 10
183.691250
 20
130.408348
 30
0.0
  0
LWPOLYLINE
  5
177
100
AcDbEntity
  8
Layer_1
 62
3
100
AcDbPolyline
 90
1
 70
1
 10
188.691250
 20
136.958348
 30
0.0
  0
SPLINE
  5
178
100
AcDbEntity
  8
Layer_1
 62
3
100
AcDbSpline
 70
8
 71
3
 72
8
 73
4
 74
0
 40
0
 40
0
 40
0
 40
0
 40
1
 40
1
 40
1
 40
1
 10
242.968670
 20
75.611220
 30
0.0
 10
242.341754
 20
75.611220
 30
0.0
 10
241.776567
 20
75.233575
 30
0.0
 10
241.536657
 20
74.654379
 30
0.0
  0
SPLINE
  5
179
100
AcDbEntity
  8
Layer_1
 62
3
100
AcDbSpline
 70
8
 71
3
 72
8
 73
4
 74
0
 40
0
 40
0
 40
0
 40
0
 40
1
 40
1
 40
1
 40
1
 10
241.536657
 20
74.654379
 30
0.0
 10
241.296746
 20
74.075184
 30
0.0
 10
241.429358
 20
73.408501
 30
0.0
 10
241.872654
 20
72.965204
 30
0.0
  0
SPLINE
  5
17a
100
AcDbEntity
  8
Layer_1
 62
3
100
AcDbSpline
 70
8
 71
3
 72
8
 73
4
 74
0
 40
0
 40
0
 40
0
 40
0
 40
1
 40
1
 40
1
 40
1
 10
241.872654
 20
72.965204
 30
0.0
 10
242.315951
 20
72.521908
 30
0.0
 10
242.982634
 20
72.389296
 30
0.0
 10
243.561829
 20
72.629207
 30
0.0
  0
SPLINE
  5
17b
100
AcDbEntity
  8
Layer_1
 62
3
100
AcDbSpline
 70
8
 71
3
 72
8
 73
4
 74
0
 40
0
 40
0
 40
0
 40
0
 40
1
 40
1
 40
1
 40
1
 10
243.561829
 20
72.629207
 30
0.0
 10
244.141025
 20
72.869117
 30
0.0
 10
244.518670
 20
73.434304
 30
0.0
 10
244.518670
 20
74.061220
 30
0.0
  0
SPLINE
  5
17c
100
AcDbEntity
  8
Layer_1
 62
3
100
AcDbSpline
 70
8
 71
3
 72
8
 73
4
 74
0
 40
0
 40
0
 40
0
 40
0
 40
1
 40
1
 40
1
 40
1
 10
244.518670
 20
74.061220
 30
0.0
 10
244.518670
 20
74.472306
 30
0.0
 10
244.355367
 20
74.866554
 30
0.0
 10
244.064686
 20
75.157236
 30
0.0
  0
SPLINE
  5
17d
100
AcDbEntity
  8
Layer_1
 62
3
100
AcDbSpline
 70
8
 71
3
 72
8
 73
4
 74
0
 40
0
 40
0
 40
0
 40
0
 40
1
 40
1
 40
1
 40
1
 10
244.064686
 20
75.157236
 30
0.0
 10
243.774004
 20
75.447917
 30
0.0
 10
243.379756
 20
75.611220
 30
0.0
 10
242.968670
 20
75.611220
 30
0.0
  0
LWPOLYLINE
  5
17e
100
AcDbEntity
  8
Layer_1
 62
3
100
AcDbPolyline
 90
4
 70
1
 10
237.968670
 20
79.061220
 30
0.0
 10
247.968670
 20
79.061220
 30
0.0
 10
247.968670
 20
69.061220
 30
0.0
 10
237.968670
 20
69.061220
 30
0.0
  0
LWPOLYLINE
  5
17f
100
AcDbEntity
  8
Layer_1
 62
3
100
AcDbPolyline
 90
1
 70
1
 10
242.968670
 20
75.611220
 30
0.0
  0
SPLINE
  5
180
100
AcDbEntity
  8
Layer_1
 62
3
100
AcDbSpline
 70
8
 71
3
 72
8
 73
4
 74
0
 40
0
 40
0
 40
0
 40
0
 40
1
 40
1
 40
1
 40
1
 10
242.969190
 20
136.958348
 30
0.0
 10
242.342274
 20
136.958348
 30
0.0
 10
241.777087
 20
136.580703
 30
0.0
 10
241.537177
 20
136.001507
 30
0.0
  0
SPLINE
  5
181
100
AcDbEntity
  8
Layer_1
 62
3
100
AcDbSpline
 70
8
 71
3
 72
8
 73
4
 74
0
 40
0
 40
0
 40
0
 40
0
 40
1
 40
1
 40
1
 40
1
 10
241.537177
 20
136.001507
 30
0.0
 10
241.297266
 20
135.422312
 30
0.0
 10
241.429878
 20
134.755629
 30
0.0
 10
241.873174
 20
134.312332
 30
0.0
  0
SPLINE
  5
182
100
AcDbEntity
  8
Layer_1
 62
3
100
AcDbSpline
 70
8
 71
3
 72
8
 73
4
 74
0
 40
0
 40
0
 40
0
 40
0
 40
1
 40
1
 40
1
 40
1
 10
241.873174
 20
134.312332
 30
0.0
 10
242.316471
 20
133.869036
 30
0.0
 10
242.983154
 20
133.736424
 30
0.0
 10
243.562349
 20
133.976335
 30
0.0
  0
SPLINE
  5
183
100
AcDbEntity
  8
Layer_1
 62
3
100
AcDbSpline
 70
8
 71
3
 72
8
 73
4
 74
0
 40
0
 40
0
 40
0
 40
0
 40
1
 40
1
 40
1
 40
1
 10
243.562349
 20
133.976335
 30
0.0
 10
244.141545
 20
134.216245
 30
0.0
 10
244.519190
 20
134.781432
 30
0.0
 10
244.519190
 20
135.408348
 30
0.0
  0
SPLINE
  5
184
100
AcDbEntity
  8
Layer_1
 62
3
100
AcDbSpline
 70
8
 71
3
 72
8
 73
4
 74
0
 40
0
 40
0
 40
0
 40
0
 40
1
 40
1
 40
1
 40
1
 10
244.519190
 20
135.408348
 30
0.0
 10
244.519190
 20
135.819434
 30
0.0
 10
244.355887
 20
136.213682
 30
0.0
 10
244.065206
 20
136.504364
 30
0.0
  0
SPLINE
  5
185
100
AcDbEntity
  8
Layer_1
 62
3
100
AcDbSpline
 70
8
 71
3
 72
8
 73
4
 74
0
 40
0
 40
0
 40
0
 40
0
 40
1
 40
1
 40
1
 40
1
 10
244.065206
 20
136.504364
 30
0.0
 10
243.774524
 20
136.795045
 30
0.0
 10
243.380276
 20
136.958348
 30
0.0
 10
242.969190
 20
136.958348
 30
0.0
  0
LWPOLYLINE
  5
186
100
AcDbEntity
  8
Layer_1
 62
3
100
AcDbPolyline
 90
4
 70
1
 10
237.969190
 20
140.408348
 30
0.0
 10
247.969190
 20
140.408348
 30
0.0
 10
247.969190
 20
130.408348
 30
0.0
 10
237.969190
 20
130.408348
 30
0.0
  0
SPLINE
  5
187
100
AcDbEntity
  8
Layer_1
 62
3
100
AcDbSpline
 70
8
 71
3
 72
8
 73
4
 74
0
 40
0
 40
0
 40
0
 40
0
 40
1
 40
1
 40
1
 40
1
 10
154.162380
 20
106.284550
 30
0.0
 10
153.535464
 20
106.284550
 30
0.0
 10
152.970277
 20
105.906905
 30
0.0
 10
152.730367
 20
105.327709
 30
0.0
  0
SPLINE
  5
188
100
AcDbEntity
  8
Layer_1
 62
3
100
AcDbSpline
 70
8
 71
3
 72
8
 73
4
 74
0
 40
0
 40
0
 40
0
 40
0
 40
1
 40
1
 40
1
 40
1
 10
152.730367
 20
105.327709
 30
0.0
 10
152.490456
 20
104.748514
 30
0.0
 10
152.623068
 20
104.081831
 30
0.0
 10
153.066364
 20
103.638534
 30
0.0
  0
SPLINE
  5
189
100
AcDbEntity
  8
Layer_1
 62
3
100
AcDbSpline
 70
8
 71
3
 72
8
 73
4
 74
0
 40
0
 40
0
 40
0
 40
0
 40
1
 40
1
 40
1
 40
1
 10
153.066364
 20
103.638534
 30
0.0
 10
153.509661
 20
103.195238
 30
0.0
 10
154.176344
 20
103.062626
 30
0.0
 10
154.755539
 20
103.302537
 30
0.0
  0
SPLINE
  5
18a
100
AcDbEntity
  8
Layer_1
 62
3
100
AcDbSpline
 70
8
 71
3
 72
8
 73
4
 74
0
 40
0
 40
0
 40
0
 40
0
 40
1
 40
1
 40
1
 40
1
 10
154.755539
 20
103.302537
 30
0.0
 10
155.334735
 20
103.542447
 30
0.0
 10
155.712380
 20
104.107634
 30
0.0
 10
155.712380
 20
104.734550
 30
0.0
  0
SPLINE
  5
18b
100
AcDbEntity
  8
Layer_1
 62
3
100
AcDbSpline
 70
8
 71
3
 72
8
 73
4
 74
0
 40
0
 40
0
 40
0
 40
0
 40
1
 40
1
 40
1
 40
1
 10
155.712380
 20
104.734550
 30
0.0
 10
155.712380
 20
105.145636
 30
0.0
 10
155.549077
 20
105.539884
 30
0.0
 10
155.258396
 20
105.830566
 30
0.0
  0
SPLINE
  5
18c
100
AcDbEntity
  8
Layer_1
 62
3
100
AcDbSpline
 70
8
 71
3
 72
8
 73
4
 74
0
 40
0
 40
0
 40
0
 40
0
 40
1
 40
1
 40
1
 40
1
 10
155.258396
 20
105.830566
 30
0.0
 10
154.967714
 20
106.121247
 30
0.0
 10
154.573466
 20
106.284550
 30
0.0
 10
154.162380
 20
106.284550
 30
0.0
  0
LWPOLYLINE
  5
18d
100
AcDbEntity
  8
Layer_1
 62
3
100
AcDbPolyline
 90
1
 70
1
 10
242.969190
 20
136.958348
 30
0.0
  0
LWPOLYLINE
  5
18e
100
AcDbEntity
  8
Layer_1
 62
3
100
AcDbPolyline
 90
1
 70
1
 10
154.162380
 20
106.284550
 30
0.0
  0
LWPOLYLINE
  5
18f
100
AcDbEntity
  8
Layer_1
 62
3
100
AcDbPolyline
 90
4
 70
1
 10
149.162380
 20
129.734543
 30
0.0
 10
159.162380
 20
129.734543
 30
0.0
 10
159.162380
 20
79.734543
 30
0.0
 10
149.162380
 20
79.734543
 30
0.0
  0
LWPOLYLINE
  5
190
100
AcDbEntity
  8
Layer_1
 62
3
100
AcDbPolyline
 90
4
 70
1
 10
30.162378
 20
157.234531
 30
0.0
 10
40.162378
 20
157.234531
 30
0.0
 10
40.162378
 20
147.234531
 30
0.0
 10
30.162378
 20
147.234531
 30
0.0
  0
LWPOLYLINE
  5
191
100
AcDbEntity
  8
Layer_1
 62
3
100
AcDbPolyline
 90
4
 70
1
 10
30.162378
 20
62.234510
 30
0.0
 10
40.162378
 20
62.234510
 30
0.0
 10
40.162378
 20
52.234510
 30
0.0
 10
30.162378
 20
52.234510
 30
0.0
  0
LWPOLYLINE
  5
192
100
AcDbEntity
  8
Layer_1
 62
3
100
AcDbPolyline
 90
4
 70
1
 10
268.162380
 20
62.234510
 30
0.0
 10
278.162380
 20
62.234510
 30
0.0
 10
278.162380
 20
52.234510
 30
0.0
 10
268.162380
 20
52.234510
 30
0.0
  0
LWPOLYLINE
  5
193
100
AcDbEntity
  8
Layer_1
 62
3
100
AcDbPolyline
 90
4
 70
1
 10
268.162410
 20
157.234531
 30
0.0
 10
278.162410
 20
157.234531
 30
0.0
 10
278.162410
 20
147.234531
 30
0.0
 10
268.162410
 20
147.234531
 30
0.0
  0
LWPOLYLINE
  5
194
100
AcDbEntity
  8
Layer_1
 62
3
100
AcDbPolyline
 90
4
 70
1
 10
60.355560
 20
79.061200
 30
0.0
 10
65.355560
 20
79.061200
 30
0.0
 10
65.355560
 20
74.061200
 30
0.0
 10
60.355560
 20
74.061200
 30
0.0
  0
LWPOLYLINE
  5
195
100
AcDbEntity
  8
Layer_1
 62
3
100
AcDbPolyline
 90
4
 70
1
 10
114.633540
 20
79.061200
 30
0.0
 10
119.633540
 20
79.061200
 30
0.0
 10
119.633540
 20
74.061200
 30
0.0
 10
114.633540
 20
74.061200
 30
0.0
  0
LWPOLYLINE
  5
196
100
AcDbEntity
  8
Layer_1
 62
3
100
AcDbPolyline
 90
4
 70
1
 10
65.356087
 20
140.408340
 30
0.0
 10
70.356087
 20
140.408340
 30
0.0
 10
70.356087
 20
135.408340
 30
0.0
 10
65.356087
 20
135.408340
 30
0.0
  0
LWPOLYLINE
  5
197
100
AcDbEntity
  8
Layer_1
 62
3
100
AcDbPolyline
 90
4
 70
1
 10
119.634060
 20
140.408340
 30
0.0
 10
124.634060
 20
140.408340
 30
0.0
 10
124.634060
 20
135.408340
 30
0.0
 10
119.634060
 20
135.408340
 30
0.0
  0
LWPOLYLINE
  5
198
100
AcDbEntity
  8
Layer_1
 62
3
100
AcDbPolyline
 90
4
 70
1
 10
188.690730
 20
79.061200
 30
0.0
 10
193.690730
 20
79.061200
 30
0.0
 10
193.690730
 20
74.061200
 30
0.0
 10
188.690730
 20
74.061200
 30
0.0
  0
LWPOLYLINE
  5
199
100
AcDbEntity
  8
Layer_1
 62
3
100
AcDbPolyline
 90
4
 70
1
 10
242.968670
 20
79.061200
 30
0.0
 10
247.968670
 20
79.061200
 30
0.0
 10
247.968670
 20
74.061200
 30
0.0
 10
242.968670
 20
74.061200
 30
0.0
  0
LWPOLYLINE
  5
19a
100
AcDbEntity
  8
Layer_1
 62
3
100
AcDbPolyline
 90
4
 70
1
 10
242.969190
 20
140.408340
 30
0.0
 10
247.969190
 20
140.408340
 30
0.0
 10
247.969190
 20
135.408340
 30
0.0
 10
242.969190
 20
135.408340
 30
0.0
  0
LWPOLYLINE
  5
19b
100
AcDbEntity
  8
Layer_1
 62
3
100
AcDbPolyline
 90
4
 70
1
 10
188.691250
 20
140.408340
 30
0.0
 10
193.691250
 20
140.408340
 30
0.0
 10
193.691250
 20
135.408340
 30
0.0
 10
188.691250
 20
135.408340
 30
0.0
  0
SPLINE
  5
19c
100
AcDbEntity
  8
Layer_1
 62
3
100
AcDbSpline
 70
8
 71
3
 72
8
 73
4
 74
0
 40
0
 40
0
 40
0
 40
0
 40
1
 40
1
 40
1
 40
1
 10
40.162376
 20
63.784510
 30
0.0
 10
39.535460
 20
63.784510
 30
0.0
 10
38.970273
 20
63.406865
 30
0.0
 10
38.730363
 20
62.827669
 30
0.0
  0
SPLINE
  5
19d
100
AcDbEntity
  8
Layer_1
 62
3
100
AcDbSpline
 70
8
 71
3
 72
8
 73
4
 74
0
 40
0
 40
0
 40
0
 40
0
 40
1
 40
1
 40
1
 40
1
 10
38.730363
 20
62.827669
 30
0.0
 10
38.490452
 20
62.248474
 30
0.0
 10
38.623064
 20
61.581791
 30
0.0
 10
39.066360
 20
61.138494
 30
0.0
  0
SPLINE
  5
19e
100
AcDbEntity
  8
Layer_1
 62
3
100
AcDbSpline
 70
8
 71
3
 72
8
 73
4
 74
0
 40
0
 40
0
 40
0
 40
0
 40
1
 40
1
 40
1
 40
1
 10
39.066360
 20
61.138494
 30
0.0
 10
39.509657
 20
60.695198
 30
0.0
 10
40.176340
 20
60.562586
 30
0.0
 10
40.755535
 20
60.802497
 30
0.0
  0
SPLINE
  5
19f
100
AcDbEntity
  8
Layer_1
 62
3
100
AcDbSpline
 70
8
 71
3
 72
8
 73
4
 74
0
 40
0
 40
0
 40
0
 40
0
 40
1
 40
1
 40
1
 40
1
 10
40.755535
 20
60.802497
 30
0.0
 10
41.334731
 20
61.042407
 30
0.0
 10
41.712376
 20
61.607594
 30
0.0
 10
41.712376
 20
62.234510
 30
0.0
  0
SPLINE
  5
1a0
100
AcDbEntity
  8
Layer_1
 62
3
100
AcDbSpline
 70
8
 71
3
 72
8
 73
4
 74
0
 40
0
 40
0
 40
0
 40
0
 40
1
 40
1
 40
1
 40
1
 10
41.712376
 20
62.234510
 30
0.0
 10
41.712376
 20
63.090551
 30
0.0
 10
41.018417
 20
63.784510
 30
0.0
 10
40.162376
 20
63.784510
 30
0.0
  0
LWPOLYLINE
  5
1a1
100
AcDbEntity
  8
Layer_1
 62
3
100
AcDbPolyline
 90
4
 70
1
 10
149.162380
 20
129.734543
 30
0.0
 10
154.162380
 20
129.734543
 30
0.0
 10
154.162380
 20
104.734543
 30
0.0
 10
149.162380
 20
104.734543
 30
0.0
  0
LWPOLYLINE
  5
1a2
100
AcDbEntity
  8
Layer_1
 62
3
100
AcDbPolyline
 90
1
 70
1
 10
40.162376
 20
63.784510
 30
0.0
  0
LWPOLYLINE
  5
1a3
100
AcDbEntity
  8
Layer_1
 62
3
100
AcDbPolyline
 90
4
 70
1
 10
149.162380
 20
157.234543
 30
0.0
 10
159.162380
 20
157.234543
 30
0.0
 10
159.162380
 20
129.734543
 30
0.0
 10
149.162380
 20
129.734543
 30
0.0
  0
SPLINE
  5
1a4
100
AcDbEntity
  8
Layer_1
 62
3
100
AcDbSpline
 70
8
 71
3
 72
8
 73
4
 74
0
 40
0
 40
0
 40
0
 40
0
 40
1
 40
1
 40
1
 40
1
 10
154.162380
 20
145.034543
 30
0.0
 10
153.535464
 20
145.034543
 30
0.0
 10
152.970277
 20
144.656898
 30
0.0
 10
152.730367
 20
144.077702
 30
0.0
  0
SPLINE
  5
1a5
100
AcDbEntity
  8
Layer_1
 62
3
100
AcDbSpline
 70
8
 71
3
 72
8
 73
4
 74
0
 40
0
 40
0
 40
0
 40
0
 40
1
 40
1
 40
1
 40
1
 10
152.730367
 20
144.077702
 30
0.0
 10
152.490456
 20
143.498507
 30
0.0
 10
152.623068
 20
142.831824
 30
0.0
 10
153.066364
 20
142.388527
 30
0.0
  0
SPLINE
  5
1a6
100
AcDbEntity
  8
Layer_1
 62
3
100
AcDbSpline
 70
8
 71
3
 72
8
 73
4
 74
0
 40
0
 40
0
 40
0
 40
0
 40
1
 40
1
 40
1
 40
1
 10
153.066364
 20
142.388527
 30
0.0
 10
153.509661
 20
141.945231
 30
0.0
 10
154.176344
 20
141.812619
 30
0.0
 10
154.755539
 20
142.052530
 30
0.0
  0
SPLINE
  5
1a7
100
AcDbEntity
  8
Layer_1
 62
3
100
AcDbSpline
 70
8
 71
3
 72
8
 73
4
 74
0
 40
0
 40
0
 40
0
 40
0
 40
1
 40
1
 40
1
 40
1
 10
154.755539
 20
142.052530
 30
0.0
 10
155.334735
 20
142.292440
 30
0.0
 10
155.712380
 20
142.857627
 30
0.0
 10
155.712380
 20
143.484543
 30
0.0
  0
SPLINE
  5
1a8
100
AcDbEntity
  8
Layer_1
 62
3
100
AcDbSpline
 70
8
 71
3
 72
8
 73
4
 74
0
 40
0
 40
0
 40
0
 40
0
 40
1
 40
1
 40
1
 40
1
 10
155.712380
 20
143.484543
 30
0.0
 10
155.712380
 20
143.895629
 30
0.0
 10
155.549077
 20
144.289877
 30
0.0
 10
155.258396
 20
144.580559
 30
0.0
  0
SPLINE
  5
1a9
100
AcDbEntity
  8
Layer_1
 62
3
100
AcDbSpline
 70
8
 71
3
 72
8
 73
4
 74
0
 40
0
 40
0
 40
0
 40
0
 40
1
 40
1
 40
1
 40
1
 10
155.258396
 20
144.580559
 30
0.0
 10
154.967714
 20
144.871240
 30
0.0
 10
154.573466
 20
145.034543
 30
0.0
 10
154.162380
 20
145.034543
 30
0.0
  0
LWPOLYLINE
  5
1aa
100
AcDbEntity
  8
Layer_1
 62
3
100
AcDbPolyline
 90
4
 70
1
 10
149.162380
 20
143.484543
 30
0.0
 10
154.162380
 20
143.484543
 30
0.0
 10
154.162380
 20
129.734543
 30
0.0
 10
149.162380
 20
129.734543
 30
0.0
  0
LWPOLYLINE
  5
1ab
100
AcDbEntity
  8
Layer_1
 62
3
100
AcDbPolyline
 90
1
 70
1
 10
154.162380
 20
145.034543
 30
0.0
  0
LWPOLYLINE
  5
1ac
100
AcDbEntity
  8
Layer_1
 62
3
100
AcDbPolyline
 90
4
 70
1
 10
149.162380
 20
79.734540
 30
0.0
 10
159.162380
 20
79.734540
 30
0.0
 10
159.162380
 20
52.234540
 30
0.0
 10
149.162380
 20
52.234540
 30
0.0
  0
SPLINE
  5
1ad
100
AcDbEntity
  8
Layer_1
 62
3
100
AcDbSpline
 70
8
 71
3
 72
8
 73
4
 74
0
 40
0
 40
0
 40
0
 40
0
 40
1
 40
1
 40
1
 40
1
 10
154.162380
 20
67.534540
 30
0.0
 10
153.535464
 20
67.534540
 30
0.0
 10
152.970277
 20
67.156895
 30
0.0
 10
152.730367
 20
66.577699
 30
0.0
  0
SPLINE
  5
1ae
100
AcDbEntity
  8
Layer_1
 62
3
100
AcDbSpline
 70
8
 71
3
 72
8
 73
4
 74
0
 40
0
 40
0
 40
0
 40
0
 40
1
 40
1
 40
1
 40
1
 10
152.730367
 20
66.577699
 30
0.0
 10
152.490456
 20
65.998504
 30
0.0
 10
152.623068
 20
65.331821
 30
0.0
 10
153.066364
 20
64.888524
 30
0.0
  0
SPLINE
  5
1af
100
AcDbEntity
  8
Layer_1
 62
3
100
AcDbSpline
 70
8
 71
3
 72
8
 73
4
 74
0
 40
0
 40
0
 40
0
 40
0
 40
1
 40
1
 40
1
 40
1
 10
153.066364
 20
64.888524
 30
0.0
 10
153.509661
 20
64.445228
 30
0.0
 10
154.176344
 20
64.312616
 30
0.0
 10
154.755539
 20
64.552527
 30
0.0
  0
SPLINE
  5
1b0
100
AcDbEntity
  8
Layer_1
 62
3
100
AcDbSpline
 70
8
 71
3
 72
8
 73
4
 74
0
 40
0
 40
0
 40
0
 40
0
 40
1
 40
1
 40
1
 40
1
 10
154.755539
 20
64.552527
 30
0.0
 10
155.334735
 20
64.792437
 30
0.0
 10
155.712380
 20
65.357624
 30
0.0
 10
155.712380
 20
65.984540
 30
0.0
  0
SPLINE
  5
1b1
100
AcDbEntity
  8
Layer_1
 62
3
100
AcDbSpline
 70
8
 71
3
 72
8
 73
4
 74
0
 40
0
 40
0
 40
0
 40
0
 40
1
 40
1
 40
1
 40
1
 10
155.712380
 20
65.984540
 30
0.0
 10
155.712380
 20
66.395626
 30
0.0
 10
155.549077
 20
66.789874
 30
0.0
 10
155.258396
 20
67.080556
 30
0.0
  0
SPLINE
  5
1b2
100
AcDbEntity
  8
Layer_1
 62
3
100
AcDbSpline
 70
8
 71
3
 72
8
 73
4
 74
0
 40
0
 40
0
 40
0
 40
0
 40
1
 40
1
 40
1
 40
1
 10
155.258396
 20
67.080556
 30
0.0
 10
154.967714
 20
67.371237
 30
0.0
 10
154.573466
 20
67.534540
 30
0.0
 10
154.162380
 20
67.534540
 30
0.0
  0
LWPOLYLINE
  5
1b3
100
AcDbEntity
  8
Layer_1
 62
3
100
AcDbPolyline
 90
4
 70
1
 10
149.162380
 20
65.984540
 30
0.0
 10
154.162380
 20
65.984540
 30
0.0
 10
154.162380
 20
52.234540
 30
0.0
 10
149.162380
 20
52.234540
 30
0.0
  0
LWPOLYLINE
  5
1b4
100
AcDbEntity
  8
Layer_1
 62
3
100
AcDbPolyline
 90
1
 70
1
 10
154.162380
 20
67.534540
 30
0.0
  0
LWPOLYLINE
  5
1b5
100
AcDbEntity
  8
Layer_1
 62
3
100
AcDbPolyline
 90
4
 70
1
 10
232.968670
 20
94.352880
 30
0.0
 10
252.968670
 20
94.352880
 30
0.0
 10
252.968670
 20
84.352880
 30
0.0
 10
232.968670
 20
84.352880
 30
0.0
  0
LWPOLYLINE
  5
1b6
100
AcDbEntity
  8
Layer_1
 62
3
100
AcDbPolyline
 90
4
 70
1
 10
43.056511
 20
133.887009
 30
0.0
 10
48.056511
 20
133.887009
 30
0.0
 10
48.056511
 20
128.887009
 30
0.0
 10
43.056511
 20
128.887009
 30
0.0
  0
LWPOLYLINE
  5
1b7
100
AcDbEntity
  8
Layer_1
 62
3
100
AcDbPolyline
 90
4
 70
1
 10
43.056511
 20
120.557007
 30
0.0
 10
48.056511
 20
120.557007
 30
0.0
 10
48.056511
 20
115.557007
 30
0.0
 10
43.056511
 20
115.557007
 30
0.0
  0
LWPOLYLINE
  5
1b8
100
AcDbEntity
  8
Layer_1
 62
3
100
AcDbPolyline
 90
4
 70
1
 10
43.056511
 20
94.287830
 30
0.0
 10
48.056511
 20
94.287830
 30
0.0
 10
48.056511
 20
89.287830
 30
0.0
 10
43.056511
 20
89.287830
 30
0.0
  0
LWPOLYLINE
  5
1b9
100
AcDbEntity
  8
Layer_1
 62
3
100
AcDbPolyline
 90
4
 70
1
 10
43.056511
 20
80.957840
 30
0.0
 10
48.056511
 20
80.957840
 30
0.0
 10
48.056511
 20
75.957840
 30
0.0
 10
43.056511
 20
75.957840
 30
0.0
  0
LWPOLYLINE
  5
1ba
100
AcDbEntity
  8
Layer_1
 62
3
100
AcDbPolyline
 90
4
 70
1
 10
82.655174
 20
94.288370
 30
0.0
 10
87.655174
 20
94.288370
 30
0.0
 10
87.655174
 20
89.288370
 30
0.0
 10
82.655174
 20
89.288370
 30
0.0
  0
LWPOLYLINE
  5
1bb
100
AcDbEntity
  8
Layer_1
 62
3
100
AcDbPolyline
 90
4
 70
1
 10
82.655174
 20
80.958370
 30
0.0
 10
87.655174
 20
80.958370
 30
0.0
 10
87.655174
 20
75.958370
 30
0.0
 10
82.655174
 20
75.958370
 30
0.0
  0
LWPOLYLINE
  5
1bc
100
AcDbEntity
  8
Layer_1
 62
3
100
AcDbPolyline
 90
4
 70
1
 10
82.655144
 20
133.886497
 30
0.0
 10
87.655144
 20
133.886497
 30
0.0
 10
87.655144
 20
128.886497
 30
0.0
 10
82.655144
 20
128.886497
 30
0.0
  0
LWPOLYLINE
  5
1bd
100
AcDbEntity
  8
Layer_1
 62
3
100
AcDbPolyline
 90
4
 70
1
 10
82.655144
 20
120.556496
 30
0.0
 10
87.655144
 20
120.556496
 30
0.0
 10
87.655144
 20
115.556496
 30
0.0
 10
82.655144
 20
115.556496
 30
0.0
  0
LWPOLYLINE
  5
1be
100
AcDbEntity
  8
Layer_1
 62
3
100
AcDbPolyline
 90
4
 70
1
 10
97.334442
 20
133.887009
 30
0.0
 10
102.334442
 20
133.887009
 30
0.0
 10
102.334442
 20
128.887009
 30
0.0
 10
97.334442
 20
128.887009
 30
0.0
  0
LWPOLYLINE
  5
1bf
100
AcDbEntity
  8
Layer_1
 62
3
100
AcDbPolyline
 90
4
 70
1
 10
97.334442
 20
120.557007
 30
0.0
 10
102.334442
 20
120.557007
 30
0.0
 10
102.334442
 20
115.557007
 30
0.0
 10
97.334442
 20
115.557007
 30
0.0
  0
LWPOLYLINE
  5
1c0
100
AcDbEntity
  8
Layer_1
 62
3
100
AcDbPolyline
 90
4
 70
1
 10
99.450989
 20
96.217150
 30
0.0
 10
104.450989
 20
96.217150
 30
0.0
 10
104.450989
 20
91.217150
 30
0.0
 10
99.450989
 20
91.217150
 30
0.0
  0
LWPOLYLINE
  5
1c1
100
AcDbEntity
  8
Layer_1
 62
3
100
AcDbPolyline
 90
4
 70
1
 10
99.450989
 20
82.887140
 30
0.0
 10
104.450989
 20
82.887140
 30
0.0
 10
104.450989
 20
77.887140
 30
0.0
 10
99.450989
 20
77.887140
 30
0.0
  0
LWPOLYLINE
  5
1c2
100
AcDbEntity
  8
Layer_1
 62
3
100
AcDbPolyline
 90
4
 70
1
 10
136.933110
 20
94.288370
 30
0.0
 10
141.933110
 20
94.288370
 30
0.0
 10
141.933110
 20
89.288370
 30
0.0
 10
136.933110
 20
89.288370
 30
0.0
  0
LWPOLYLINE
  5
1c3
100
AcDbEntity
  8
Layer_1
 62
3
100
AcDbPolyline
 90
4
 70
1
 10
136.933110
 20
80.958370
 30
0.0
 10
141.933110
 20
80.958370
 30
0.0
 10
141.933110
 20
75.958370
 30
0.0
 10
136.933110
 20
75.958370
 30
0.0
  0
LWPOLYLINE
  5
1c4
100
AcDbEntity
  8
Layer_1
 62
3
100
AcDbPolyline
 90
4
 70
1
 10
136.933200
 20
133.698860
 30
0.0
 10
141.933200
 20
133.698860
 30
0.0
 10
141.933200
 20
128.698860
 30
0.0
 10
136.933200
 20
128.698860
 30
0.0
  0
LWPOLYLINE
  5
1c5
100
AcDbEntity
  8
Layer_1
 62
3
100
AcDbPolyline
 90
4
 70
1
 10
136.933200
 20
120.368851
 30
0.0
 10
141.933200
 20
120.368851
 30
0.0
 10
141.933200
 20
115.368851
 30
0.0
 10
136.933200
 20
115.368851
 30
0.0
  0
LWPOLYLINE
  5
1c6
100
AcDbEntity
  8
Layer_1
 62
3
100
AcDbPolyline
 90
4
 70
1
 10
166.391660
 20
133.887009
 30
0.0
 10
171.391660
 20
133.887009
 30
0.0
 10
171.391660
 20
128.887009
 30
0.0
 10
166.391660
 20
128.887009
 30
0.0
  0
LWPOLYLINE
  5
1c7
100
AcDbEntity
  8
Layer_1
 62
3
100
AcDbPolyline
 90
4
 70
1
 10
166.391660
 20
120.557014
 30
0.0
 10
171.391660
 20
120.557014
 30
0.0
 10
171.391660
 20
115.557014
 30
0.0
 10
166.391660
 20
115.557014
 30
0.0
  0
LWPOLYLINE
  5
1c8
100
AcDbEntity
  8
Layer_1
 62
3
100
AcDbPolyline
 90
4
 70
1
 10
205.990330
 20
133.886497
 30
0.0
 10
210.990330
 20
133.886497
 30
0.0
 10
210.990330
 20
128.886497
 30
0.0
 10
205.990330
 20
128.886497
 30
0.0
  0
LWPOLYLINE
  5
1c9
100
AcDbEntity
  8
Layer_1
 62
3
100
AcDbPolyline
 90
4
 70
1
 10
205.990330
 20
120.556496
 30
0.0
 10
210.990330
 20
120.556496
 30
0.0
 10
210.990330
 20
115.556496
 30
0.0
 10
205.990330
 20
115.556496
 30
0.0
  0
LWPOLYLINE
  5
1ca
100
AcDbEntity
  8
Layer_1
 62
3
100
AcDbPolyline
 90
4
 70
1
 10
205.990360
 20
94.288370
 30
0.0
 10
210.990360
 20
94.288370
 30
0.0
 10
210.990360
 20
89.288370
 30
0.0
 10
205.990360
 20
89.288370
 30
0.0
  0
LWPOLYLINE
  5
1cb
100
AcDbEntity
  8
Layer_1
 62
3
100
AcDbPolyline
 90
4
 70
1
 10
205.990360
 20
80.958370
 30
0.0
 10
210.990360
 20
80.958370
 30
0.0
 10
210.990360
 20
75.958370
 30
0.0
 10
205.990360
 20
75.958370
 30
0.0
  0
LWPOLYLINE
  5
1cc
100
AcDbEntity
  8
Layer_1
 62
3
100
AcDbPolyline
 90
4
 70
1
 10
166.391780
 20
94.100200
 30
0.0
 10
171.391780
 20
94.100200
 30
0.0
 10
171.391780
 20
89.100200
 30
0.0
 10
166.391780
 20
89.100200
 30
0.0
  0
LWPOLYLINE
  5
1cd
100
AcDbEntity
  8
Layer_1
 62
3
100
AcDbPolyline
 90
4
 70
1
 10
166.391780
 20
80.770200
 30
0.0
 10
171.391780
 20
80.770200
 30
0.0
 10
171.391780
 20
75.770200
 30
0.0
 10
166.391780
 20
75.770200
 30
0.0
  0
LWPOLYLINE
  5
1ce
100
AcDbEntity
  8
Layer_1
 62
3
100
AcDbPolyline
 90
4
 70
1
 10
220.669630
 20
94.287830
 30
0.0
 10
225.669630
 20
94.287830
 30
0.0
 10
225.669630
 20
89.287830
 30
0.0
 10
220.669630
 20
89.287830
 30
0.0
  0
LWPOLYLINE
  5
1cf
100
AcDbEntity
  8
Layer_1
 62
3
100
AcDbPolyline
 90
4
 70
1
 10
220.669630
 20
80.957840
 30
0.0
 10
225.669630
 20
80.957840
 30
0.0
 10
225.669630
 20
75.957840
 30
0.0
 10
220.669630
 20
75.957840
 30
0.0
  0
LWPOLYLINE
  5
1d0
100
AcDbEntity
  8
Layer_1
 62
3
100
AcDbPolyline
 90
4
 70
1
 10
220.669600
 20
133.887009
 30
0.0
 10
225.669600
 20
133.887009
 30
0.0
 10
225.669600
 20
128.887009
 30
0.0
 10
220.669600
 20
128.887009
 30
0.0
  0
LWPOLYLINE
  5
1d1
100
AcDbEntity
  8
Layer_1
 62
3
100
AcDbPolyline
 90
4
 70
1
 10
220.669600
 20
120.557007
 30
0.0
 10
225.669600
 20
120.557007
 30
0.0
 10
225.669600
 20
115.557007
 30
0.0
 10
220.669600
 20
115.557007
 30
0.0
  0
LWPOLYLINE
  5
1d2
100
AcDbEntity
  8
Layer_1
 62
3
100
AcDbPolyline
 90
4
 70
1
 10
260.268310
 20
133.886497
 30
0.0
 10
265.268310
 20
133.886497
 30
0.0
 10
265.268310
 20
128.886497
 30
0.0
 10
260.268310
 20
128.886497
 30
0.0
  0
LWPOLYLINE
  5
1d3
100
AcDbEntity
  8
Layer_1
 62
3
100
AcDbPolyline
 90
4
 70
1
 10
260.268310
 20
120.556496
 30
0.0
 10
265.268310
 20
120.556496
 30
0.0
 10
265.268310
 20
115.556496
 30
0.0
 10
260.268310
 20
115.556496
 30
0.0
  0
LWPOLYLINE
  5
1d4
100
AcDbEntity
  8
Layer_1
 62
3
100
AcDbPolyline
 90
4
 70
1
 10
260.268400
 20
94.100720
 30
0.0
 10
265.268400
 20
94.100720
 30
0.0
 10
265.268400
 20
89.100720
 30
0.0
 10
260.268400
 20
89.100720
 30
0.0
  0
LWPOLYLINE
  5
1d5
100
AcDbEntity
  8
Layer_1
 62
3
100
AcDbPolyline
 90
4
 70
1
 10
260.268400
 20
80.770720
 30
0.0
 10
265.268400
 20
80.770720
 30
0.0
 10
265.268400
 20
75.770720
 30
0.0
 10
260.268400
 20
75.770720
 30
0.0
  0
LWPOLYLINE
  5
1d6
100
AcDbEntity
  8
Layer_1
 62
3
100
AcDbPolyline
 90
4
 70
1
 10
74.708733
 20
146.833431
 30
0.0
 10
74.708733
 20
141.833431
 30
0.0
 10
69.708733
 20
141.833431
 30
0.0
 10
69.708733
 20
146.833431
 30
0.0
  0
LWPOLYLINE
  5
1d7
100
AcDbEntity
  8
Layer_1
 62
3
100
AcDbPolyline
 90
4
 70
1
 10
61.378746
 20
146.833431
 30
0.0
 10
61.378746
 20
141.833431
 30
0.0
 10
56.378746
 20
141.833431
 30
0.0
 10
56.378746
 20
146.833431
 30
0.0
  0
LWPOLYLINE
  5
1d8
100
AcDbEntity
  8
Layer_1
 62
3
100
AcDbPolyline
 90
4
 70
1
 10
74.520561
 20
107.234870
 30
0.0
 10
74.520561
 20
102.234870
 30
0.0
 10
69.520561
 20
102.234870
 30
0.0
 10
69.520561
 20
107.234870
 30
0.0
  0
LWPOLYLINE
  5
1d9
100
AcDbEntity
  8
Layer_1
 62
3
100
AcDbPolyline
 90
4
 70
1
 10
61.190575
 20
107.234870
 30
0.0
 10
61.190575
 20
102.234870
 30
0.0
 10
56.190575
 20
102.234870
 30
0.0
 10
56.190575
 20
107.234870
 30
0.0
  0
LWPOLYLINE
  5
1da
100
AcDbEntity
  8
Layer_1
 62
3
100
AcDbPolyline
 90
4
 70
1
 10
74.520561
 20
67.636060
 30
0.0
 10
74.520561
 20
62.636060
 30
0.0
 10
69.520561
 20
62.636060
 30
0.0
 10
69.520561
 20
67.636060
 30
0.0
  0
LWPOLYLINE
  5
1db
100
AcDbEntity
  8
Layer_1
 62
3
100
AcDbPolyline
 90
4
 70
1
 10
61.190575
 20
67.636060
 30
0.0
 10
61.190575
 20
62.636060
 30
0.0
 10
56.190575
 20
62.636060
 30
0.0
 10
56.190575
 20
67.636060
 30
0.0
  0
LWPOLYLINE
  5
1dc
100
AcDbEntity
  8
Layer_1
 62
3
100
AcDbPolyline
 90
4
 70
1
 10
128.798520
 20
67.636060
 30
0.0
 10
128.798520
 20
62.636060
 30
0.0
 10
123.798520
 20
62.636060
 30
0.0
 10
123.798520
 20
67.636060
 30
0.0
  0
LWPOLYLINE
  5
1dd
100
AcDbEntity
  8
Layer_1
 62
3
100
AcDbPolyline
 90
4
 70
1
 10
115.468510
 20
67.636060
 30
0.0
 10
115.468510
 20
62.636060
 30
0.0
 10
110.468510
 20
62.636060
 30
0.0
 10
110.468510
 20
67.636060
 30
0.0
  0
LWPOLYLINE
  5
1de
100
AcDbEntity
  8
Layer_1
 62
3
100
AcDbPolyline
 90
4
 70
1
 10
128.798520
 20
107.234700
 30
0.0
 10
128.798520
 20
102.234700
 30
0.0
 10
123.798520
 20
102.234700
 30
0.0
 10
123.798520
 20
107.234700
 30
0.0
  0
LWPOLYLINE
  5
1df
100
AcDbEntity
  8
Layer_1
 62
3
100
AcDbPolyline
 90
4
 70
1
 10
115.468510
 20
107.234700
 30
0.0
 10
115.468510
 20
102.234700
 30
0.0
 10
110.468510
 20
102.234700
 30
0.0
 10
110.468510
 20
107.234700
 30
0.0
  0
LWPOLYLINE
  5
1e0
100
AcDbEntity
  8
Layer_1
 62
3
100
AcDbPolyline
 90
4
 70
1
 10
128.799070
 20
146.833344
 30
0.0
 10
128.799070
 20
141.833344
 30
0.0
 10
123.799070
 20
141.833344
 30
0.0
 10
123.799070
 20
146.833344
 30
0.0
  0
LWPOLYLINE
  5
1e1
100
AcDbEntity
  8
Layer_1
 62
3
100
AcDbPolyline
 90
4
 70
1
 10
115.469090
 20
146.833344
 30
0.0
 10
115.469090
 20
141.833344
 30
0.0
 10
110.469090
 20
141.833344
 30
0.0
 10
110.469090
 20
146.833344
 30
0.0
  0
LWPOLYLINE
  5
1e2
100
AcDbEntity
  8
Layer_1
 62
3
100
AcDbPolyline
 90
4
 70
1
 10
197.856260
 20
146.833347
 30
0.0
 10
197.856260
 20
141.833347
 30
0.0
 10
192.856260
 20
141.833347
 30
0.0
 10
192.856260
 20
146.833347
 30
0.0
  0
LWPOLYLINE
  5
1e3
100
AcDbEntity
  8
Layer_1
 62
3
100
AcDbPolyline
 90
4
 70
1
 10
184.526280
 20
146.833347
 30
0.0
 10
184.526280
 20
141.833347
 30
0.0
 10
179.526280
 20
141.833347
 30
0.0
 10
179.526280
 20
146.833347
 30
0.0
  0
LWPOLYLINE
  5
1e4
100
AcDbEntity
  8
Layer_1
 62
3
100
AcDbPolyline
 90
4
 70
1
 10
198.043400
 20
107.234790
 30
0.0
 10
198.043400
 20
102.234790
 30
0.0
 10
193.043400
 20
102.234790
 30
0.0
 10
193.043400
 20
107.234790
 30
0.0
  0
LWPOLYLINE
  5
1e5
100
AcDbEntity
  8
Layer_1
 62
3
100
AcDbPolyline
 90
4
 70
1
 10
184.713380
 20
107.234790
 30
0.0
 10
184.713380
 20
102.234790
 30
0.0
 10
179.713380
 20
102.234790
 30
0.0
 10
179.713380
 20
107.234790
 30
0.0
  0
LWPOLYLINE
  5
1e6
100
AcDbEntity
  8
Layer_1
 62
3
100
AcDbPolyline
 90
4
 70
1
 10
198.043370
 20
67.636140
 30
0.0
 10
198.043370
 20
62.636140
 30
0.0
 10
193.043370
 20
62.636140
 30
0.0
 10
193.043370
 20
67.636140
 30
0.0
  0
LWPOLYLINE
  5
1e7
100
AcDbEntity
  8
Layer_1
 62
3
100
AcDbPolyline
 90
4
 70
1
 10
184.713380
 20
67.636140
 30
0.0
 10
184.713380
 20
62.636140
 30
0.0
 10
179.713380
 20
62.636140
 30
0.0
 10
179.713380
 20
67.636140
 30
0.0
  0
LWPOLYLINE
  5
1e8
100
AcDbEntity
  8
Layer_1
 62
3
100
AcDbPolyline
 90
4
 70
1
 10
252.133680
 20
67.636220
 30
0.0
 10
252.133680
 20
62.636220
 30
0.0
 10
247.133680
 20
62.636220
 30
0.0
 10
247.133680
 20
67.636220
 30
0.0
  0
LWPOLYLINE
  5
1e9
100
AcDbEntity
  8
Layer_1
 62
3
100
AcDbPolyline
 90
4
 70
1
 10
238.803670
 20
67.636220
 30
0.0
 10
238.803670
 20
62.636220
 30
0.0
 10
233.803670
 20
62.636220
 30
0.0
 10
233.803670
 20
67.636220
 30
0.0
  0
LWPOLYLINE
  5
1ea
100
AcDbEntity
  8
Layer_1
 62
3
100
AcDbPolyline
 90
4
 70
1
 10
252.133680
 20
107.234700
 30
0.0
 10
252.133680
 20
102.234700
 30
0.0
 10
247.133680
 20
102.234700
 30
0.0
 10
247.133680
 20
107.234700
 30
0.0
  0
LWPOLYLINE
  5
1eb
100
AcDbEntity
  8
Layer_1
 62
3
100
AcDbPolyline
 90
4
 70
1
 10
238.803670
 20
107.234700
 30
0.0
 10
238.803670
 20
102.234700
 30
0.0
 10
233.803670
 20
102.234700
 30
0.0
 10
233.803670
 20
107.234700
 30
0.0
  0
LWPOLYLINE
  5
1ec
100
AcDbEntity
  8
Layer_1
 62
3
100
AcDbPolyline
 90
4
 70
1
 10
252.134200
 20
146.833347
 30
0.0
 10
252.134200
 20
141.833347
 30
0.0
 10
247.134200
 20
141.833347
 30
0.0
 10
247.134200
 20
146.833347
 30
0.0
  0
LWPOLYLINE
  5
1ed
100
AcDbEntity
  8
Layer_1
 62
3
100
AcDbPolyline
 90
4
 70
1
 10
238.804180
 20
146.833347
 30
0.0
 10
238.804180
 20
141.833347
 30
0.0
 10
233.804180
 20
141.833347
 30
0.0
 10
233.804180
 20
146.833347
 30
0.0
  0
ENDSEC
  0
SECTION
  2
OBJECTS
  0
DICTIONARY
  5
C
330
0
100
AcDbDictionary
  3
ACAD_GROUP
350
D
  3
ACAD_MLINESTYLE
350
17
  0
DICTIONARY
  5
D
330
C
100
AcDbDictionary
  0
DICTIONARY
  5
1A
330
C
100
AcDbDictionary
  0
DICTIONARY
  5
17
330
C
100
AcDbDictionary
  3
STANDARD
350
18
  0
DICTIONARY
  5
19
330
C
100
AcDbDictionary
  0
ENDSEC
  0
EOF
