  0
SECTION
  2
HEADER
  9
$ACADVER
  1
AC1014
  9
$HANDSEED
  5
FFFF
  9
$MEASUREMENT
 70
     1
  0
ENDSEC
  0
SECTION
  2
TABLES
  0
TABLE
  2
VPORT
  5
8
330
0
100
AcDbSymbolTable
 70
     4
  0
VPORT
  5
2E
330
8
100
AcDbSymbolTableRecord
100
AcDbViewportTableRecord
  2
*ACTIVE
 70
     0
 10
0.0
 20
0.0
 11
1.0
 21
1.0
 12
210.0
 22
148.5
 13
0.0
 23
0.0
 14
10.0
 24
10.0
 15
10.0
 25
10.0
 16
0.0
 26
0.0
 36
1.0
 17
0.0
 27
0.0
 37
0.0
 40
341.0
 41
1.24
 42
50.0
 43
0.0
 44
0.0
 50
0.0
 51
0.0
 71
     0
 72
   100
 73
     1
 74
     3
 75
     0
 76
     0
 77
     0
 78
     0
  0
ENDTAB
  0
TABLE
  2
LTYPE
  5
5
330
0
100
AcDbSymbolTable
 70
     1
  0
LTYPE
  5
14
330
5
100
AcDbSymbolTableRecord
100
AcDbLinetypeTableRecord
  2
BYBLOCK
 70
     0
  3

 72
    65
 73
     0
 40
0.0
  0
LTYPE
  5
15
330
5
100
AcDbSymbolTableRecord
100
AcDbLinetypeTableRecord
  2
BYLAYER
 70
     0
  3

 72
    65
 73
     0
 40
0.0
  0
LTYPE
  5
16
330
5
100
AcDbSymbolTableRecord
100
AcDbLinetypeTableRecord
  2
CONTINUOUS
 70
     0
  3
Solid line
 72
    65
 73
     0
 40
0.0
  0
ENDTAB
  0
TABLE
  2
LAYER
  5
2
100
AcDbSymbolTable
 70
2
  0
LAYER
  5
50
100
AcDbSymbolTableRecord
100
AcDbLayerTableRecord
  2
0
 70
0
  6
CONTINUOUS
  0
LAYER
  5
51
100
AcDbSymbolTableRecord
100
AcDbLayerTableRecord
  2
Layer_1
 70
0
  6
CONTINUOUS
  0
ENDTAB
  0
TABLE
  2
STYLE
  5
3
330
0
100
AcDbSymbolTable
 70
     1
  0
STYLE
  5
11
330
3
100
AcDbSymbolTableRecord
100
AcDbTextStyleTableRecord
  2
STANDARD
 70
     0
 40
0.0
 41
1.0
 50
0.0
 71
     0
 42
2.5
  3
txt
  4

  0
ENDTAB
  0
TABLE
  2
VIEW
  5
6
330
0
100
AcDbSymbolTable
 70
     0
  0
ENDTAB
  0
TABLE
  2
UCS
  5
7
330
0
100
AcDbSymbolTable
 70
     0
  0
ENDTAB
  0
TABLE
  2
APPID
  5
9
330
0
100
AcDbSymbolTable
 70
     2
  0
APPID
  5
12
330
9
100
AcDbSymbolTableRecord
100
AcDbRegAppTableRecord
  2
ACAD
 70
     0
  0
ENDTAB
  0
TABLE
  2
DIMSTYLE
  5
A
330
0
100
AcDbSymbolTable
 70
     1
  0
DIMSTYLE
105
27
330
A
100
AcDbSymbolTableRecord
100
AcDbDimStyleTableRecord
  2
ISO-25
 70
     0
  3

  4

  5

  6

  7

 40
1.0
 41
2.5
 42
0.625
 43
3.75
 44
1.25
 45
0.0
 46
0.0
 47
0.0
 48
0.0
140
2.5
141
2.5
142
0.0
143
0.03937007874016
144
1.0
145
0.0
146
1.0
147
0.625
 71
     0
 72
     0
 73
     0
 74
     0
 75
     0
 76
     0
 77
     1
 78
     8
170
     0
171
     3
172
     1
173
     0
174
     0
175
     0
176
     0
177
     0
178
     0
270
     2
271
     2
272
     2
273
     2
274
     3
340
11
275
     0
280
     0
281
     0
282
     0
283
     0
284
     8
285
     0
286
     0
287
     3
288
     0
  0
ENDTAB
  0
TABLE
  2
BLOCK_RECORD
  5
1
330
0
100
AcDbSymbolTable
 70
     1
  0
BLOCK_RECORD
  5
1F
330
1
100
AcDbSymbolTableRecord
100
AcDbBlockTableRecord
  2
*MODEL_SPACE
  0
BLOCK_RECORD
  5
1B
330
1
100
AcDbSymbolTableRecord
100
AcDbBlockTableRecord
  2
*PAPER_SPACE
  0
ENDTAB
  0
ENDSEC
  0
SECTION
  2
BLOCKS
  0
BLOCK
  5
20
330
1F
100
AcDbEntity
  8
0
100
AcDbBlockBegin
  2
*MODEL_SPACE
 70
     0
 10
0.0
 20
0.0
 30
0.0
  3
*MODEL_SPACE
  1

  0
ENDBLK
  5
21
330
1F
100
AcDbEntity
  8
0
100
AcDbBlockEnd
  0
BLOCK
  5
1C
330
1B
100
AcDbEntity
 67
     1
  8
0
100
AcDbBlockBegin
  2
*PAPER_SPACE
  1

  0
ENDBLK
  5
1D
330
1B
100
AcDbEntity
 67
     1
  8
0
100
AcDbBlockEnd
  0
ENDSEC
  0
SECTION
  2
ENTITIES
  0
LWPOLYLINE
  5
100
100
AcDbEntity
  8
Layer_1
 62
3
100
AcDbPolyline
 90
6
 70
1
 10
45.460444
 20
76.395140
 30
0.0
 10
41.535104
 20
72.469800
 30
0.0
 10
45.460444
 20
68.544980
 30
0.0
 10
72.975564
 20
68.544980
 30
0.0
 10
76.900384
 20
72.469800
 30
0.0
 10
72.975564
 20
76.395140
 30
0.0
  0
LWPOLYLINE
  5
101
100
AcDbEntity
  8
Layer_1
 62
3
100
AcDbPolyline
 90
6
 70
1
 10
35.493594
 20
78.511820
 30
0.0
 10
39.418934
 20
74.586480
 30
0.0
 10
43.343764
 20
78.511820
 30
0.0
 10
43.343764
 20
106.026940
 30
0.0
 10
39.418934
 20
109.951760
 30
0.0
 10
35.493594
 20
106.026940
 30
0.0
  0
LWPOLYLINE
  5
102
100
AcDbEntity
  8
Layer_1
 62
3
100
AcDbPolyline
 90
6
 70
1
 10
82.942414
 20
106.026940
 30
0.0
 10
79.017074
 20
109.952290
 30
0.0
 10
75.092244
 20
106.026940
 30
0.0
 10
75.092244
 20
78.511820
 30
0.0
 10
79.017074
 20
74.587000
 30
0.0
 10
82.942414
 20
78.511820
 30
0.0
  0
LWPOLYLINE
  5
103
100
AcDbEntity
  8
Layer_1
 62
3
100
AcDbPolyline
 90
6
 70
1
 10
45.460444
 20
115.993794
 30
0.0
 10
41.535104
 20
112.068454
 30
0.0
 10
45.460444
 20
108.143620
 30
0.0
 10
72.975564
 20
108.143620
 30
0.0
 10
76.900384
 20
112.068454
 30
0.0
 10
72.975564
 20
115.993794
 30
0.0
  0
LWPOLYLINE
  5
104
100
AcDbEntity
  8
Layer_1
 62
3
100
AcDbPolyline
 90
6
 70
1
 10
45.460964
 20
155.592444
 30
0.0
 10
41.535614
 20
151.667104
 30
0.0
 10
45.460964
 20
147.742274
 30
0.0
 10
72.976084
 20
147.742274
 30
0.0
 10
76.900904
 20
151.667104
 30
0.0
 10
72.976084
 20
155.592444
 30
0.0
  0
LWPOLYLINE
  5
105
100
AcDbEntity
  8
Layer_1
 62
3
100
AcDbPolyline
 90
6
 70
1
 10
75.092244
 20
118.110474
 30
0.0
 10
79.017584
 20
114.185134
 30
0.0
 10
82.942414
 20
118.110474
 30
0.0
 10
82.942414
 20
145.625594
 30
0.0
 10
79.017584
 20
149.550424
 30
0.0
 10
75.092244
 20
145.625594
 30
0.0
  0
LWPOLYLINE
  5
106
100
AcDbEntity
  8
Layer_1
 62
3
100
AcDbPolyline
 90
6
 70
1
 10
43.343764
 20
145.625594
 30
0.0
 10
39.418424
 20
149.550934
 30
0.0
 10
35.493594
 20
145.625594
 30
0.0
 10
35.493594
 20
118.110474
 30
0.0
 10
39.418424
 20
114.185654
 30
0.0
 10
43.343764
 20
118.110474
 30
0.0
  0
LWPOLYLINE
  5
107
100
AcDbEntity
  8
Layer_1
 62
3
100
AcDbPolyline
 90
6
 70
1
 10
99.738394
 20
76.395140
 30
0.0
 10
95.813054
 20
72.469800
 30
0.0
 10
99.738394
 20
68.544980
 30
0.0
 10
127.253520
 20
68.544980
 30
0.0
 10
131.178340
 20
72.469800
 30
0.0
 10
127.253520
 20
76.395140
 30
0.0
  0
LWPOLYLINE
  5
108
100
AcDbEntity
  8
Layer_1
 62
3
100
AcDbPolyline
 90
6
 70
1
 10
89.771544
 20
78.511820
 30
0.0
 10
93.696884
 20
74.586480
 30
0.0
 10
97.621714
 20
78.511820
 30
0.0
 10
97.621714
 20
106.026940
 30
0.0
 10
93.696884
 20
109.951760
 30
0.0
 10
89.771544
 20
106.026940
 30
0.0
  0
LWPOLYLINE
  5
109
100
AcDbEntity
  8
Layer_1
 62
3
100
AcDbPolyline
 90
6
 70
1
 10
137.220360
 20
106.026940
 30
0.0
 10
133.295020
 20
109.952290
 30
0.0
 10
129.370190
 20
106.026940
 30
0.0
 10
129.370190
 20
78.511820
 30
0.0
 10
133.295020
 20
74.587000
 30
0.0
 10
137.220360
 20
78.511820
 30
0.0
  0
LWPOLYLINE
  5
10a
100
AcDbEntity
  8
Layer_1
 62
3
100
AcDbPolyline
 90
6
 70
1
 10
99.738394
 20
115.993794
 30
0.0
 10
95.813054
 20
112.068454
 30
0.0
 10
99.738394
 20
108.143620
 30
0.0
 10
127.253520
 20
108.143620
 30
0.0
 10
131.178340
 20
112.068454
 30
0.0
 10
127.253520
 20
115.993794
 30
0.0
  0
LWPOLYLINE
  5
10b
100
AcDbEntity
  8
Layer_1
 62
3
100
AcDbPolyline
 90
6
 70
1
 10
99.738914
 20
155.592444
 30
0.0
 10
95.813574
 20
151.667104
 30
0.0
 10
99.738914
 20
147.742274
 30
0.0
 10
127.254040
 20
147.742274
 30
0.0
 10
131.178860
 20
151.667104
 30
0.0
 10
127.254040
 20
155.592444
 30
0.0
  0
LWPOLYLINE
  5
10c
100
AcDbEntity
  8
Layer_1
 62
3
100
AcDbPolyline
 90
6
 70
1
 10
129.370190
 20
118.110474
 30
0.0
 10
133.295530
 20
114.185134
 30
0.0
 10
137.220360
 20
118.110474
 30
0.0
 10
137.220360
 20
145.625594
 30
0.0
 10
133.295530
 20
149.550424
 30
0.0
 10
129.370190
 20
145.625594
 30
0.0
  0
LWPOLYLINE
  5
10d
100
AcDbEntity
  8
Layer_1
 62
3
100
AcDbPolyline
 90
6
 70
1
 10
97.621714
 20
145.625594
 30
0.0
 10
93.696374
 20
149.550934
 30
0.0
 10
89.771544
 20
145.625594
 30
0.0
 10
89.771544
 20
118.110474
 30
0.0
 10
93.696374
 20
114.185654
 30
0.0
 10
97.621714
 20
118.110474
 30
0.0
  0
LWPOLYLINE
  5
10e
100
AcDbEntity
  8
Layer_1
 62
3
100
AcDbPolyline
 90
6
 70
1
 10
168.795600
 20
76.395140
 30
0.0
 10
164.870260
 20
72.469800
 30
0.0
 10
168.795600
 20
68.544980
 30
0.0
 10
196.310720
 20
68.544980
 30
0.0
 10
200.235540
 20
72.469800
 30
0.0
 10
196.310720
 20
76.395140
 30
0.0
  0
LWPOLYLINE
  5
10f
100
AcDbEntity
  8
Layer_1
 62
3
100
AcDbPolyline
 90
6
 70
1
 10
158.828750
 20
78.511820
 30
0.0
 10
162.754090
 20
74.586480
 30
0.0
 10
166.678920
 20
78.511820
 30
0.0
 10
166.678920
 20
106.026940
 30
0.0
 10
162.754090
 20
109.951760
 30
0.0
 10
158.828750
 20
106.026940
 30
0.0
  0
LWPOLYLINE
  5
110
100
AcDbEntity
  8
Layer_1
 62
3
100
AcDbPolyline
 90
6
 70
1
 10
206.277570
 20
106.026940
 30
0.0
 10
202.352230
 20
109.952290
 30
0.0
 10
198.427400
 20
106.026940
 30
0.0
 10
198.427400
 20
78.511820
 30
0.0
 10
202.352230
 20
74.587000
 30
0.0
 10
206.277570
 20
78.511820
 30
0.0
  0
LWPOLYLINE
  5
111
100
AcDbEntity
  8
Layer_1
 62
3
100
AcDbPolyline
 90
6
 70
1
 10
168.795600
 20
115.993794
 30
0.0
 10
164.870260
 20
112.068454
 30
0.0
 10
168.795600
 20
108.143620
 30
0.0
 10
196.310720
 20
108.143620
 30
0.0
 10
200.235540
 20
112.068454
 30
0.0
 10
196.310720
 20
115.993794
 30
0.0
  0
LWPOLYLINE
  5
112
100
AcDbEntity
  8
Layer_1
 62
3
100
AcDbPolyline
 90
6
 70
1
 10
168.796120
 20
155.592444
 30
0.0
 10
164.870770
 20
151.667104
 30
0.0
 10
168.796120
 20
147.742274
 30
0.0
 10
196.311240
 20
147.742274
 30
0.0
 10
200.236060
 20
151.667104
 30
0.0
 10
196.311240
 20
155.592444
 30
0.0
  0
LWPOLYLINE
  5
113
100
AcDbEntity
  8
Layer_1
 62
3
100
AcDbPolyline
 90
6
 70
1
 10
198.427400
 20
118.110474
 30
0.0
 10
202.352740
 20
114.185134
 30
0.0
 10
206.277570
 20
118.110474
 30
0.0
 10
206.277570
 20
145.625594
 30
0.0
 10
202.352740
 20
149.550424
 30
0.0
 10
198.427400
 20
145.625594
 30
0.0
  0
LWPOLYLINE
  5
114
100
AcDbEntity
  8
Layer_1
 62
3
100
AcDbPolyline
 90
6
 70
1
 10
166.678920
 20
145.625594
 30
0.0
 10
162.753580
 20
149.550934
 30
0.0
 10
158.828750
 20
145.625594
 30
0.0
 10
158.828750
 20
118.110474
 30
0.0
 10
162.753580
 20
114.185654
 30
0.0
 10
166.678920
 20
118.110474
 30
0.0
  0
LWPOLYLINE
  5
115
100
AcDbEntity
  8
Layer_1
 62
3
100
AcDbPolyline
 90
6
 70
1
 10
223.073560
 20
76.395140
 30
0.0
 10
219.148220
 20
72.469800
 30
0.0
 10
223.073560
 20
68.544980
 30
0.0
 10
250.588680
 20
68.544980
 30
0.0
 10
254.513500
 20
72.469800
 30
0.0
 10
250.588680
 20
76.395140
 30
0.0
  0
LWPOLYLINE
  5
116
100
AcDbEntity
  8
Layer_1
 62
3
100
AcDbPolyline
 90
6
 70
1
 10
213.106700
 20
78.511820
 30
0.0
 10
217.032040
 20
74.586480
 30
0.0
 10
220.956870
 20
78.511820
 30
0.0
 10
220.956870
 20
106.026940
 30
0.0
 10
217.032040
 20
109.951760
 30
0.0
 10
213.106700
 20
106.026940
 30
0.0
  0
LWPOLYLINE
  5
117
100
AcDbEntity
  8
Layer_1
 62
3
100
AcDbPolyline
 90
6
 70
1
 10
260.555530
 20
106.026940
 30
0.0
 10
256.630190
 20
109.952290
 30
0.0
 10
252.705360
 20
106.026940
 30
0.0
 10
252.705360
 20
78.511820
 30
0.0
 10
256.630190
 20
74.587000
 30
0.0
 10
260.555530
 20
78.511820
 30
0.0
  0
LWPOLYLINE
  5
118
100
AcDbEntity
  8
Layer_1
 62
3
100
AcDbPolyline
 90
6
 70
1
 10
223.073560
 20
115.993794
 30
0.0
 10
219.148220
 20
112.068454
 30
0.0
 10
223.073560
 20
108.143620
 30
0.0
 10
250.588680
 20
108.143620
 30
0.0
 10
254.513500
 20
112.068454
 30
0.0
 10
250.588680
 20
115.993794
 30
0.0
  0
LWPOLYLINE
  5
119
100
AcDbEntity
  8
Layer_1
 62
3
100
AcDbPolyline
 90
6
 70
1
 10
223.074080
 20
155.592444
 30
0.0
 10
219.148730
 20
151.667104
 30
0.0
 10
223.074080
 20
147.742274
 30
0.0
 10
250.589200
 20
147.742274
 30
0.0
 10
254.514020
 20
151.667104
 30
0.0
 10
250.589200
 20
155.592444
 30
0.0
  0
LWPOLYLINE
  5
11a
100
AcDbEntity
  8
Layer_1
 62
3
100
AcDbPolyline
 90
6
 70
1
 10
252.705360
 20
118.110474
 30
0.0
 10
256.630700
 20
114.185134
 30
0.0
 10
260.555530
 20
118.110474
 30
0.0
 10
260.555530
 20
145.625594
 30
0.0
 10
256.630700
 20
149.550424
 30
0.0
 10
252.705360
 20
145.625594
 30
0.0
  0
SPLINE
  5
11b
100
AcDbEntity
  8
Layer_1
 62
3
100
AcDbSpline
 70
8
 71
3
 72
8
 73
4
 74
0
 40
0
 40
0
 40
0
 40
0
 40
1
 40
1
 40
1
 40
1
 10
148.024060
 20
133.961263
 30
0.0
 10
146.436546
 20
133.961263
 30
0.0
 10
145.005348
 20
133.004967
 30
0.0
 10
144.397833
 20
131.538295
 30
0.0
  0
SPLINE
  5
11c
100
AcDbEntity
  8
Layer_1
 62
3
100
AcDbSpline
 70
8
 71
3
 72
8
 73
4
 74
0
 40
0
 40
0
 40
0
 40
0
 40
1
 40
1
 40
1
 40
1
 10
144.397833
 20
131.538295
 30
0.0
 10
143.790317
 20
130.071623
 30
0.0
 10
144.126124
 20
128.383411
 30
0.0
 10
145.248666
 20
127.260869
 30
0.0
  0
SPLINE
  5
11d
100
AcDbEntity
  8
Layer_1
 62
3
100
AcDbSpline
 70
8
 71
3
 72
8
 73
4
 74
0
 40
0
 40
0
 40
0
 40
0
 40
1
 40
1
 40
1
 40
1
 10
145.248666
 20
127.260869
 30
0.0
 10
146.371208
 20
126.138327
 30
0.0
 10
148.059420
 20
125.802520
 30
0.0
 10
149.526092
 20
126.410036
 30
0.0
  0
SPLINE
  5
11e
100
AcDbEntity
  8
Layer_1
 62
3
100
AcDbSpline
 70
8
 71
3
 72
8
 73
4
 74
0
 40
0
 40
0
 40
0
 40
0
 40
1
 40
1
 40
1
 40
1
 10
149.526092
 20
126.410036
 30
0.0
 10
150.992764
 20
127.017551
 30
0.0
 10
151.949060
 20
128.448749
 30
0.0
 10
151.949060
 20
130.036263
 30
0.0
  0
SPLINE
  5
11f
100
AcDbEntity
  8
Layer_1
 62
3
100
AcDbSpline
 70
8
 71
3
 72
8
 73
4
 74
0
 40
0
 40
0
 40
0
 40
0
 40
1
 40
1
 40
1
 40
1
 10
151.949060
 20
130.036263
 30
0.0
 10
151.949060
 20
131.077238
 30
0.0
 10
151.535534
 20
132.075577
 30
0.0
 10
150.799454
 20
132.811657
 30
0.0
  0
SPLINE
  5
120
100
AcDbEntity
  8
Layer_1
 62
3
100
AcDbSpline
 70
8
 71
3
 72
8
 73
4
 74
0
 40
0
 40
0
 40
0
 40
0
 40
1
 40
1
 40
1
 40
1
 10
150.799454
 20
132.811657
 30
0.0
 10
150.063374
 20
133.547737
 30
0.0
 10
149.065035
 20
133.961263
 30
0.0
 10
148.024060
 20
133.961263
 30
0.0
  0
LWPOLYLINE
  5
121
100
AcDbEntity
  8
Layer_1
 62
3
100
AcDbPolyline
 90
6
 70
1
 10
220.956870
 20
145.625594
 30
0.0
 10
217.031530
 20
149.550934
 30
0.0
 10
213.106700
 20
145.625594
 30
0.0
 10
213.106700
 20
118.110474
 30
0.0
 10
217.031530
 20
114.185654
 30
0.0
 10
220.956870
 20
118.110474
 30
0.0
  0
SPLINE
  5
122
100
AcDbEntity
  8
Layer_1
 62
3
100
AcDbSpline
 70
8
 71
3
 72
8
 73
4
 74
0
 40
0
 40
0
 40
0
 40
0
 40
1
 40
1
 40
1
 40
1
 10
148.024060
 20
98.026140
 30
0.0
 10
146.436546
 20
98.026140
 30
0.0
 10
145.005348
 20
97.069844
 30
0.0
 10
144.397833
 20
95.603172
 30
0.0
  0
SPLINE
  5
123
100
AcDbEntity
  8
Layer_1
 62
3
100
AcDbSpline
 70
8
 71
3
 72
8
 73
4
 74
0
 40
0
 40
0
 40
0
 40
0
 40
1
 40
1
 40
1
 40
1
 10
144.397833
 20
95.603172
 30
0.0
 10
143.790317
 20
94.136500
 30
0.0
 10
144.126124
 20
92.448288
 30
0.0
 10
145.248666
 20
91.325746
 30
0.0
  0
SPLINE
  5
124
100
AcDbEntity
  8
Layer_1
 62
3
100
AcDbSpline
 70
8
 71
3
 72
8
 73
4
 74
0
 40
0
 40
0
 40
0
 40
0
 40
1
 40
1
 40
1
 40
1
 10
145.248666
 20
91.325746
 30
0.0
 10
146.371208
 20
90.203204
 30
0.0
 10
148.059420
 20
89.867397
 30
0.0
 10
149.526092
 20
90.474913
 30
0.0
  0
SPLINE
  5
125
100
AcDbEntity
  8
Layer_1
 62
3
100
AcDbSpline
 70
8
 71
3
 72
8
 73
4
 74
0
 40
0
 40
0
 40
0
 40
0
 40
1
 40
1
 40
1
 40
1
 10
149.526092
 20
90.474913
 30
0.0
 10
150.992764
 20
91.082428
 30
0.0
 10
151.949060
 20
92.513626
 30
0.0
 10
151.949060
 20
94.101140
 30
0.0
  0
SPLINE
  5
126
100
AcDbEntity
  8
Layer_1
 62
3
100
AcDbSpline
 70
8
 71
3
 72
8
 73
4
 74
0
 40
0
 40
0
 40
0
 40
0
 40
1
 40
1
 40
1
 40
1
 10
151.949060
 20
94.101140
 30
0.0
 10
151.949060
 20
95.142115
 30
0.0
 10
151.535534
 20
96.140454
 30
0.0
 10
150.799454
 20
96.876534
 30
0.0
  0
SPLINE
  5
127
100
AcDbEntity
  8
Layer_1
 62
3
100
AcDbSpline
 70
8
 71
3
 72
8
 73
4
 74
0
 40
0
 40
0
 40
0
 40
0
 40
1
 40
1
 40
1
 40
1
 10
150.799454
 20
96.876534
 30
0.0
 10
150.063374
 20
97.612614
 30
0.0
 10
149.065035
 20
98.026140
 30
0.0
 10
148.024060
 20
98.026140
 30
0.0
  0
LWPOLYLINE
  5
128
100
AcDbEntity
  8
Layer_1
 62
3
100
AcDbPolyline
 90
1
 70
1
 10
148.024060
 20
133.961263
 30
0.0
  0
SPLINE
  5
129
100
AcDbEntity
  8
Layer_1
 62
3
100
AcDbSpline
 70
8
 71
3
 72
8
 73
4
 74
0
 40
0
 40
0
 40
0
 40
0
 40
1
 40
1
 40
1
 40
1
 10
262.024600
 20
156.118459
 30
0.0
 10
261.168559
 20
156.118459
 30
0.0
 10
260.474600
 20
155.424500
 30
0.0
 10
260.474600
 20
154.568459
 30
0.0
  0
SPLINE
  5
12a
100
AcDbEntity
  8
Layer_1
 62
3
100
AcDbSpline
 70
8
 71
3
 72
8
 73
4
 74
0
 40
0
 40
0
 40
0
 40
0
 40
1
 40
1
 40
1
 40
1
 10
260.474600
 20
154.568459
 30
0.0
 10
260.474600
 20
153.712418
 30
0.0
 10
261.168559
 20
153.018459
 30
0.0
 10
262.024600
 20
153.018459
 30
0.0
  0
SPLINE
  5
12b
100
AcDbEntity
  8
Layer_1
 62
3
100
AcDbSpline
 70
8
 71
3
 72
8
 73
4
 74
0
 40
0
 40
0
 40
0
 40
0
 40
1
 40
1
 40
1
 40
1
 10
262.024600
 20
153.018459
 30
0.0
 10
262.880641
 20
153.018459
 30
0.0
 10
263.574600
 20
153.712418
 30
0.0
 10
263.574600
 20
154.568459
 30
0.0
  0
SPLINE
  5
12c
100
AcDbEntity
  8
Layer_1
 62
3
100
AcDbSpline
 70
8
 71
3
 72
8
 73
4
 74
0
 40
0
 40
0
 40
0
 40
0
 40
1
 40
1
 40
1
 40
1
 10
263.574600
 20
154.568459
 30
0.0
 10
263.574600
 20
154.979545
 30
0.0
 10
263.411297
 20
155.373793
 30
0.0
 10
263.120616
 20
155.664475
 30
0.0
  0
SPLINE
  5
12d
100
AcDbEntity
  8
Layer_1
 62
3
100
AcDbSpline
 70
8
 71
3
 72
8
 73
4
 74
0
 40
0
 40
0
 40
0
 40
0
 40
1
 40
1
 40
1
 40
1
 10
263.120616
 20
155.664475
 30
0.0
 10
262.829934
 20
155.955156
 30
0.0
 10
262.435686
 20
156.118459
 30
0.0
 10
262.024600
 20
156.118459
 30
0.0
  0
LWPOLYLINE
  5
12e
100
AcDbEntity
  8
Layer_1
 62
3
100
AcDbPolyline
 90
1
 70
1
 10
148.024060
 20
98.026140
 30
0.0
  0
SPLINE
  5
12f
100
AcDbEntity
  8
Layer_1
 62
3
100
AcDbSpline
 70
8
 71
3
 72
8
 73
4
 74
0
 40
0
 40
0
 40
0
 40
0
 40
1
 40
1
 40
1
 40
1
 10
262.024570
 20
71.118420
 30
0.0
 10
261.397654
 20
71.118420
 30
0.0
 10
260.832467
 20
70.740775
 30
0.0
 10
260.592557
 20
70.161579
 30
0.0
  0
SPLINE
  5
130
100
AcDbEntity
  8
Layer_1
 62
3
100
AcDbSpline
 70
8
 71
3
 72
8
 73
4
 74
0
 40
0
 40
0
 40
0
 40
0
 40
1
 40
1
 40
1
 40
1
 10
260.592557
 20
70.161579
 30
0.0
 10
260.352646
 20
69.582384
 30
0.0
 10
260.485258
 20
68.915701
 30
0.0
 10
260.928554
 20
68.472404
 30
0.0
  0
SPLINE
  5
131
100
AcDbEntity
  8
Layer_1
 62
3
100
AcDbSpline
 70
8
 71
3
 72
8
 73
4
 74
0
 40
0
 40
0
 40
0
 40
0
 40
1
 40
1
 40
1
 40
1
 10
260.928554
 20
68.472404
 30
0.0
 10
261.371851
 20
68.029108
 30
0.0
 10
262.038534
 20
67.896496
 30
0.0
 10
262.617729
 20
68.136407
 30
0.0
  0
SPLINE
  5
132
100
AcDbEntity
  8
Layer_1
 62
3
100
AcDbSpline
 70
8
 71
3
 72
8
 73
4
 74
0
 40
0
 40
0
 40
0
 40
0
 40
1
 40
1
 40
1
 40
1
 10
262.617729
 20
68.136407
 30
0.0
 10
263.196925
 20
68.376317
 30
0.0
 10
263.574570
 20
68.941504
 30
0.0
 10
263.574570
 20
69.568420
 30
0.0
  0
SPLINE
  5
133
100
AcDbEntity
  8
Layer_1
 62
3
100
AcDbSpline
 70
8
 71
3
 72
8
 73
4
 74
0
 40
0
 40
0
 40
0
 40
0
 40
1
 40
1
 40
1
 40
1
 10
263.574570
 20
69.568420
 30
0.0
 10
263.574570
 20
69.979506
 30
0.0
 10
263.411267
 20
70.373754
 30
0.0
 10
263.120586
 20
70.664436
 30
0.0
  0
SPLINE
  5
134
100
AcDbEntity
  8
Layer_1
 62
3
100
AcDbSpline
 70
8
 71
3
 72
8
 73
4
 74
0
 40
0
 40
0
 40
0
 40
0
 40
1
 40
1
 40
1
 40
1
 10
263.120586
 20
70.664436
 30
0.0
 10
262.829904
 20
70.955117
 30
0.0
 10
262.435656
 20
71.118420
 30
0.0
 10
262.024570
 20
71.118420
 30
0.0
  0
LWPOLYLINE
  5
135
100
AcDbEntity
  8
Layer_1
 62
3
100
AcDbPolyline
 90
1
 70
1
 10
262.024600
 20
156.118459
 30
0.0
  0
SPLINE
  5
136
100
AcDbEntity
  8
Layer_1
 62
3
100
AcDbSpline
 70
8
 71
3
 72
8
 73
4
 74
0
 40
0
 40
0
 40
0
 40
0
 40
1
 40
1
 40
1
 40
1
 10
34.024555
 20
156.118459
 30
0.0
 10
33.397639
 20
156.118459
 30
0.0
 10
32.832452
 20
155.740814
 30
0.0
 10
32.592542
 20
155.161618
 30
0.0
  0
SPLINE
  5
137
100
AcDbEntity
  8
Layer_1
 62
3
100
AcDbSpline
 70
8
 71
3
 72
8
 73
4
 74
0
 40
0
 40
0
 40
0
 40
0
 40
1
 40
1
 40
1
 40
1
 10
32.592542
 20
155.161618
 30
0.0
 10
32.352631
 20
154.582423
 30
0.0
 10
32.485243
 20
153.915740
 30
0.0
 10
32.928539
 20
153.472443
 30
0.0
  0
SPLINE
  5
138
100
AcDbEntity
  8
Layer_1
 62
3
100
AcDbSpline
 70
8
 71
3
 72
8
 73
4
 74
0
 40
0
 40
0
 40
0
 40
0
 40
1
 40
1
 40
1
 40
1
 10
32.928539
 20
153.472443
 30
0.0
 10
33.371836
 20
153.029147
 30
0.0
 10
34.038519
 20
152.896535
 30
0.0
 10
34.617714
 20
153.136446
 30
0.0
  0
SPLINE
  5
139
100
AcDbEntity
  8
Layer_1
 62
3
100
AcDbSpline
 70
8
 71
3
 72
8
 73
4
 74
0
 40
0
 40
0
 40
0
 40
0
 40
1
 40
1
 40
1
 40
1
 10
34.617714
 20
153.136446
 30
0.0
 10
35.196910
 20
153.376356
 30
0.0
 10
35.574555
 20
153.941543
 30
0.0
 10
35.574555
 20
154.568459
 30
0.0
  0
SPLINE
  5
13a
100
AcDbEntity
  8
Layer_1
 62
3
100
AcDbSpline
 70
8
 71
3
 72
8
 73
4
 74
0
 40
0
 40
0
 40
0
 40
0
 40
1
 40
1
 40
1
 40
1
 10
35.574555
 20
154.568459
 30
0.0
 10
35.574555
 20
154.979545
 30
0.0
 10
35.411252
 20
155.373793
 30
0.0
 10
35.120571
 20
155.664475
 30
0.0
  0
SPLINE
  5
13b
100
AcDbEntity
  8
Layer_1
 62
3
100
AcDbSpline
 70
8
 71
3
 72
8
 73
4
 74
0
 40
0
 40
0
 40
0
 40
0
 40
1
 40
1
 40
1
 40
1
 10
35.120571
 20
155.664475
 30
0.0
 10
34.829889
 20
155.955156
 30
0.0
 10
34.435641
 20
156.118459
 30
0.0
 10
34.024555
 20
156.118459
 30
0.0
  0
LWPOLYLINE
  5
13c
100
AcDbEntity
  8
Layer_1
 62
3
100
AcDbPolyline
 90
1
 70
1
 10
262.024570
 20
71.118420
 30
0.0
  0
SPLINE
  5
13d
100
AcDbEntity
  8
Layer_1
 62
3
100
AcDbSpline
 70
8
 71
3
 72
8
 73
4
 74
0
 40
0
 40
0
 40
0
 40
0
 40
1
 40
1
 40
1
 40
1
 10
34.024555
 20
71.118420
 30
0.0
 10
33.397639
 20
71.118420
 30
0.0
 10
32.832452
 20
70.740775
 30
0.0
 10
32.592542
 20
70.161579
 30
0.0
  0
SPLINE
  5
13e
100
AcDbEntity
  8
Layer_1
 62
3
100
AcDbSpline
 70
8
 71
3
 72
8
 73
4
 74
0
 40
0
 40
0
 40
0
 40
0
 40
1
 40
1
 40
1
 40
1
 10
32.592542
 20
70.161579
 30
0.0
 10
32.352631
 20
69.582384
 30
0.0
 10
32.485243
 20
68.915701
 30
0.0
 10
32.928539
 20
68.472404
 30
0.0
  0
SPLINE
  5
13f
100
AcDbEntity
  8
Layer_1
 62
3
100
AcDbSpline
 70
8
 71
3
 72
8
 73
4
 74
0
 40
0
 40
0
 40
0
 40
0
 40
1
 40
1
 40
1
 40
1
 10
32.928539
 20
68.472404
 30
0.0
 10
33.371836
 20
68.029108
 30
0.0
 10
34.038519
 20
67.896496
 30
0.0
 10
34.617714
 20
68.136407
 30
0.0
  0
SPLINE
  5
140
100
AcDbEntity
  8
Layer_1
 62
3
100
AcDbSpline
 70
8
 71
3
 72
8
 73
4
 74
0
 40
0
 40
0
 40
0
 40
0
 40
1
 40
1
 40
1
 40
1
 10
34.617714
 20
68.136407
 30
0.0
 10
35.196910
 20
68.376317
 30
0.0
 10
35.574555
 20
68.941504
 30
0.0
 10
35.574555
 20
69.568420
 30
0.0
  0
SPLINE
  5
141
100
AcDbEntity
  8
Layer_1
 62
3
100
AcDbSpline
 70
8
 71
3
 72
8
 73
4
 74
0
 40
0
 40
0
 40
0
 40
0
 40
1
 40
1
 40
1
 40
1
 10
35.574555
 20
69.568420
 30
0.0
 10
35.574555
 20
69.979506
 30
0.0
 10
35.411252
 20
70.373754
 30
0.0
 10
35.120571
 20
70.664436
 30
0.0
  0
SPLINE
  5
142
100
AcDbEntity
  8
Layer_1
 62
3
100
AcDbSpline
 70
8
 71
3
 72
8
 73
4
 74
0
 40
0
 40
0
 40
0
 40
0
 40
1
 40
1
 40
1
 40
1
 10
35.120571
 20
70.664436
 30
0.0
 10
34.829889
 20
70.955117
 30
0.0
 10
34.435641
 20
71.118420
 30
0.0
 10
34.024555
 20
71.118420
 30
0.0
  0
LWPOLYLINE
  5
143
100
AcDbEntity
  8
Layer_1
 62
3
100
AcDbPolyline
 90
1
 70
1
 10
34.024555
 20
156.118459
 30
0.0
  0
LWPOLYLINE
  5
144
100
AcDbEntity
  8
Layer_1
 62
3
100
AcDbPolyline
 90
1
 70
1
 10
34.024555
 20
71.118420
 30
0.0
  0
SPLINE
  5
145
100
AcDbEntity
  8
Layer_1
 62
3
100
AcDbSpline
 70
8
 71
3
 72
8
 73
4
 74
0
 40
0
 40
0
 40
0
 40
0
 40
1
 40
1
 40
1
 40
1
 10
256.024550
 20
168.568459
 30
0.0
 10
261.328880
 20
168.568459
 30
0.0
 10
266.415958
 20
166.461322
 30
0.0
 10
270.166686
 20
162.710595
 30
0.0
  0
SPLINE
  5
146
100
AcDbEntity
  8
Layer_1
 62
3
100
AcDbSpline
 70
8
 71
3
 72
8
 73
4
 74
0
 40
0
 40
0
 40
0
 40
0
 40
1
 40
1
 40
1
 40
1
 10
270.166686
 20
162.710595
 30
0.0
 10
273.917413
 20
158.959867
 30
0.0
 10
276.024550
 20
153.872789
 30
0.0
 10
276.024550
 20
148.568459
 30
0.0
  0
LWPOLYLINE
  5
147
100
AcDbEntity
  8
Layer_1
 62
3
100
AcDbPolyline
 90
2
 70
0
 10
40.024553
 20
168.568459
 30
0.0
 10
256.024550
 20
168.568459
 30
0.0
  0
SPLINE
  5
148
100
AcDbEntity
  8
Layer_1
 62
3
100
AcDbSpline
 70
8
 71
3
 72
8
 73
4
 74
0
 40
0
 40
0
 40
0
 40
0
 40
1
 40
1
 40
1
 40
1
 10
276.024550
 20
75.568460
 30
0.0
 10
276.024550
 20
70.264130
 30
0.0
 10
273.917413
 20
65.177052
 30
0.0
 10
270.166686
 20
61.426324
 30
0.0
  0
SPLINE
  5
149
100
AcDbEntity
  8
Layer_1
 62
3
100
AcDbSpline
 70
8
 71
3
 72
8
 73
4
 74
0
 40
0
 40
0
 40
0
 40
0
 40
1
 40
1
 40
1
 40
1
 10
270.166686
 20
61.426324
 30
0.0
 10
266.415958
 20
57.675597
 30
0.0
 10
261.328880
 20
55.568460
 30
0.0
 10
256.024550
 20
55.568460
 30
0.0
  0
LWPOLYLINE
  5
14a
100
AcDbEntity
  8
Layer_1
 62
3
100
AcDbPolyline
 90
2
 70
0
 10
276.024550
 20
148.568459
 30
0.0
 10
276.024550
 20
75.568460
 30
0.0
  0
SPLINE
  5
14b
100
AcDbEntity
  8
Layer_1
 62
3
100
AcDbSpline
 70
8
 71
3
 72
8
 73
4
 74
0
 40
0
 40
0
 40
0
 40
0
 40
1
 40
1
 40
1
 40
1
 10
40.024553
 20
55.568460
 30
0.0
 10
34.720223
 20
55.568460
 30
0.0
 10
29.633145
 20
57.675597
 30
0.0
 10
25.882417
 20
61.426324
 30
0.0
  0
SPLINE
  5
14c
100
AcDbEntity
  8
Layer_1
 62
3
100
AcDbSpline
 70
8
 71
3
 72
8
 73
4
 74
0
 40
0
 40
0
 40
0
 40
0
 40
1
 40
1
 40
1
 40
1
 10
25.882417
 20
61.426324
 30
0.0
 10
22.131690
 20
65.177052
 30
0.0
 10
20.024553
 20
70.264130
 30
0.0
 10
20.024553
 20
75.568460
 30
0.0
  0
LWPOLYLINE
  5
14d
100
AcDbEntity
  8
Layer_1
 62
3
100
AcDbPolyline
 90
2
 70
0
 10
256.024550
 20
55.568460
 30
0.0
 10
40.024553
 20
55.568460
 30
0.0
  0
SPLINE
  5
14e
100
AcDbEntity
  8
Layer_1
 62
3
100
AcDbSpline
 70
8
 71
3
 72
8
 73
4
 74
0
 40
0
 40
0
 40
0
 40
0
 40
1
 40
1
 40
1
 40
1
 10
20.024553
 20
148.568459
 30
0.0
 10
20.024553
 20
153.872789
 30
0.0
 10
22.131690
 20
158.959867
 30
0.0
 10
25.882417
 20
162.710595
 30
0.0
  0
SPLINE
  5
14f
100
AcDbEntity
  8
Layer_1
 62
3
100
AcDbSpline
 70
8
 71
3
 72
8
 73
4
 74
0
 40
0
 40
0
 40
0
 40
0
 40
1
 40
1
 40
1
 40
1
 10
25.882417
 20
162.710595
 30
0.0
 10
29.633145
 20
166.461322
 30
0.0
 10
34.720223
 20
168.568459
 30
0.0
 10
40.024553
 20
168.568459
 30
0.0
  0
LWPOLYLINE
  5
150
100
AcDbEntity
  8
Layer_1
 62
3
100
AcDbPolyline
 90
2
 70
0
 10
20.024553
 20
75.568460
 30
0.0
 10
20.024553
 20
148.568459
 30
0.0
  0
LWPOLYLINE
  5
151
100
AcDbEntity
  8
Layer_1
 62
3
100
AcDbPolyline
 90
1
 70
1
 10
40.024553
 20
168.568459
 30
0.0
  0
ENDSEC
  0
SECTION
  2
OBJECTS
  0
DICTIONARY
  5
C
330
0
100
AcDbDictionary
  3
ACAD_GROUP
350
D
  3
ACAD_MLINESTYLE
350
17
  0
DICTIONARY
  5
D
330
C
100
AcDbDictionary
  0
DICTIONARY
  5
1A
330
C
100
AcDbDictionary
  0
DICTIONARY
  5
17
330
C
100
AcDbDictionary
  3
STANDARD
350
18
  0
DICTIONARY
  5
19
330
C
100
AcDbDictionary
  0
ENDSEC
  0
EOF
