  0
SECTION
  2
HEADER
  9
$ACADVER
  1
AC1014
  9
$HANDSEED
  5
FFFF
  9
$MEASUREMENT
 70
     1
  0
ENDSEC
  0
SECTION
  2
TABLES
  0
TABLE
  2
VPORT
  5
8
330
0
100
AcDbSymbolTable
 70
     4
  0
VPORT
  5
2E
330
8
100
AcDbSymbolTableRecord
100
AcDbViewportTableRecord
  2
*ACTIVE
 70
     0
 10
0.0
 20
0.0
 11
1.0
 21
1.0
 12
210.0
 22
148.5
 13
0.0
 23
0.0
 14
10.0
 24
10.0
 15
10.0
 25
10.0
 16
0.0
 26
0.0
 36
1.0
 17
0.0
 27
0.0
 37
0.0
 40
341.0
 41
1.24
 42
50.0
 43
0.0
 44
0.0
 50
0.0
 51
0.0
 71
     0
 72
   100
 73
     1
 74
     3
 75
     0
 76
     0
 77
     0
 78
     0
  0
ENDTAB
  0
TABLE
  2
LTYPE
  5
5
330
0
100
AcDbSymbolTable
 70
     1
  0
LTYPE
  5
14
330
5
100
AcDbSymbolTableRecord
100
AcDbLinetypeTableRecord
  2
BYBLOCK
 70
     0
  3

 72
    65
 73
     0
 40
0.0
  0
LTYPE
  5
15
330
5
100
AcDbSymbolTableRecord
100
AcDbLinetypeTableRecord
  2
BYLAYER
 70
     0
  3

 72
    65
 73
     0
 40
0.0
  0
LTYPE
  5
16
330
5
100
AcDbSymbolTableRecord
100
AcDbLinetypeTableRecord
  2
CONTINUOUS
 70
     0
  3
Solid line
 72
    65
 73
     0
 40
0.0
  0
ENDTAB
  0
TABLE
  2
LAYER
  5
2
100
AcDbSymbolTable
 70
2
  0
LAYER
  5
50
100
AcDbSymbolTableRecord
100
AcDbLayerTableRecord
  2
0
 70
0
  6
CONTINUOUS
  0
LAYER
  5
51
100
AcDbSymbolTableRecord
100
AcDbLayerTableRecord
  2
Layer_1
 70
0
  6
CONTINUOUS
  0
ENDTAB
  0
TABLE
  2
STYLE
  5
3
330
0
100
AcDbSymbolTable
 70
     1
  0
STYLE
  5
11
330
3
100
AcDbSymbolTableRecord
100
AcDbTextStyleTableRecord
  2
STANDARD
 70
     0
 40
0.0
 41
1.0
 50
0.0
 71
     0
 42
2.5
  3
txt
  4

  0
ENDTAB
  0
TABLE
  2
VIEW
  5
6
330
0
100
AcDbSymbolTable
 70
     0
  0
ENDTAB
  0
TABLE
  2
UCS
  5
7
330
0
100
AcDbSymbolTable
 70
     0
  0
ENDTAB
  0
TABLE
  2
APPID
  5
9
330
0
100
AcDbSymbolTable
 70
     2
  0
APPID
  5
12
330
9
100
AcDbSymbolTableRecord
100
AcDbRegAppTableRecord
  2
ACAD
 70
     0
  0
ENDTAB
  0
TABLE
  2
DIMSTYLE
  5
A
330
0
100
AcDbSymbolTable
 70
     1
  0
DIMSTYLE
105
27
330
A
100
AcDbSymbolTableRecord
100
AcDbDimStyleTableRecord
  2
ISO-25
 70
     0
  3

  4

  5

  6

  7

 40
1.0
 41
2.5
 42
0.625
 43
3.75
 44
1.25
 45
0.0
 46
0.0
 47
0.0
 48
0.0
140
2.5
141
2.5
142
0.0
143
0.03937007874016
144
1.0
145
0.0
146
1.0
147
0.625
 71
     0
 72
     0
 73
     0
 74
     0
 75
     0
 76
     0
 77
     1
 78
     8
170
     0
171
     3
172
     1
173
     0
174
     0
175
     0
176
     0
177
     0
178
     0
270
     2
271
     2
272
     2
273
     2
274
     3
340
11
275
     0
280
     0
281
     0
282
     0
283
     0
284
     8
285
     0
286
     0
287
     3
288
     0
  0
ENDTAB
  0
TABLE
  2
BLOCK_RECORD
  5
1
330
0
100
AcDbSymbolTable
 70
     1
  0
BLOCK_RECORD
  5
1F
330
1
100
AcDbSymbolTableRecord
100
AcDbBlockTableRecord
  2
*MODEL_SPACE
  0
BLOCK_RECORD
  5
1B
330
1
100
AcDbSymbolTableRecord
100
AcDbBlockTableRecord
  2
*PAPER_SPACE
  0
ENDTAB
  0
ENDSEC
  0
SECTION
  2
BLOCKS
  0
BLOCK
  5
20
330
1F
100
AcDbEntity
  8
0
100
AcDbBlockBegin
  2
*MODEL_SPACE
 70
     0
 10
0.0
 20
0.0
 30
0.0
  3
*MODEL_SPACE
  1

  0
ENDBLK
  5
21
330
1F
100
AcDbEntity
  8
0
100
AcDbBlockEnd
  0
BLOCK
  5
1C
330
1B
100
AcDbEntity
 67
     1
  8
0
100
AcDbBlockBegin
  2
*PAPER_SPACE
  1

  0
ENDBLK
  5
1D
330
1B
100
AcDbEntity
 67
     1
  8
0
100
AcDbBlockEnd
  0
ENDSEC
  0
SECTION
  2
ENTITIES
  0
SPLINE
  5
100
100
AcDbEntity
  8
Layer_1
 62
3
100
AcDbSpline
 70
8
 71
3
 72
8
 73
4
 74
0
 40
0
 40
0
 40
0
 40
0
 40
1
 40
1
 40
1
 40
1
 10
243.252120
 20
155.707077
 30
0.0
 10
248.556450
 20
155.707077
 30
0.0
 10
253.643528
 20
153.599940
 30
0.0
 10
257.394256
 20
149.849213
 30
0.0
  0
SPLINE
  5
101
100
AcDbEntity
  8
Layer_1
 62
3
100
AcDbSpline
 70
8
 71
3
 72
8
 73
4
 74
0
 40
0
 40
0
 40
0
 40
0
 40
1
 40
1
 40
1
 40
1
 10
257.394256
 20
149.849213
 30
0.0
 10
261.144983
 20
146.098485
 30
0.0
 10
263.252120
 20
141.011407
 30
0.0
 10
263.252120
 20
135.707077
 30
0.0
  0
LWPOLYLINE
  5
102
100
AcDbEntity
  8
Layer_1
 62
3
100
AcDbPolyline
 90
2
 70
0
 10
35.252117
 20
155.707077
 30
0.0
 10
243.252120
 20
155.707077
 30
0.0
  0
SPLINE
  5
103
100
AcDbEntity
  8
Layer_1
 62
3
100
AcDbSpline
 70
8
 71
3
 72
8
 73
4
 74
0
 40
0
 40
0
 40
0
 40
0
 40
1
 40
1
 40
1
 40
1
 10
263.252120
 20
70.707080
 30
0.0
 10
263.252120
 20
65.402750
 30
0.0
 10
261.144983
 20
60.315672
 30
0.0
 10
257.394256
 20
56.564944
 30
0.0
  0
SPLINE
  5
104
100
AcDbEntity
  8
Layer_1
 62
3
100
AcDbSpline
 70
8
 71
3
 72
8
 73
4
 74
0
 40
0
 40
0
 40
0
 40
0
 40
1
 40
1
 40
1
 40
1
 10
257.394256
 20
56.564944
 30
0.0
 10
253.643528
 20
52.814217
 30
0.0
 10
248.556450
 20
50.707080
 30
0.0
 10
243.252120
 20
50.707080
 30
0.0
  0
LWPOLYLINE
  5
105
100
AcDbEntity
  8
Layer_1
 62
3
100
AcDbPolyline
 90
2
 70
0
 10
263.252120
 20
135.707077
 30
0.0
 10
263.252120
 20
70.707080
 30
0.0
  0
SPLINE
  5
106
100
AcDbEntity
  8
Layer_1
 62
3
100
AcDbSpline
 70
8
 71
3
 72
8
 73
4
 74
0
 40
0
 40
0
 40
0
 40
0
 40
1
 40
1
 40
1
 40
1
 10
35.252117
 20
50.707080
 30
0.0
 10
29.947787
 20
50.707080
 30
0.0
 10
24.860709
 20
52.814217
 30
0.0
 10
21.109981
 20
56.564944
 30
0.0
  0
SPLINE
  5
107
100
AcDbEntity
  8
Layer_1
 62
3
100
AcDbSpline
 70
8
 71
3
 72
8
 73
4
 74
0
 40
0
 40
0
 40
0
 40
0
 40
1
 40
1
 40
1
 40
1
 10
21.109981
 20
56.564944
 30
0.0
 10
17.359254
 20
60.315672
 30
0.0
 10
15.252117
 20
65.402750
 30
0.0
 10
15.252117
 20
70.707080
 30
0.0
  0
LWPOLYLINE
  5
108
100
AcDbEntity
  8
Layer_1
 62
3
100
AcDbPolyline
 90
2
 70
0
 10
243.252120
 20
50.707080
 30
0.0
 10
35.252117
 20
50.707080
 30
0.0
  0
SPLINE
  5
109
100
AcDbEntity
  8
Layer_1
 62
3
100
AcDbSpline
 70
8
 71
3
 72
8
 73
4
 74
0
 40
0
 40
0
 40
0
 40
0
 40
1
 40
1
 40
1
 40
1
 10
15.252117
 20
135.707077
 30
0.0
 10
15.252117
 20
141.011407
 30
0.0
 10
17.359254
 20
146.098485
 30
0.0
 10
21.109981
 20
149.849213
 30
0.0
  0
SPLINE
  5
10a
100
AcDbEntity
  8
Layer_1
 62
3
100
AcDbSpline
 70
8
 71
3
 72
8
 73
4
 74
0
 40
0
 40
0
 40
0
 40
0
 40
1
 40
1
 40
1
 40
1
 10
21.109981
 20
149.849213
 30
0.0
 10
24.860709
 20
153.599940
 30
0.0
 10
29.947787
 20
155.707077
 30
0.0
 10
35.252117
 20
155.707077
 30
0.0
  0
LWPOLYLINE
  5
10b
100
AcDbEntity
  8
Layer_1
 62
3
100
AcDbPolyline
 90
2
 70
0
 10
15.252117
 20
70.707080
 30
0.0
 10
15.252117
 20
135.707077
 30
0.0
  0
SPLINE
  5
10c
100
AcDbEntity
  8
Layer_1
 62
3
100
AcDbSpline
 70
8
 71
3
 72
8
 73
4
 74
0
 40
0
 40
0
 40
0
 40
0
 40
1
 40
1
 40
1
 40
1
 10
253.252150
 20
147.257077
 30
0.0
 10
252.625234
 20
147.257077
 30
0.0
 10
252.060047
 20
146.879432
 30
0.0
 10
251.820137
 20
146.300236
 30
0.0
  0
SPLINE
  5
10d
100
AcDbEntity
  8
Layer_1
 62
3
100
AcDbSpline
 70
8
 71
3
 72
8
 73
4
 74
0
 40
0
 40
0
 40
0
 40
0
 40
1
 40
1
 40
1
 40
1
 10
251.820137
 20
146.300236
 30
0.0
 10
251.580226
 20
145.721041
 30
0.0
 10
251.712838
 20
145.054358
 30
0.0
 10
252.156134
 20
144.611061
 30
0.0
  0
SPLINE
  5
10e
100
AcDbEntity
  8
Layer_1
 62
3
100
AcDbSpline
 70
8
 71
3
 72
8
 73
4
 74
0
 40
0
 40
0
 40
0
 40
0
 40
1
 40
1
 40
1
 40
1
 10
252.156134
 20
144.611061
 30
0.0
 10
252.599431
 20
144.167765
 30
0.0
 10
253.266114
 20
144.035153
 30
0.0
 10
253.845309
 20
144.275064
 30
0.0
  0
SPLINE
  5
10f
100
AcDbEntity
  8
Layer_1
 62
3
100
AcDbSpline
 70
8
 71
3
 72
8
 73
4
 74
0
 40
0
 40
0
 40
0
 40
0
 40
1
 40
1
 40
1
 40
1
 10
253.845309
 20
144.275064
 30
0.0
 10
254.424505
 20
144.514974
 30
0.0
 10
254.802150
 20
145.080161
 30
0.0
 10
254.802150
 20
145.707077
 30
0.0
  0
SPLINE
  5
110
100
AcDbEntity
  8
Layer_1
 62
3
100
AcDbSpline
 70
8
 71
3
 72
8
 73
4
 74
0
 40
0
 40
0
 40
0
 40
0
 40
1
 40
1
 40
1
 40
1
 10
254.802150
 20
145.707077
 30
0.0
 10
254.802150
 20
146.118163
 30
0.0
 10
254.638847
 20
146.512411
 30
0.0
 10
254.348166
 20
146.803093
 30
0.0
  0
SPLINE
  5
111
100
AcDbEntity
  8
Layer_1
 62
3
100
AcDbSpline
 70
8
 71
3
 72
8
 73
4
 74
0
 40
0
 40
0
 40
0
 40
0
 40
1
 40
1
 40
1
 40
1
 10
254.348166
 20
146.803093
 30
0.0
 10
254.057484
 20
147.093774
 30
0.0
 10
253.663236
 20
147.257077
 30
0.0
 10
253.252150
 20
147.257077
 30
0.0
  0
LWPOLYLINE
  5
112
100
AcDbEntity
  8
Layer_1
 62
3
100
AcDbPolyline
 90
1
 70
1
 10
35.252117
 20
155.707077
 30
0.0
  0
SPLINE
  5
113
100
AcDbEntity
  8
Layer_1
 62
3
100
AcDbSpline
 70
8
 71
3
 72
8
 73
4
 74
0
 40
0
 40
0
 40
0
 40
0
 40
1
 40
1
 40
1
 40
1
 10
253.252150
 20
62.257060
 30
0.0
 10
252.625234
 20
62.257060
 30
0.0
 10
252.060047
 20
61.879415
 30
0.0
 10
251.820137
 20
61.300219
 30
0.0
  0
SPLINE
  5
114
100
AcDbEntity
  8
Layer_1
 62
3
100
AcDbSpline
 70
8
 71
3
 72
8
 73
4
 74
0
 40
0
 40
0
 40
0
 40
0
 40
1
 40
1
 40
1
 40
1
 10
251.820137
 20
61.300219
 30
0.0
 10
251.580226
 20
60.721024
 30
0.0
 10
251.712838
 20
60.054341
 30
0.0
 10
252.156134
 20
59.611044
 30
0.0
  0
SPLINE
  5
115
100
AcDbEntity
  8
Layer_1
 62
3
100
AcDbSpline
 70
8
 71
3
 72
8
 73
4
 74
0
 40
0
 40
0
 40
0
 40
0
 40
1
 40
1
 40
1
 40
1
 10
252.156134
 20
59.611044
 30
0.0
 10
252.599431
 20
59.167748
 30
0.0
 10
253.266114
 20
59.035136
 30
0.0
 10
253.845309
 20
59.275047
 30
0.0
  0
SPLINE
  5
116
100
AcDbEntity
  8
Layer_1
 62
3
100
AcDbSpline
 70
8
 71
3
 72
8
 73
4
 74
0
 40
0
 40
0
 40
0
 40
0
 40
1
 40
1
 40
1
 40
1
 10
253.845309
 20
59.275047
 30
0.0
 10
254.424505
 20
59.514957
 30
0.0
 10
254.802150
 20
60.080144
 30
0.0
 10
254.802150
 20
60.707060
 30
0.0
  0
SPLINE
  5
117
100
AcDbEntity
  8
Layer_1
 62
3
100
AcDbSpline
 70
8
 71
3
 72
8
 73
4
 74
0
 40
0
 40
0
 40
0
 40
0
 40
1
 40
1
 40
1
 40
1
 10
254.802150
 20
60.707060
 30
0.0
 10
254.802150
 20
61.118146
 30
0.0
 10
254.638847
 20
61.512394
 30
0.0
 10
254.348166
 20
61.803076
 30
0.0
  0
SPLINE
  5
118
100
AcDbEntity
  8
Layer_1
 62
3
100
AcDbSpline
 70
8
 71
3
 72
8
 73
4
 74
0
 40
0
 40
0
 40
0
 40
0
 40
1
 40
1
 40
1
 40
1
 10
254.348166
 20
61.803076
 30
0.0
 10
254.057484
 20
62.093757
 30
0.0
 10
253.663236
 20
62.257060
 30
0.0
 10
253.252150
 20
62.257060
 30
0.0
  0
LWPOLYLINE
  5
119
100
AcDbEntity
  8
Layer_1
 62
3
100
AcDbPolyline
 90
1
 70
1
 10
253.252150
 20
147.257077
 30
0.0
  0
SPLINE
  5
11a
100
AcDbEntity
  8
Layer_1
 62
3
100
AcDbSpline
 70
8
 71
3
 72
8
 73
4
 74
0
 40
0
 40
0
 40
0
 40
0
 40
1
 40
1
 40
1
 40
1
 10
25.252117
 20
147.257077
 30
0.0
 10
24.625201
 20
147.257077
 30
0.0
 10
24.060014
 20
146.879432
 30
0.0
 10
23.820104
 20
146.300236
 30
0.0
  0
SPLINE
  5
11b
100
AcDbEntity
  8
Layer_1
 62
3
100
AcDbSpline
 70
8
 71
3
 72
8
 73
4
 74
0
 40
0
 40
0
 40
0
 40
0
 40
1
 40
1
 40
1
 40
1
 10
23.820104
 20
146.300236
 30
0.0
 10
23.580193
 20
145.721041
 30
0.0
 10
23.712805
 20
145.054358
 30
0.0
 10
24.156101
 20
144.611061
 30
0.0
  0
SPLINE
  5
11c
100
AcDbEntity
  8
Layer_1
 62
3
100
AcDbSpline
 70
8
 71
3
 72
8
 73
4
 74
0
 40
0
 40
0
 40
0
 40
0
 40
1
 40
1
 40
1
 40
1
 10
24.156101
 20
144.611061
 30
0.0
 10
24.599398
 20
144.167765
 30
0.0
 10
25.266081
 20
144.035153
 30
0.0
 10
25.845276
 20
144.275064
 30
0.0
  0
SPLINE
  5
11d
100
AcDbEntity
  8
Layer_1
 62
3
100
AcDbSpline
 70
8
 71
3
 72
8
 73
4
 74
0
 40
0
 40
0
 40
0
 40
0
 40
1
 40
1
 40
1
 40
1
 10
25.845276
 20
144.275064
 30
0.0
 10
26.424472
 20
144.514974
 30
0.0
 10
26.802117
 20
145.080161
 30
0.0
 10
26.802117
 20
145.707077
 30
0.0
  0
SPLINE
  5
11e
100
AcDbEntity
  8
Layer_1
 62
3
100
AcDbSpline
 70
8
 71
3
 72
8
 73
4
 74
0
 40
0
 40
0
 40
0
 40
0
 40
1
 40
1
 40
1
 40
1
 10
26.802117
 20
145.707077
 30
0.0
 10
26.802117
 20
146.118163
 30
0.0
 10
26.638814
 20
146.512411
 30
0.0
 10
26.348133
 20
146.803093
 30
0.0
  0
SPLINE
  5
11f
100
AcDbEntity
  8
Layer_1
 62
3
100
AcDbSpline
 70
8
 71
3
 72
8
 73
4
 74
0
 40
0
 40
0
 40
0
 40
0
 40
1
 40
1
 40
1
 40
1
 10
26.348133
 20
146.803093
 30
0.0
 10
26.057451
 20
147.093774
 30
0.0
 10
25.663203
 20
147.257077
 30
0.0
 10
25.252117
 20
147.257077
 30
0.0
  0
LWPOLYLINE
  5
120
100
AcDbEntity
  8
Layer_1
 62
3
100
AcDbPolyline
 90
1
 70
1
 10
253.252150
 20
62.257060
 30
0.0
  0
SPLINE
  5
121
100
AcDbEntity
  8
Layer_1
 62
3
100
AcDbSpline
 70
8
 71
3
 72
8
 73
4
 74
0
 40
0
 40
0
 40
0
 40
0
 40
1
 40
1
 40
1
 40
1
 10
25.252117
 20
62.257060
 30
0.0
 10
24.625201
 20
62.257060
 30
0.0
 10
24.060014
 20
61.879415
 30
0.0
 10
23.820104
 20
61.300219
 30
0.0
  0
SPLINE
  5
122
100
AcDbEntity
  8
Layer_1
 62
3
100
AcDbSpline
 70
8
 71
3
 72
8
 73
4
 74
0
 40
0
 40
0
 40
0
 40
0
 40
1
 40
1
 40
1
 40
1
 10
23.820104
 20
61.300219
 30
0.0
 10
23.580193
 20
60.721024
 30
0.0
 10
23.712805
 20
60.054341
 30
0.0
 10
24.156101
 20
59.611044
 30
0.0
  0
SPLINE
  5
123
100
AcDbEntity
  8
Layer_1
 62
3
100
AcDbSpline
 70
8
 71
3
 72
8
 73
4
 74
0
 40
0
 40
0
 40
0
 40
0
 40
1
 40
1
 40
1
 40
1
 10
24.156101
 20
59.611044
 30
0.0
 10
24.599398
 20
59.167748
 30
0.0
 10
25.266081
 20
59.035136
 30
0.0
 10
25.845276
 20
59.275047
 30
0.0
  0
SPLINE
  5
124
100
AcDbEntity
  8
Layer_1
 62
3
100
AcDbSpline
 70
8
 71
3
 72
8
 73
4
 74
0
 40
0
 40
0
 40
0
 40
0
 40
1
 40
1
 40
1
 40
1
 10
25.845276
 20
59.275047
 30
0.0
 10
26.424472
 20
59.514957
 30
0.0
 10
26.802117
 20
60.080144
 30
0.0
 10
26.802117
 20
60.707060
 30
0.0
  0
SPLINE
  5
125
100
AcDbEntity
  8
Layer_1
 62
3
100
AcDbSpline
 70
8
 71
3
 72
8
 73
4
 74
0
 40
0
 40
0
 40
0
 40
0
 40
1
 40
1
 40
1
 40
1
 10
26.802117
 20
60.707060
 30
0.0
 10
26.802117
 20
61.118146
 30
0.0
 10
26.638814
 20
61.512394
 30
0.0
 10
26.348133
 20
61.803076
 30
0.0
  0
SPLINE
  5
126
100
AcDbEntity
  8
Layer_1
 62
3
100
AcDbSpline
 70
8
 71
3
 72
8
 73
4
 74
0
 40
0
 40
0
 40
0
 40
0
 40
1
 40
1
 40
1
 40
1
 10
26.348133
 20
61.803076
 30
0.0
 10
26.057451
 20
62.093757
 30
0.0
 10
25.663203
 20
62.257060
 30
0.0
 10
25.252117
 20
62.257060
 30
0.0
  0
LWPOLYLINE
  5
127
100
AcDbEntity
  8
Layer_1
 62
3
100
AcDbPolyline
 90
1
 70
1
 10
25.252117
 20
147.257077
 30
0.0
  0
LWPOLYLINE
  5
128
100
AcDbEntity
  8
Layer_1
 62
3
100
AcDbPolyline
 90
1
 70
1
 10
25.252117
 20
62.257060
 30
0.0
  0
LWPOLYLINE
  5
129
100
AcDbEntity
  8
Layer_1
 62
3
100
AcDbPolyline
 90
4
 70
1
 10
218.058430
 20
92.825440
 30
0.0
 10
238.058430
 20
92.825440
 30
0.0
 10
238.058430
 20
82.825440
 30
0.0
 10
218.058430
 20
82.825440
 30
0.0
  0
ENDSEC
  0
SECTION
  2
OBJECTS
  0
DICTIONARY
  5
C
330
0
100
AcDbDictionary
  3
ACAD_GROUP
350
D
  3
ACAD_MLINESTYLE
350
17
  0
DICTIONARY
  5
D
330
C
100
AcDbDictionary
  0
DICTIONARY
  5
1A
330
C
100
AcDbDictionary
  0
DICTIONARY
  5
17
330
C
100
AcDbDictionary
  3
STANDARD
350
18
  0
DICTIONARY
  5
19
330
C
100
AcDbDictionary
  0
ENDSEC
  0
EOF
